<?xml version="1.0" encoding="UTF-8" standalone="no"?>
<svg
   width="11in"
   height="8.5in"
   viewBox="0 0 1056 816"
   version="1.1"
   id="svg1"
   sodipodi:docname="090I0006.svg"
   inkscape:version="1.4.2 (f4327f4, 2025-05-13)"
   xmlns:inkscape="http://www.inkscape.org/namespaces/inkscape"
   xmlns:sodipodi="http://sodipodi.sourceforge.net/DTD/sodipodi-0.dtd"
   xmlns="http://www.w3.org/2000/svg"
   xmlns:svg="http://www.w3.org/2000/svg">
  <defs
     id="defs1" />
  <sodipodi:namedview
     id="namedview1"
     pagecolor="#ffffff"
     bordercolor="#000000"
     borderopacity="0.25"
     inkscape:showpageshadow="2"
     inkscape:pageopacity="0.0"
     inkscape:pagecheckerboard="0"
     inkscape:deskcolor="#d1d1d1"
     inkscape:zoom="1"
     inkscape:cx="441.5"
     inkscape:cy="455.5"
     inkscape:window-width="1920"
     inkscape:window-height="1017"
     inkscape:window-x="-8"
     inkscape:window-y="-8"
     inkscape:window-maximized="1"
     inkscape:current-layer="layer20"
     inkscape:document-units="in" />
  <g
     inkscape:groupmode="layer"
     id="layer12"
     inkscape:label="_windows"
     style="display:inline">
    <g
       id="g1"
       style="display:inline;stroke-width:1.001;stroke-dasharray:none"
       transform="matrix(1.2578842,0,0,1.2578842,-118.51285,-63.198818)">
      <path
         id="part_204"
         d="m 632.94603,127.63087 3.89056,48.63203 -85.59237,15.17319 78.97842,-62.63806 z"
         fill="none"
         stroke="#000000"
         stroke-width="0.389056"
         style="stroke-width:1.001;stroke-dasharray:none" />
      <path
         id="part_205"
         d="m 641.11622,122.57314 7.00301,51.74448 -0.77812,0.77811 -8.94829,1.16717 -4.27962,-47.46487 z"
         fill="none"
         stroke="#000000"
         stroke-width="0.389056"
         style="display:inline;stroke-width:1.001;stroke-dasharray:none" />
    </g>
    <g
       id="g2"
       style="display:inline;stroke-width:1.001;stroke-dasharray:none"
       transform="matrix(1.2578842,0,0,1.2578842,-118.51285,-63.198818)">
      <path
         id="part_219"
         d="m 716.59312,88.72524 5.44679,17.50753 4.66867,20.23093 4.2796,35.01507 -82.09084,11.28263 -6.61396,-50.96638 -1.16716,-1.16717 50.96636,-40.46185 z"
         fill="none"
         stroke="#000000"
         stroke-width="0.389056"
         style="stroke-width:1.001;stroke-dasharray:none" />
    </g>
    <g
       id="g3"
       style="display:inline;stroke-width:1.001;stroke-dasharray:none"
       transform="matrix(1.2578842,0,0,1.2578842,-118.51285,-63.198818)">
      <path
         id="part_210"
         d="m 718.53841,89.50335 7.78112,3.11246 10.50451,34.23694 3.89055,17.89659 1.94533,15.56225 -10.8936,0.77811 -4.27962,-35.01506 z"
         fill="none"
         stroke="#000000"
         stroke-width="0.389056"
         style="stroke-width:1.001;stroke-dasharray:none" />
      <path
         id="part_209"
         d="m 727.09764,93.00485 0.77811,-0.38904 34.23699,13.61696 31.90257,13.61697 4.27964,14.39507 1.94527,17.8966 -1.16719,0.77812 -54.85689,7.003 -0.77814,-0.77811 -1.94527,-14.78414 -4.27964,-19.45281 -4.27958,-15.56226 z"
         fill="none"
         stroke="#000000"
         stroke-width="0.389056"
         style="stroke-width:1.001;stroke-dasharray:none" />
      <path
         id="part_224"
         d="m 692.86069,79.38789 1.16717,-0.77811 70.03014,24.8996 35.01503,14.00603 13.61701,35.01506 -4.66869,-1.16717 -7.00305,0.77811 -1.94527,-18.28565 -3.89053,-14.39508 -68.86297,-28.4011 z"
         fill="none"
         stroke="#000000"
         stroke-width="0.389056"
         style="stroke-width:1.001;stroke-dasharray:none" />
      <path
         id="part_211"
         d="m 714.64784,84.83468 1.16717,-0.38906 51.35545,17.89659 33.06976,12.4498 1.16718,1.16717 -1.55622,1.16716 -35.40413,-14.39507 z"
         fill="none"
         stroke="#000000"
         stroke-width="0.389056"
         style="stroke-width:1.001;stroke-dasharray:none" />
    </g>
    <g
       id="g4"
       transform="matrix(1.2578842,0,0,1.2578842,-118.51285,-63.198818)"
       style="stroke-width:1.001;stroke-dasharray:none">
      <path
         id="part_202"
         d="m 816.96962,155.64291 -236.54618,33.06978 -8.55923,0.38906 78.58936,-14.00602 162.23647,-20.23093 z"
         fill="none"
         stroke="#000000"
         stroke-width="0.389056"
         style="stroke-width:1.001;stroke-dasharray:none" />
      <path
         id="part_203"
         d="m 812.30094,154.08669 -163.4036,20.23093 1.16717,-1.16717 156.78966,-21.00904 z"
         fill="none"
         stroke="#000000"
         stroke-width="0.389056"
         style="stroke-width:1.001;stroke-dasharray:none" />
    </g>
    <g
       id="g5"
       transform="matrix(1.2578842,0,0,1.2578842,-118.51285,-63.198818)"
       style="stroke-width:1.001;stroke-dasharray:none">
      <path
         id="part_229"
         d="m 688.58108,67.32714 -149.3976,107.76859 -312.80122,-3.89057 -12.4498,-0.7781 121.38555,-48.63204 122.16366,-43.5743 z"
         fill="none"
         stroke="#000000"
         stroke-width="0.389056"
         style="stroke-width:1.001;stroke-dasharray:none" />
      <path
         id="part_230"
         d="m 538.40536,86.3909 -1.55621,-1.55622 -21.00905,1.16716 -35.40412,15.95131 -1.55622,1.55623 1.16717,1.16717 28.4011,-0.38907 26.45583,-16.7294 z"
         fill="none"
         stroke="#000000"
         stroke-width="0.389056"
         style="stroke-width:1.001;stroke-dasharray:none" />
      <path
         id="part_231"
         d="m 510.78237,101.5641 -1.55623,1.16717 -0.77811,-0.38906 1.55623,-1.16717 z"
         fill="none"
         stroke="#000000"
         stroke-width="0.389056"
         style="stroke-width:1.001;stroke-dasharray:none" />
      <path
         id="part_249"
         d="m 511.56049,96.89542 -5.4468,5.83585 -21.39809,0.38904 19.06376,-7.003 z"
         fill="none"
         stroke="#000000"
         stroke-width="0.389056"
         style="stroke-width:1.001;stroke-dasharray:none" />
      <path
         id="part_273"
         d="m 532.56952,86.3909 -21.39809,13.22791 -0.77811,-0.38906 4.27961,-4.66867 -11.28264,-0.38906 -7.78111,3.11246 -1.16718,-0.38906 21.78716,-10.11546 z"
         fill="none"
         stroke="#000000"
         stroke-width="0.389056"
         style="stroke-width:1.001;stroke-dasharray:none" />
    </g>
    <g
       id="g7"
       transform="matrix(1.2578842,0,0,1.2578842,-118.51285,-63.198818)"
       style="stroke-width:1.001;stroke-dasharray:none">
      <path
         id="part_208"
         d="m 799.85118,106.23277 h 1.94527 l 23.34336,9.72641 30.3464,14.00602 34.23693,17.11848 25.67776,14.39509 -84.03619,12.44979 z"
         fill="none"
         stroke="#000000"
         stroke-width="0.389056"
         style="stroke-width:1.001;stroke-dasharray:none" />
    </g>
  </g>
  <g
     inkscape:groupmode="layer"
     id="layer14"
     inkscape:label="_windowframes"
     style="display:inline">
    <g
       id="g6"
       style="display:inline;stroke-width:1.001;stroke-dasharray:none"
       transform="matrix(1.2578842,0,0,1.2578842,-118.51285,-63.198818)">
      <path
         id="part_228"
         d="m 802.57453,114.40295 -0.77808,0.38906 -34.23695,-13.22791 -72.75352,-24.8996 -147.06326,116.71687 1.94528,0.38905 89.87199,-12.44979 5.83584,19.45281 -0.38905,1.55623 -169.62853,27.62298 -8.94829,0.77812 74.30975,-56.0241 147.06325,-105.43424 1.94529,-2.33434 76.64406,25.67772 30.73545,11.67167 1.55623,1.16718 z"
         fill="none"
         stroke="#000000"
         stroke-width="0.389056"
         style="stroke-width:1.001;stroke-dasharray:none" />
      <path
         id="part_198"
         d="m 754.3316,185.21119 -107.76859,16.72942 -5.83585,-20.61998 106.99048,-15.1732 z"
         fill="none"
         stroke="#000000"
         stroke-width="0.389056"
         style="stroke-width:1.001;stroke-dasharray:none" />
      <path
         id="part_201"
         d="m 830.19753,173.92856 -74.69875,11.28263 -6.61402,-18.67469 72.75354,-10.50453 z"
         fill="none"
         stroke="#000000"
         stroke-width="0.389056"
         style="stroke-width:1.001;stroke-dasharray:none" />
      <path
         id="part_207"
         d="m 801.0183,117.12634 2.33438,-0.7781 17.89658,38.90562 -7.39209,-1.55623 -12.83887,-33.84789 z"
         fill="none"
         stroke="#000000"
         stroke-width="0.389056"
         style="stroke-width:1.001;stroke-dasharray:none" />
    </g>
    <g
       id="g8"
       style="display:inline;stroke-width:1.001;stroke-dasharray:none"
       transform="matrix(1.2578842,0,0,1.2578842,-118.51285,-63.198818)">
      <path
         id="part_197"
         d="m 107.33105,233.45416 0.38905,-13.61697 1.16717,-3.5015 2.33434,-3.11245 30.73544,-12.06074 23.73243,-11.67169 19.06376,-8.17018 25.28865,-9.7264 313.9684,3.89056 13.22791,0.77811 -71.58635,54.07882 -120.60744,18.67469 -51.35542,-0.77811 -44.74147,-1.94528 -45.51958,-3.50151 z"
         fill="none"
         stroke="#000000"
         stroke-width="0.389056"
         style="stroke-width:1.001;stroke-dasharray:none" />
    </g>
  </g>
  <g
     inkscape:groupmode="layer"
     id="layer16"
     inkscape:label="_wheels"
     style="display:inline">
    <g
       id="g13"
       transform="matrix(1.2578842,0,0,1.2578842,-118.51285,-63.198818)"
       style="stroke-width:1.001;stroke-dasharray:none">
      <path
         id="part_154"
         d="m 886.6107,244.73679 4.27967,1.94529 5.83579,8.17017 3.50153,9.33736 2.72333,13.22792 H 902.173 l -8.94836,-18.67472 -14.78411,16.34037 -4.27965,45.51958 7.39209,33.45884 0.77809,1.16717 16.34041,-1.16717 -7.39211,15.17319 -3.11243,3.11241 -3.11245,1.55624 h -3.11246 l -3.11246,-1.55624 -2.72335,-2.72335 -3.11245,-5.44679 -3.8906,-11.28263 -3.89054,-22.17621 -0.77815,-19.06375 0.77815,-16.34036 1.94527,-15.56225 2.33437,-10.50452 3.11239,-8.9483 4.66868,-9.33735 5.83587,-5.44678 z"
         fill="none"
         stroke="#000000"
         stroke-width="0.389056"
         style="stroke-width:1.001;stroke-dasharray:none" />
      <path
         id="part_129"
         d="m 892.83563,260.29904 10.11539,20.23093 0.77819,40.85091 -6.22494,31.12449 -14.39507,1.94528 -8.17017,-34.23694 3.89053,-42.40714 0.77815,-2.72339 z"
         fill="none"
         stroke="#000000"
         stroke-width="0.389056"
         style="stroke-width:1.001;stroke-dasharray:none" />
      <path
         id="part_160"
         d="m 867.93603,241.23529 7.39204,0.38906 8.55922,2.33433 -7.39204,6.61396 -5.44683,11.28263 -4.27958,15.1732 -2.7234,24.51054 -0.38905,19.84187 2.72342,23.73243 5.8358,19.4528 6.22492,8.94833 -29.56827,-1.55623 -8.94832,-2.33436 -6.61396,-5.83584 -2.33431,-4.27963 -4.66869,-12.44979 -1.55622,-8.55924 -0.38904,-9.72641 6.61395,-6.61395 5.05772,-8.55924 2.72342,-1.16717 14.00599,-31.12449 z"
         fill="none"
         stroke="#000000"
         stroke-width="0.389056"
         style="stroke-width:1.001;stroke-dasharray:none" />
      <path
         id="part_34"
         d="m 903.72921,325.66049 0.38901,2.33434 -4.66872,22.56526 -0.38901,-1.94528 z"
         fill="none"
         stroke="#000000"
         stroke-width="0.389056"
         style="stroke-width:1.001;stroke-dasharray:none" />
      <path
         id="part_130"
         d="m 891.27936,292.59071 -4.66866,0.38906 -2.72341,9.7264 v 17.89659 l 4.6687,5.83585 5.83585,-7.39207 v -15.95131 z"
         fill="none"
         stroke="#000000"
         stroke-width="0.389056"
         style="stroke-width:1.001;stroke-dasharray:none" />
      <path
         id="part_131"
         d="m 890.89037,300.37184 1.55624,0.38906 0.77803,1.94527 v 13.22792 l -2.72342,3.11245 -2.33429,-3.50151 v -9.7264 l 1.55621,-4.66867 z"
         fill="none"
         stroke="#000000"
         stroke-width="0.389056"
         style="stroke-width:1.001;stroke-dasharray:none" />
      <path
         id="part_132"
         d="m 890.11222,293.36883 1.94522,6.2249 -2.7233,0.38906 -1.94529,5.44678 v 10.89358 l 3.11237,3.89056 2.33441,-2.7234 0.38901,1.55623 -4.66865,6.2249 -3.89056,-5.44679 v -16.72942 l 2.33431,-8.94829 z"
         fill="none"
         stroke="#000000"
         stroke-width="0.389056"
         style="stroke-width:1.001;stroke-dasharray:none" />
    </g>
    <g
       id="g14"
       transform="matrix(1.2578842,0,0,1.2578842,-118.51285,-63.198818)"
       style="stroke-width:1.001;stroke-dasharray:none">
      <path
         id="part_63"
         d="m 573.03137,326.82766 -31.90261,52.91169 -2.7234,79.75649 31.51356,36.57132 39.68374,-31.51356 17.50752,-68.08489 -14.78413,-63.41615 z"
         fill="none"
         stroke="#000000"
         stroke-width="0.389056"
         style="stroke-width:1.001;stroke-dasharray:none" />
      <path
         id="part_64"
         d="m 577.24656,327.60577 36.18223,5.44679 1.55622,1.16717 14.39509,62.63805 -17.50754,67.30674 -38.51656,30.73542 -30.34639,-35.4041 -0.38905,-5.83584 2.7234,-73.14257 z"
         fill="none"
         stroke="#000000"
         stroke-width="0.389056"
         style="stroke-width:1.001;stroke-dasharray:none" />
      <path
         id="part_66"
         d="m 583.14683,380.12835 10.89358,10.8936 -0.38906,26.06672 -11.28263,17.5076 -1.55622,0.77815 -12.44981,-2.33439 -4.27961,-22.56526 5.44679,-22.56528 z"
         fill="none"
         stroke="#000000"
         stroke-width="0.389056"
         style="stroke-width:1.001;stroke-dasharray:none" />
      <path
         id="part_68"
         d="m 584.314,391.02195 6.61396,5.83583 v 16.34036 l -6.2249,11.67168 -5.83585,-0.389 -2.33433,-1.16723 -3.50151,-14.78413 3.89057,-13.2279 z"
         fill="none"
         stroke="#000000"
         stroke-width="0.389056"
         style="stroke-width:1.001;stroke-dasharray:none" />
      <path
         id="part_65"
         d="m 583.53589,378.9612 -12.83885,7.00299 -2.33435,2.33438 -5.05773,21.78712 4.66868,24.1215 14.39508,1.94531 12.4498,-19.06383 0.38905,-26.4558 z"
         fill="none"
         stroke="#000000"
         stroke-width="0.389056"
         style="stroke-width:1.001;stroke-dasharray:none" />
      <path
         id="part_67"
         d="m 585.48118,389.8548 -9.33736,5.05768 -3.89056,13.22798 4.27962,16.72936 8.9483,0.77815 6.61395,-12.44983 v -16.72943 z"
         fill="none"
         stroke="#000000"
         stroke-width="0.389056"
         style="stroke-width:1.001;stroke-dasharray:none" />
      <path
         id="part_62"
         d="m 589.82902,304.16696 5.35124,1.91114 6.88013,4.20454 7.26238,7.26238 7.26238,11.08468 4.96899,12.6136 4.20454,17.58259 1.91115,21.02269 -0.76446,23.31604 -2.29338,16.81809 -2.29339,11.4669 -7.26237,22.93387 -9.55576,20.64045 -7.6446,11.84914 -11.84915,12.99582 -10.70244,7.64463 -12.99583,3.82227 -7.26238,-0.38225 -11.84914,-4.96895 -9.93799,-9.93797 -5.73344,-9.55579 -5.73348,-14.90692 -4.58675,-20.64046 -1.1467,-18.72934 0.76446,-19.11152 3.05784,-21.78711 5.73346,-21.78714 4.969,-13.76028 5.35123,-11.84916 10.70244,-16.81813 12.23137,-12.99583 9.93799,-6.49791 9.55576,-3.44007 z"
         fill="none"
         stroke="#000000"
         stroke-width="0.38223"
         style="stroke-width:1.001;stroke-dasharray:none" />
      <path
         id="part_76"
         d="m 588.98267,296.48128 9.33736,5.83585 5.05773,5.05772 -0.77812,0.38905 -10.11546,-5.83583 -10.50451,-0.77811 -10.50452,2.33433 -13.22792,8.17018 -12.83885,13.61697 -10.89357,17.11847 -8.55924,20.23092 -7.78113,28.01204 -3.11245,22.17628 -0.77811,20.23088 1.16717,19.06374 4.66868,21.00905 7.00301,17.50759 4.66868,7.39198 10.50451,10.5046 12.06074,5.05769 h 11.28264 l -4.27963,2.72337 -8.17018,2.72339 -13.22791,-5.05769 -11.67169,-10.8936 -6.61395,-10.11544 -5.05773,-10.8936 -4.66868,-14.78413 -2.33434,-11.28267 -1.94528,-22.56528 0.38905,-17.11843 3.11246,-22.95435 5.83584,-24.51051 5.05774,-13.22792 9.33735,-19.4528 10.89357,-15.95131 10.11546,-10.50452 7.00302,-5.83585 4.27961,-2.33433 12.06075,-4.66868 5.05773,-0.7781 z"
         fill="none"
         stroke="#000000"
         stroke-width="0.389056"
         style="stroke-width:1.001;stroke-dasharray:none" />
      <path
         id="part_91"
         d="m 518.95255,290.25638 30.34639,-0.77811 14.39508,1.16716 21.00904,4.27962 -10.89358,1.55623 -14.78413,6.61395 -7.00301,5.83585 -13.61698,14.78413 -7.78111,12.06074 -9.33736,19.45282 -5.05773,13.22791 -5.83584,24.51057 -3.11246,22.95428 -0.38905,17.89666 1.94528,22.56527 4.27961,17.89659 4.27963,12.44974 10.11546,16.72936 12.06075,11.28268 10.11546,3.89061 -1.16717,1.16707 -23.73244,-3.11238 -15.17319,-4.66868 -13.61697,-5.83584 -19.84186,-12.8389 -6.61397,-8.55922 -6.61395,-11.2826 -7.39207,-19.45281 -1.94528,-10.50452 -0.7781,-11.2826 0.7781,-29.95742 1.16718,-0.77807 16.72941,-1.55623 5.83585,-19.06373 4.66867,-22.17624 -19.45281,-2.72339 -1.55623,-0.77811 v -1.16717 l 22.56526,-0.77812 31.90262,-61.85993 z"
         fill="none"
         stroke="#000000"
         stroke-width="0.389056"
         style="stroke-width:1.001;stroke-dasharray:none" />
    </g>
    <g
       id="g18"
       transform="matrix(1.2578842,0,0,1.2578842,-118.51285,-63.198818)"
       style="stroke-width:1.001;stroke-dasharray:none">
      <path
         id="part_3"
         d="m 197.20304,385.96419 1.55623,-0.389 3.11244,1.16716 1.94529,5.44675 3.11244,5.05776 7.39208,7.00299 7.39206,4.27961 8.94829,2.33438 8.55925,-0.38907 6.61394,-1.94531 10.50453,-6.61392 5.83584,-5.83583 4.27962,0.77807 -7.39207,8.55922 -8.17019,5.05777 -10.11546,3.50145 -10.89357,0.38916 -10.89357,-2.72346 -10.11546,-6.61391 -6.2249,-6.614 -3.89056,-7.00298 z"
         fill="none"
         stroke="#000000"
         stroke-width="0.389056"
         style="stroke-width:1.001;stroke-dasharray:none" />
      <path
         id="part_5"
         d="m 169.58005,380.51743 26.06676,4.66868 2.33434,6.61392 3.89056,7.00306 6.61396,7.00299 10.11547,6.61399 8.55923,2.3343 7.78112,0.77808 12.83886,-2.7233 11.67168,-6.61399 8.17019,-9.33738 20.23093,3.11246 0.38906,0.77808 -4.27962,8.17022 -5.4468,7.78113 -12.83886,14.00607 -6.61395,4.66868 -10.89357,4.66861 -7.39208,5.05776 -7.78112,3.11245 -7.00301,1.55615 -17.89659,-5.44676 -9.7264,-5.05768 -5.83584,-4.66868 -8.17018,-8.55922 -5.83584,-8.17022 -4.66868,-9.72637 -2.7234,-8.17022 -1.55622,-9.72644 z"
         fill="none"
         stroke="#000000"
         stroke-width="0.389056"
         style="stroke-width:1.001;stroke-dasharray:none" />
      <path
         id="part_6"
         d="m 131.45253,371.18006 36.57129,8.55929 0.77811,0.77808 v 10.11544 l 1.55623,9.72645 2.72339,8.17014 4.66868,9.72645 5.83585,8.17014 8.55923,8.94837 5.83584,4.66861 9.72641,5.05776 14.39507,4.6686 -5.05773,0.38916 -9.33734,-1.16723 -15.56225,-3.89053 -22.17621,-9.72637 -18.28564,-13.22799 -8.17018,-9.72636 -7.78113,-15.17321 -3.11245,-10.50451 z"
         fill="none"
         stroke="#000000"
         stroke-width="0.389056"
         style="stroke-width:1.001;stroke-dasharray:none" />
      <path
         id="part_2"
         d="m 202.64983,386.74235 58.35843,9.33736 -5.05774,5.05769 -10.50451,6.61398 -6.61395,1.94531 -7.78113,0.389 -11.67168,-3.50146 -6.22491,-4.27969 -5.44678,-5.44676 z"
         fill="none"
         stroke="#000000"
         stroke-width="0.389056"
         style="stroke-width:1.001;stroke-dasharray:none" />
    </g>
  </g>
  <path
     id="part_0"
     d="M 1035.8918,141.77943 1001.1453,122.20392 919.90694,83.05289 846.00932,53.689632 749.59999,21.390043 456.45674,35.582285 296.42694,92.840651 150.58942,151.07779 l -2.44695,1.95755 -6.85142,0.97878 -51.875095,21.53304 -29.852649,14.68165 -38.661638,15.17102 -3.425709,4.40448 -1.957557,7.34082 0.489392,21.53304 0.978772,3.42574 1.468165,0.97877 -6.362039,5.87266 5.383267,81.23835 1.468165,8.80897 -6.362039,6.36204 2.936317,29.85265 11.255925,23.49063 19.086116,5.87264 1.468165,20.55433 3.915102,13.21337 5.383266,11.74533 10.766533,15.66045 14.192243,12.23475 13.21347,8.80895 27.895088,12.23463 16.63918,4.40453 14.68164,1.95756 13.21347,-0.48942 17.61796,-5.87267 9.29836,-6.36197 13.70285,-5.87266 8.31959,-5.87267 16.63918,-18.10742 6.85143,-9.78768 5.87266,-11.25591 172.75387,27.89508 17.61795,-4.40452 -0.48939,-2.44697 1.95756,-0.48932 12.72408,3.91513 0.48939,24.46938 2.93633,19.08604 10.27713,26.42694 7.34082,12.23475 8.80898,11.25591 24.95877,16.14985 31.81019,12.23465 31.32083,4.89385 10.27714,-0.97884 9.78776,-3.4256 8.31957,-5.87267 9.29838,-2.93628 8.31959,-5.38334 16.14978,-15.17104 14.68165,-21.533 12.23469,-26.42694 9.29835,-29.36323 5.38328,-30.83147 0.97876,-20.06496 1.95757,-1.46815 20.55428,-8.80895 175.20077,-57.25837 45.02366,-11.25592 1.95757,0.4894 0.97881,14.68163 4.89384,18.10733 4.89393,10.27716 9.29833,8.31958 11.25595,2.9363 46.49179,2.44698 3.91512,-1.95756 6.85149,-8.31959 6.8513,-15.17103 6.8515,-32.78897 0.9787,-41.59795 -1.9575,-22.51183 -3.4257,-14.68165 1.4682,-4.40448 2.4469,-1.46816 0.9788,-5.87266 -3.4257,-0.48938 v -6.85143 l 2.4469,-2.44695 z"
     fill="none"
     stroke="#000000"
     stroke-width="0.389056"
     inkscape:label="_outer"
     style="stroke-width:0.489875;stroke-dasharray:none" />
  <g
     inkscape:groupmode="layer"
     id="layer15"
     inkscape:label="_doorpanels"
     style="display:inline">
    <g
       id="g9"
       transform="matrix(1.2578842,0,0,1.2578842,-118.51285,-63.198818)"
       style="stroke-width:1.001;stroke-dasharray:none">
      <path
         id="part_193"
         d="m 754.3316,186.37836 -14.3951,122.16366 -1.94526,1.16717 -99.20937,27.23394 -1.94528,-9.33736 9.72642,-124.10894 3.11245,-1.16716 z"
         fill="none"
         stroke="#000000"
         stroke-width="0.389056"
         style="stroke-width:1.001;stroke-dasharray:none" />
      <path
         id="part_195"
         d="m 747.71764,193.77042 -0.38911,5.4468 -1.16712,0.7781 -17.50754,2.7234 0.38906,-5.44678 1.16717,-0.77812 z"
         fill="none"
         stroke="#000000"
         stroke-width="0.389056"
         style="stroke-width:1.001;stroke-dasharray:none" />
      <path
         id="part_194"
         d="m 748.88476,192.99232 -1.94526,-0.38906 -18.28563,3.5015 -0.77812,7.39207 1.5562,0.38906 18.67473,-3.5015 z"
         fill="none"
         stroke="#000000"
         stroke-width="0.389056"
         style="stroke-width:1.001;stroke-dasharray:none" />
      <path
         id="part_43"
         d="m 738.76932,310.87636 -17.11847,26.06677 -1.55621,1.16716 -89.872,25.67772 8.55923,-22.56526 -0.38905,-2.7234 0.77811,-0.77812 96.48594,-26.84487 z"
         fill="none"
         stroke="#000000"
         stroke-width="0.389056"
         style="display:none;stroke-width:1.001;stroke-dasharray:none" />
    </g>
    <g
       id="g10"
       transform="matrix(1.2578842,0,0,1.2578842,-118.51285,-63.198818)"
       style="stroke-width:1.001;stroke-dasharray:none">
      <path
         id="part_92"
         d="m 814.24627,289.47827 -20.23096,26.84488 -70.03012,20.61998 -1.16717,-0.38906 17.89657,-26.84488 71.97545,-20.61998 z"
         fill="none"
         stroke="#000000"
         stroke-width="0.389056"
         style="stroke-width:1.001;stroke-dasharray:none" />
      <path
         id="part_196"
         d="M 830.19753,175.09573 815.4134,287.14394 741.10369,308.54202 755.49878,186.37836 Z"
         fill="none"
         stroke="#000000"
         stroke-width="0.389056"
         style="stroke-width:1.001;stroke-dasharray:none" />
    </g>
    <g
       id="g11"
       style="display:inline;stroke-width:1.001;stroke-dasharray:none"
       transform="matrix(1.2578842,0,0,1.2578842,-118.51285,-63.198818)">
      <path
         id="part_100"
         d="m 831.75375,285.19865 -21.39808,28.01204 -14.39509,2.33434 20.23096,-27.23393 z"
         fill="none"
         stroke="#000000"
         stroke-width="0.389056"
         style="stroke-width:1.001;stroke-dasharray:none" />
      <path
         id="part_106"
         d="m 849.2613,281.69714 v 1.55623 l -12.83886,28.4011 -13.61695,1.16716 -0.38904,-0.7781 7.39203,-19.06376 4.27965,-8.9483 v -1.94527 z"
         fill="none"
         stroke="#000000"
         stroke-width="0.389056"
         style="stroke-width:1.001;stroke-dasharray:none" />
      <path
         id="part_90"
         d="m 829.80848,289.47827 v 1.94528 l -8.17018,21.00903 -7.78113,-0.77811 -0.38905,-1.16717 z"
         fill="none"
         stroke="#000000"
         stroke-width="0.389056"
         style="display:none;stroke-width:1.001;stroke-dasharray:none" />
      <path
         id="part_199"
         d="m 916.17893,162.64593 0.38909,2.7234 -13.2279,82.86897 -1.55622,0.77811 v -35.79317 l -13.61697,-9.33735 -30.73545,4.27962 -24.51054,75.08786 -16.34036,3.89057 14.78413,-112.04821 z"
         fill="none"
         stroke="#000000"
         stroke-width="0.389056"
         style="stroke-width:1.001;stroke-dasharray:none" />
    </g>
    <g
       id="g12"
       transform="matrix(1.2578842,0,0,1.2578842,-118.51285,-63.198818)"
       style="stroke-width:1.001;stroke-dasharray:none">
      <path
         id="part_41"
         d="m 825.52891,313.98881 -21.39815,4.27962 -158.34587,48.63203 -16.72943,7.39205 -0.38905,-6.61395 0.38905,-1.55621 2.33435,-1.55624 162.6255,-47.46485 17.1185,-3.11245 1.55623,-1.94528 z"
         fill="none"
         stroke="#000000"
         stroke-width="0.389056"
         style="stroke-width:1.001;stroke-dasharray:none" />
      <path
         id="part_39"
         d="m 835.25525,313.59975 -4.66863,7.39208 -7.78113,7.39206 -36.96036,8.94829 -139.28212,45.51955 -15.56226,7.00307 h -1.94529 v -14.00606 l 12.44981,-6.61395 163.01459,-50.18825 29.17922,-5.83585 z"
         fill="none"
         stroke="#000000"
         stroke-width="0.389056"
         style="stroke-width:1.001;stroke-dasharray:none" />
    </g>
    <g
       id="g16"
       transform="matrix(1.2578842,0,0,1.2578842,-118.51285,-63.198818)"
       style="display:inline;stroke-width:1.001;stroke-dasharray:none">
      <path
         id="part_189"
         d="m 645.78489,203.49683 -8.9483,118.2731 -0.7781,2.33434 -15.1732,-80.14559 -11.67169,-14.39508 -1.94529,-0.38905 -101.93273,15.9513 -45.51957,95.31878 -1.55624,1.55623 6.61397,-108.93576 0.77811,-0.7781 151.34288,-24.8996 z"
         fill="none"
         stroke="#000000"
         stroke-width="0.389056"
         style="stroke-width:1.001;stroke-dasharray:none" />
    </g>
  </g>
  <g
     inkscape:groupmode="layer"
     id="layer17"
     inkscape:label="_wheelguards"
     style="display:inline">
    <g
       id="g15"
       transform="matrix(1.2578842,0,0,1.2578842,-118.51285,-63.198818)"
       style="stroke-width:1.001;stroke-dasharray:none">
      <path
         id="part_185"
         d="m 875.7171,221.00436 24.12149,-4.27961 -0.38909,42.40712 -4.66856,-9.33735 -5.0578,-5.05773 -8.17017,-2.72339 -13.2279,-1.94528 z"
         fill="none"
         stroke="#000000"
         stroke-width="0.389056"
         style="stroke-width:1.001;stroke-dasharray:none" />
      <path
         id="part_186"
         d="m 901.00571,214.39041 -0.38893,1.16717 -26.06679,4.66867 1.55622,-1.55623 z"
         fill="none"
         stroke="#000000"
         stroke-width="0.389056"
         style="stroke-width:1.001;stroke-dasharray:none" />
      <path
         id="part_187"
         d="m 858.20962,209.33268 14.39503,8.55924 1.16719,1.94527 -23.34335,60.69278 -15.17324,0.38906 -0.38904,-1.16717 22.56527,-70.03013 z"
         fill="none"
         stroke="#000000"
         stroke-width="0.389056"
         style="stroke-width:1.001;stroke-dasharray:none" />
      <path
         id="part_188"
         d="m 899.83859,213.22324 -25.2886,5.05773 -15.56229,-9.33735 28.79019,-4.27962 z"
         fill="none"
         stroke="#000000"
         stroke-width="0.389056"
         style="stroke-width:1.001;stroke-dasharray:none" />
    </g>
    <g
       id="g17"
       transform="matrix(1.2578842,0,0,1.2578842,-118.51285,-63.198818)"
       style="stroke-width:1.001;stroke-dasharray:none">
      <path
         id="part_149"
         d="m 531.40236,261.46621 85.59237,-14.00602 0.7781,0.77811 6.61397,28.40111 11.28263,60.30372 v 5.44678 l -7.39207,18.67471 -5.05774,-21.3981 -7.00301,-16.34036 -10.89357,-15.1732 -6.61396,-6.61395 -6.2249,-4.27961 -7.78112,-3.50152 -20.61998,-3.89056 -14.39508,-1.16717 -33.06978,0.77812 z"
         fill="none"
         stroke="#000000"
         stroke-width="0.389056"
         style="stroke-width:1.001;stroke-dasharray:none" />
      <path
         id="part_152"
         d="m 527.51179,258.35376 1.16717,1.16717 -48.24298,91.03916 -1.55622,0.77812 -19.45282,-7.00302 1.16717,-4.27961 44.35242,-92.98444 1.16716,-0.77812 z"
         fill="none"
         stroke="#000000"
         stroke-width="0.389056"
         style="stroke-width:1.001;stroke-dasharray:none" />
      <path
         id="part_174"
         d="m 618.94,243.18057 -0.38905,0.77811 -88.31576,14.78413 -23.34338,-12.83885 100.76556,-15.95131 z"
         fill="none"
         stroke="#000000"
         stroke-width="0.389056"
         style="stroke-width:1.001;stroke-dasharray:none" />
      <path
         id="part_156"
         d="m 619.71812,244.73679 7.00301,35.01507 -0.38905,2.33434 -8.17019,-35.40412 -87.14859,14.00602 -48.24297,91.81727 h -2.33435 l 49.41015,-92.98444 z"
         fill="none"
         stroke="#000000"
         stroke-width="0.389056"
         style="stroke-width:1.001;stroke-dasharray:none" />
    </g>
  </g>
  <g
     inkscape:groupmode="layer"
     id="layer18"
     inkscape:label="_lights"
     style="display:inline">
    <g
       id="g19"
       transform="matrix(1.2578842,0,0,1.2578842,-118.51285,-63.198818)"
       style="display:inline;stroke-width:1.001;stroke-dasharray:none">
      <path
         id="part_28"
         d="m 479.65787,352.50537 -19.06376,0.38906 -0.7781,2.72339 -100.76558,-0.38905 -17.89658,-2.33434 78.58937,1.16717 1.16716,-1.94528 35.40412,0.38905 2.33434,-7.39206 z"
         fill="none"
         stroke="#000000"
         stroke-width="0.389056"
         style="display:inline;stroke-width:1.001;stroke-dasharray:none" />
      <path
         id="part_38"
         d="m 112.38878,319.82465 6.61395,-3.11245 45.13053,9.33736 44.74147,7.003 50.18825,6.61396 47.46487,4.27962 47.0758,3.11245 102.71085,-1.55623 0.38906,0.77812 -2.33435,5.44678 -33.84789,-0.38905 -1.55622,1.94527 -61.85994,-0.38905 -43.18525,-3.11245 -98.04218,-10.50452 -49.02108,-7.00301 -47.85392,-8.94829 -1.16716,-0.77812 v -1.55621 z"
         fill="none"
         stroke="#000000"
         stroke-width="0.389056"
         style="stroke-width:1.001;stroke-dasharray:none" />
      <path
         id="part_37"
         d="m 105.77482,323.32616 3.89057,-3.89057 0.77811,1.16717 6.2249,1.16717 0.38905,1.55623 1.55623,0.77811 47.85392,8.94829 90.6501,12.06075 31.12451,2.72339 70.41916,8.17018 103.09992,0.38906 8.94829,1.55622 -117.49498,-0.77811 -45.90864,-3.89057 -106.60142,-13.2279 -47.0758,-7.39208 z"
         fill="none"
         stroke="#000000"
         stroke-width="0.389056"
         style="stroke-width:1.001;stroke-dasharray:none" />
    </g>
    <g
       id="g20"
       transform="matrix(1.2578842,0,0,1.2578842,-118.51285,-63.198818)"
       style="stroke-width:1.001;stroke-dasharray:none">
      <path
         id="part_168"
         d="m 461.37223,245.12585 -114.77159,10.50452 h -32.29167 l -0.77811,-1.55623 -85.20332,-4.27962 -71.19729,-5.05773 -47.07581,-5.05773 -0.38905,-1.55622 89.48293,7.78112 112.0482,5.83585 1.16717,1.16716 36.96034,0.77811 111.65914,-19.06375 z"
         fill="none"
         stroke="#000000"
         stroke-width="0.389056"
         style="stroke-width:1.001;stroke-dasharray:none" />
      <path
         id="part_158"
         d="m 105.77482,246.29302 3.50151,-3.11245 92.20633,8.9483 138.89308,6.61394 120.99649,-8.94829 1.55622,0.77812 -117.49498,13.61697 -95.31878,-3.11245 -55.63504,-3.89056 -57.58033,-5.83585 -30.73544,-4.27961 z"
         fill="none"
         stroke="#000000"
         stroke-width="0.389056"
         style="stroke-width:1.001;stroke-dasharray:none" />
    </g>
  </g>
  <g
     inkscape:groupmode="layer"
     id="layer19"
     inkscape:label="_frontpanel"
     style="display:inline">
    <g
       id="g21"
       transform="matrix(1.2578842,0,0,1.2578842,-118.51285,-63.198818)"
       style="stroke-width:1.001;stroke-dasharray:none">
      <path
         id="part_135"
         d="m 196.81398,258.35376 93.76256,5.44678 52.5226,1.16718 13.2279,80.9237 -43.96335,-2.33434 -49.02109,-4.27962 -54.07881,-7.00301 -1.16718,-1.16716 -5.05773,-24.8996 z"
         fill="none"
         stroke="#000000"
         stroke-width="0.389056"
         style="stroke-width:1.001;stroke-dasharray:none" />
      <path
         id="part_143"
         d="m 462.92845,252.12887 -6.22489,92.59538 -99.5984,1.16717 -12.44981,-80.9237 z"
         fill="none"
         stroke="#000000"
         stroke-width="0.389056"
         style="stroke-width:1.001;stroke-dasharray:none" />
      <path
         id="part_150"
         d="m 104.60765,247.84924 45.51958,5.83584 45.51958,4.27962 6.61396,48.63204 5.05774,24.8996 -42.79619,-6.2249 -46.68675,-9.33735 -7.00302,3.5015 -1.94528,-8.17017 -2.33434,-45.51959 z"
         fill="none"
         stroke="#000000"
         stroke-width="0.389056"
         style="stroke-width:1.001;stroke-dasharray:none" />
    </g>
    <g
       id="g22"
       style="display:inline;stroke-width:1.001;stroke-dasharray:none"
       transform="matrix(1.2578842,0,0,1.2578842,-118.51285,-63.198818)">
      <path
         id="part_4"
         d="m 475.76731,381.68458 -5.83584,17.89659 -95.31879,8.17021 -1.94528,-0.38908 -12.4498,-21.00903 4.66868,-0.77808 z"
         fill="none"
         stroke="#000000"
         stroke-width="0.389056"
         style="stroke-width:1.001;stroke-dasharray:none" />
      <path
         id="part_7"
         d="m 115.89028,364.95518 1.55623,-0.38907 45.90864,10.89356 52.91165,10.50452 98.04217,15.56228 56.80221,7.00299 81.31276,-6.61392 -0.38906,15.95129 -1.55623,0.38908 -10.50451,-2.72346 v 2.33438 l -1.94528,1.16715 -9.72641,2.72338 -238.10243,-38.12748 -50.18825,-11.28268 z"
         fill="none"
         stroke="#000000"
         stroke-width="0.389056"
         style="stroke-width:1.001;stroke-dasharray:none" />
      <path
         id="part_11"
         d="m 355.54893,358.34122 124.498,0.77811 0.38905,1.94529 -4.66867,19.45281 -115.54971,4.66868 z"
         fill="none"
         stroke="#000000"
         stroke-width="0.389056"
         style="stroke-width:1.001;stroke-dasharray:none" />
      <path
         id="part_35"
         d="m 104.99671,324.49332 48.24297,8.9483 55.24599,8.55924 94.54068,11.67168 51.35541,4.27962 4.66867,26.84488 -51.74447,-5.05769 -61.08183,-8.17021 -89.872,-14.00604 -47.46486,-8.94829 -1.55622,-1.55622 z"
         fill="none"
         stroke="#000000"
         stroke-width="0.389056"
         style="stroke-width:1.001;stroke-dasharray:none" />
      <path
         id="part_23"
         d="m 108.49822,349.78198 1.55622,-0.38906 52.91165,10.11546 82.86897,12.83882 61.08184,8.17023 52.13353,5.44676 12.4498,21.00904 -3.11244,0.38907 -45.51958,-5.44676 -52.13355,-7.78113 -54.07881,-8.9483 -52.91165,-10.50452 -47.46486,-10.89358 -1.16717,-0.77812 z"
         fill="none"
         stroke="#000000"
         stroke-width="0.389056"
         style="stroke-width:1.001;stroke-dasharray:none" />
    </g>
  </g>
  <g
     inkscape:groupmode="layer"
     id="layer20"
     inkscape:label="_thumbs"
     style="display:inline">
    <g
       id="t1"
       style="display:inline;stroke-width:1.003;stroke-dasharray:none"
       transform="translate(93.47826,450)"
       inkscape:label="t1">
      <path
         id="path22"
         d="m 632.94603,127.63087 3.89056,48.63203 -85.59237,15.17319 78.97842,-62.63806 z"
         fill="none"
         stroke="#000000"
         stroke-width="0.389056"
         style="stroke-width:1.003;stroke-dasharray:none" />
      <path
         id="path23"
         d="m 641.11622,122.57314 7.00301,51.74448 -0.77812,0.77811 -8.94829,1.16717 -4.27962,-47.46487 z"
         fill="none"
         stroke="#000000"
         stroke-width="0.389056"
         style="display:inline;stroke-width:1.003;stroke-dasharray:none" />
    </g>
    <g
       id="t2"
       style="display:inline;stroke-width:1.003;stroke-dasharray:none"
       transform="matrix(0.91400973,0,0,0.91400973,-176.22682,495.74424)"
       inkscape:label="t2">
      <path
         id="path24"
         d="m 716.59312,88.72524 5.44679,17.50753 4.66867,20.23093 4.2796,35.01507 -82.09084,11.28263 -6.61396,-50.96638 -1.16716,-1.16717 50.96636,-40.46185 z"
         fill="none"
         stroke="#000000"
         stroke-width="0.389056"
         style="stroke-width:1.003;stroke-dasharray:none" />
    </g>
    <g
       id="t3"
       style="display:inline;stroke-width:1.003;stroke-dasharray:none"
       transform="matrix(0.88219661,0,0,0.88219661,-88.676815,569.90068)"
       inkscape:label="t3">
      <path
         id="path25"
         d="m 718.53841,89.50335 7.78112,3.11246 10.50451,34.23694 3.89055,17.89659 1.94533,15.56225 -10.8936,0.77811 -4.27962,-35.01506 z"
         fill="none"
         stroke="#000000"
         stroke-width="0.389056"
         style="stroke-width:1.003;stroke-dasharray:none" />
      <path
         id="path26"
         d="m 727.09764,93.00485 0.77811,-0.38904 34.23699,13.61696 31.90257,13.61697 4.27964,14.39507 1.94527,17.8966 -1.16719,0.77812 -54.85689,7.003 -0.77814,-0.77811 -1.94527,-14.78414 -4.27964,-19.45281 -4.27958,-15.56226 z"
         fill="none"
         stroke="#000000"
         stroke-width="0.389056"
         style="stroke-width:1.003;stroke-dasharray:none" />
      <path
         id="path27"
         d="m 692.86069,79.38789 1.16717,-0.77811 70.03014,24.8996 35.01503,14.00603 13.61701,35.01506 -4.66869,-1.16717 -7.00305,0.77811 -1.94527,-18.28565 -3.89053,-14.39508 -68.86297,-28.4011 z"
         fill="none"
         stroke="#000000"
         stroke-width="0.389056"
         style="stroke-width:1.003;stroke-dasharray:none" />
      <path
         id="path28"
         d="m 714.64784,84.83468 1.16717,-0.38906 51.35545,17.89659 33.06976,12.4498 1.16718,1.16717 -1.55622,1.16716 -35.40413,-14.39507 z"
         fill="none"
         stroke="#000000"
         stroke-width="0.389056"
         style="stroke-width:1.003;stroke-dasharray:none" />
    </g>
    <g
       id="t4"
       style="display:inline;stroke-width:1.003;stroke-dasharray:none"
       transform="matrix(0.83937353,0,0,0.83937353,289.58527,459.57987)"
       inkscape:label="t4">
      <path
         id="path29"
         d="m 816.96962,155.64291 -236.54618,33.06978 -8.55923,0.38906 78.58936,-14.00602 162.23647,-20.23093 z"
         fill="none"
         stroke="#000000"
         stroke-width="0.389056"
         style="stroke-width:1.003;stroke-dasharray:none" />
      <path
         id="path30"
         d="m 812.30094,154.08669 -163.4036,20.23093 1.16717,-1.16717 156.78966,-21.00904 z"
         fill="none"
         stroke="#000000"
         stroke-width="0.389056"
         style="stroke-width:1.003;stroke-dasharray:none" />
    </g>
    <g
       id="t5"
       style="display:inline;stroke-width:1.77334;stroke-dasharray:none"
       transform="matrix(0.40995555,0,0,0.40995555,670.93306,509.11424)"
       inkscape:label="t5">
      <path
         id="path31"
         d="m 688.58108,67.32714 -149.3976,107.76859 -312.80122,-3.89057 -12.4498,-0.7781 121.38555,-48.63204 122.16366,-43.5743 z"
         fill="none"
         stroke="#000000"
         stroke-width="0.389056"
         style="stroke-width:1.77334;stroke-dasharray:none" />
      <path
         id="path32"
         d="m 538.40536,86.3909 -1.55621,-1.55622 -21.00905,1.16716 -35.40412,15.95131 -1.55622,1.55623 1.16717,1.16717 28.4011,-0.38907 26.45583,-16.7294 z"
         fill="none"
         stroke="#000000"
         stroke-width="0.389056"
         style="stroke-width:1.77334;stroke-dasharray:none" />
      <path
         id="path33"
         d="m 510.78237,101.5641 -1.55623,1.16717 -0.77811,-0.38906 1.55623,-1.16717 z"
         fill="none"
         stroke="#000000"
         stroke-width="0.389056"
         style="stroke-width:1.77334;stroke-dasharray:none" />
      <path
         id="path34"
         d="m 511.56049,96.89542 -5.4468,5.83585 -21.39809,0.38904 19.06376,-7.003 z"
         fill="none"
         stroke="#000000"
         stroke-width="0.389056"
         style="stroke-width:1.77334;stroke-dasharray:none" />
      <path
         id="path35"
         d="m 532.56952,86.3909 -21.39809,13.22791 -0.77811,-0.38906 4.27961,-4.66867 -11.28264,-0.38906 -7.78111,3.11246 -1.16718,-0.38906 21.78716,-10.11546 z"
         fill="none"
         stroke="#000000"
         stroke-width="0.389056"
         style="stroke-width:1.77334;stroke-dasharray:none" />
    </g>
    <g
       id="t7"
       style="display:inline;stroke-width:1.003;stroke-dasharray:none"
       transform="translate(67.34783,560.52174)"
       inkscape:label="t7">
      <path
         id="path36"
         d="m 799.85118,106.23277 h 1.94527 l 23.34336,9.72641 30.3464,14.00602 34.23693,17.11848 25.67776,14.39509 -84.03619,12.44979 z"
         fill="none"
         stroke="#000000"
         stroke-width="0.389056"
         style="stroke-width:1.003;stroke-dasharray:none" />
    </g>
    <g
       id="t6"
       style="display:inline;stroke-width:1.84869;stroke-dasharray:none"
       transform="matrix(0.47330838,0,0,0.47330838,11.53811,467.65751)"
       inkscape:label="t6">
      <path
         id="path37"
         d="m 802.57453,114.40295 -0.77808,0.38906 -34.23695,-13.22791 -72.75352,-24.8996 -147.06326,116.71687 1.94528,0.38905 89.87199,-12.44979 5.83584,19.45281 -0.38905,1.55623 -169.62853,27.62298 -8.94829,0.77812 74.30975,-56.0241 147.06325,-105.43424 1.94529,-2.33434 76.64406,25.67772 30.73545,11.67167 1.55623,1.16718 z"
         fill="none"
         stroke="#000000"
         stroke-width="0.389056"
         style="stroke-width:1.84869;stroke-dasharray:none" />
      <path
         id="path38"
         d="m 754.3316,185.21119 -107.76859,16.72942 -5.83585,-20.61998 106.99048,-15.1732 z"
         fill="none"
         stroke="#000000"
         stroke-width="0.389056"
         style="stroke-width:1.84869;stroke-dasharray:none" />
      <path
         id="path39"
         d="m 830.19753,173.92856 -74.69875,11.28263 -6.61402,-18.67469 72.75354,-10.50453 z"
         fill="none"
         stroke="#000000"
         stroke-width="0.389056"
         style="stroke-width:1.84869;stroke-dasharray:none" />
      <path
         id="path40"
         d="m 801.0183,117.12634 2.33438,-0.7781 17.89658,38.90562 -7.39209,-1.55623 -12.83887,-33.84789 z"
         fill="none"
         stroke="#000000"
         stroke-width="0.389056"
         style="stroke-width:1.84869;stroke-dasharray:none" />
    </g>
    <g
       id="t8"
       style="display:inline;stroke-width:0.998998;stroke-dasharray:none"
       transform="matrix(0.53834716,0,0,0.53834716,-39.017269,643.6532)"
       inkscape:label="t8">
      <path
         id="path41"
         d="m 107.33105,233.45416 0.38905,-13.61697 1.16717,-3.5015 2.33434,-3.11245 30.73544,-12.06074 23.73243,-11.67169 19.06376,-8.17018 25.28865,-9.7264 313.9684,3.89056 13.22791,0.77811 -71.58635,54.07882 -120.60744,18.67469 -51.35542,-0.77811 -44.74147,-1.94528 -45.51958,-3.50151 z"
         fill="none"
         stroke="#000000"
         stroke-width="0.389056"
         style="stroke-width:0.998998;stroke-dasharray:none" />
    </g>
    <g
       id="t13"
       style="display:inline;stroke-width:1.003;stroke-dasharray:none"
       transform="matrix(0.71501186,0,0,0.71501186,-455.91924,425.2613)"
       inkscape:label="t13">
      <path
         id="path42"
         d="m 886.6107,244.73679 4.27967,1.94529 5.83579,8.17017 3.50153,9.33736 2.72333,13.22792 H 902.173 l -8.94836,-18.67472 -14.78411,16.34037 -4.27965,45.51958 7.39209,33.45884 0.77809,1.16717 16.34041,-1.16717 -7.39211,15.17319 -3.11243,3.11241 -3.11245,1.55624 h -3.11246 l -3.11246,-1.55624 -2.72335,-2.72335 -3.11245,-5.44679 -3.8906,-11.28263 -3.89054,-22.17621 -0.77815,-19.06375 0.77815,-16.34036 1.94527,-15.56225 2.33437,-10.50452 3.11239,-8.9483 4.66868,-9.33735 5.83587,-5.44678 z"
         fill="none"
         stroke="#000000"
         stroke-width="0.389056"
         style="stroke-width:1.003;stroke-dasharray:none" />
      <path
         id="path43"
         d="m 892.83563,260.29904 10.11539,20.23093 0.77819,40.85091 -6.22494,31.12449 -14.39507,1.94528 -8.17017,-34.23694 3.89053,-42.40714 0.77815,-2.72339 z"
         fill="none"
         stroke="#000000"
         stroke-width="0.389056"
         style="stroke-width:1.003;stroke-dasharray:none" />
      <path
         id="path44"
         d="m 867.93603,241.23529 7.39204,0.38906 8.55922,2.33433 -7.39204,6.61396 -5.44683,11.28263 -4.27958,15.1732 -2.7234,24.51054 -0.38905,19.84187 2.72342,23.73243 5.8358,19.4528 6.22492,8.94833 -29.56827,-1.55623 -8.94832,-2.33436 -6.61396,-5.83584 -2.33431,-4.27963 -4.66869,-12.44979 -1.55622,-8.55924 -0.38904,-9.72641 6.61395,-6.61395 5.05772,-8.55924 2.72342,-1.16717 14.00599,-31.12449 z"
         fill="none"
         stroke="#000000"
         stroke-width="0.389056"
         style="stroke-width:1.003;stroke-dasharray:none" />
      <path
         id="path45"
         d="m 903.72921,325.66049 0.38901,2.33434 -4.66872,22.56526 -0.38901,-1.94528 z"
         fill="none"
         stroke="#000000"
         stroke-width="0.389056"
         style="stroke-width:1.003;stroke-dasharray:none" />
      <path
         id="path46"
         d="m 891.27936,292.59071 -4.66866,0.38906 -2.72341,9.7264 v 17.89659 l 4.6687,5.83585 5.83585,-7.39207 v -15.95131 z"
         fill="none"
         stroke="#000000"
         stroke-width="0.389056"
         style="stroke-width:1.003;stroke-dasharray:none" />
      <path
         id="path47"
         d="m 890.89037,300.37184 1.55624,0.38906 0.77803,1.94527 v 13.22792 l -2.72342,3.11245 -2.33429,-3.50151 v -9.7264 l 1.55621,-4.66867 z"
         fill="none"
         stroke="#000000"
         stroke-width="0.389056"
         style="stroke-width:1.003;stroke-dasharray:none" />
      <path
         id="path48"
         d="m 890.11222,293.36883 1.94522,6.2249 -2.7233,0.38906 -1.94529,5.44678 v 10.89358 l 3.11237,3.89056 2.33441,-2.7234 0.38901,1.55623 -4.66865,6.2249 -3.89056,-5.44679 v -16.72942 l 2.33431,-8.94829 z"
         fill="none"
         stroke="#000000"
         stroke-width="0.389056"
         style="stroke-width:1.003;stroke-dasharray:none" />
    </g>
    <g
       id="t14"
       style="display:inline;stroke-width:1.51444;stroke-dasharray:none"
       transform="matrix(0.39156479,0,0,0.39156479,30.876058,487.24325)"
       inkscape:label="t14">
      <path
         id="path49"
         d="m 573.03137,326.82766 -31.90261,52.91169 -2.7234,79.75649 31.51356,36.57132 39.68374,-31.51356 17.50752,-68.08489 -14.78413,-63.41615 z"
         fill="none"
         stroke="#000000"
         stroke-width="0.389056"
         style="stroke-width:1.51444;stroke-dasharray:none" />
      <path
         id="path50"
         d="m 577.24656,327.60577 36.18223,5.44679 1.55622,1.16717 14.39509,62.63805 -17.50754,67.30674 -38.51656,30.73542 -30.34639,-35.4041 -0.38905,-5.83584 2.7234,-73.14257 z"
         fill="none"
         stroke="#000000"
         stroke-width="0.389056"
         style="stroke-width:1.51444;stroke-dasharray:none" />
      <path
         id="path51"
         d="m 583.14683,380.12835 10.89358,10.8936 -0.38906,26.06672 -11.28263,17.5076 -1.55622,0.77815 -12.44981,-2.33439 -4.27961,-22.56526 5.44679,-22.56528 z"
         fill="none"
         stroke="#000000"
         stroke-width="0.389056"
         style="stroke-width:1.51444;stroke-dasharray:none" />
      <path
         id="path52"
         d="m 584.314,391.02195 6.61396,5.83583 v 16.34036 l -6.2249,11.67168 -5.83585,-0.389 -2.33433,-1.16723 -3.50151,-14.78413 3.89057,-13.2279 z"
         fill="none"
         stroke="#000000"
         stroke-width="0.389056"
         style="stroke-width:1.51444;stroke-dasharray:none" />
      <path
         id="path53"
         d="m 583.53589,378.9612 -12.83885,7.00299 -2.33435,2.33438 -5.05773,21.78712 4.66868,24.1215 14.39508,1.94531 12.4498,-19.06383 0.38905,-26.4558 z"
         fill="none"
         stroke="#000000"
         stroke-width="0.389056"
         style="stroke-width:1.51444;stroke-dasharray:none" />
      <path
         id="path54"
         d="m 585.48118,389.8548 -9.33736,5.05768 -3.89056,13.22798 4.27962,16.72936 8.9483,0.77815 6.61395,-12.44983 v -16.72943 z"
         fill="none"
         stroke="#000000"
         stroke-width="0.389056"
         style="stroke-width:1.51444;stroke-dasharray:none" />
      <path
         id="path55"
         d="m 589.82902,304.16696 5.35124,1.91114 6.88013,4.20454 7.26238,7.26238 7.26238,11.08468 4.96899,12.6136 4.20454,17.58259 1.91115,21.02269 -0.76446,23.31604 -2.29338,16.81809 -2.29339,11.4669 -7.26237,22.93387 -9.55576,20.64045 -7.6446,11.84914 -11.84915,12.99582 -10.70244,7.64463 -12.99583,3.82227 -7.26238,-0.38225 -11.84914,-4.96895 -9.93799,-9.93797 -5.73344,-9.55579 -5.73348,-14.90692 -4.58675,-20.64046 -1.1467,-18.72934 0.76446,-19.11152 3.05784,-21.78711 5.73346,-21.78714 4.969,-13.76028 5.35123,-11.84916 10.70244,-16.81813 12.23137,-12.99583 9.93799,-6.49791 9.55576,-3.44007 z"
         fill="none"
         stroke="#000000"
         stroke-width="0.38223"
         style="stroke-width:1.51444;stroke-dasharray:none" />
      <path
         id="path56"
         d="m 588.98267,296.48128 9.33736,5.83585 5.05773,5.05772 -0.77812,0.38905 -10.11546,-5.83583 -10.50451,-0.77811 -10.50452,2.33433 -13.22792,8.17018 -12.83885,13.61697 -10.89357,17.11847 -8.55924,20.23092 -7.78113,28.01204 -3.11245,22.17628 -0.77811,20.23088 1.16717,19.06374 4.66868,21.00905 7.00301,17.50759 4.66868,7.39198 10.50451,10.5046 12.06074,5.05769 h 11.28264 l -4.27963,2.72337 -8.17018,2.72339 -13.22791,-5.05769 -11.67169,-10.8936 -6.61395,-10.11544 -5.05773,-10.8936 -4.66868,-14.78413 -2.33434,-11.28267 -1.94528,-22.56528 0.38905,-17.11843 3.11246,-22.95435 5.83584,-24.51051 5.05774,-13.22792 9.33735,-19.4528 10.89357,-15.95131 10.11546,-10.50452 7.00302,-5.83585 4.27961,-2.33433 12.06075,-4.66868 5.05773,-0.7781 z"
         fill="none"
         stroke="#000000"
         stroke-width="0.389056"
         style="stroke-width:1.51444;stroke-dasharray:none" />
      <path
         id="path57"
         d="m 518.95255,290.25638 30.34639,-0.77811 14.39508,1.16716 21.00904,4.27962 -10.89358,1.55623 -14.78413,6.61395 -7.00301,5.83585 -13.61698,14.78413 -7.78111,12.06074 -9.33736,19.45282 -5.05773,13.22791 -5.83584,24.51057 -3.11246,22.95428 -0.38905,17.89666 1.94528,22.56527 4.27961,17.89659 4.27963,12.44974 10.11546,16.72936 12.06075,11.28268 10.11546,3.89061 -1.16717,1.16707 -23.73244,-3.11238 -15.17319,-4.66868 -13.61697,-5.83584 -19.84186,-12.8389 -6.61397,-8.55922 -6.61395,-11.2826 -7.39207,-19.45281 -1.94528,-10.50452 -0.7781,-11.2826 0.7781,-29.95742 1.16718,-0.77807 16.72941,-1.55623 5.83585,-19.06373 4.66867,-22.17624 -19.45281,-2.72339 -1.55623,-0.77811 v -1.16717 l 22.56526,-0.77812 31.90262,-61.85993 z"
         fill="none"
         stroke="#000000"
         stroke-width="0.389056"
         style="stroke-width:1.51444;stroke-dasharray:none" />
    </g>
    <g
       id="t18"
       style="display:inline;stroke-width:1.003;stroke-dasharray:none"
       transform="matrix(0.69521995,0,0,0.69521995,-72.476769,338.11205)"
       inkscape:label="t18">
      <path
         id="path58"
         d="m 197.20304,385.96419 1.55623,-0.389 3.11244,1.16716 1.94529,5.44675 3.11244,5.05776 7.39208,7.00299 7.39206,4.27961 8.94829,2.33438 8.55925,-0.38907 6.61394,-1.94531 10.50453,-6.61392 5.83584,-5.83583 4.27962,0.77807 -7.39207,8.55922 -8.17019,5.05777 -10.11546,3.50145 -10.89357,0.38916 -10.89357,-2.72346 -10.11546,-6.61391 -6.2249,-6.614 -3.89056,-7.00298 z"
         fill="none"
         stroke="#000000"
         stroke-width="0.389056"
         style="stroke-width:1.003;stroke-dasharray:none" />
      <path
         id="path59"
         d="m 169.58005,380.51743 26.06676,4.66868 2.33434,6.61392 3.89056,7.00306 6.61396,7.00299 10.11547,6.61399 8.55923,2.3343 7.78112,0.77808 12.83886,-2.7233 11.67168,-6.61399 8.17019,-9.33738 20.23093,3.11246 0.38906,0.77808 -4.27962,8.17022 -5.4468,7.78113 -12.83886,14.00607 -6.61395,4.66868 -10.89357,4.66861 -7.39208,5.05776 -7.78112,3.11245 -7.00301,1.55615 -17.89659,-5.44676 -9.7264,-5.05768 -5.83584,-4.66868 -8.17018,-8.55922 -5.83584,-8.17022 -4.66868,-9.72637 -2.7234,-8.17022 -1.55622,-9.72644 z"
         fill="none"
         stroke="#000000"
         stroke-width="0.389056"
         style="stroke-width:1.003;stroke-dasharray:none" />
      <path
         id="path60"
         d="m 131.45253,371.18006 36.57129,8.55929 0.77811,0.77808 v 10.11544 l 1.55623,9.72645 2.72339,8.17014 4.66868,9.72645 5.83585,8.17014 8.55923,8.94837 5.83584,4.66861 9.72641,5.05776 14.39507,4.6686 -5.05773,0.38916 -9.33734,-1.16723 -15.56225,-3.89053 -22.17621,-9.72637 -18.28564,-13.22799 -8.17018,-9.72636 -7.78113,-15.17321 -3.11245,-10.50451 z"
         fill="none"
         stroke="#000000"
         stroke-width="0.389056"
         style="stroke-width:1.003;stroke-dasharray:none" />
      <path
         id="path61"
         d="m 202.64983,386.74235 58.35843,9.33736 -5.05774,5.05769 -10.50451,6.61398 -6.61395,1.94531 -7.78113,0.389 -11.67168,-3.50146 -6.22491,-4.27969 -5.44678,-5.44676 z"
         fill="none"
         stroke="#000000"
         stroke-width="0.389056"
         style="stroke-width:1.003;stroke-dasharray:none" />
    </g>
    <g
       id="t9"
       style="display:inline;stroke-width:1.003;stroke-dasharray:none"
       transform="matrix(0.65571567,0,0,0.65571567,-117.77752,461.17466)"
       inkscape:label="t9">
      <path
         id="path62"
         d="m 754.3316,186.37836 -14.3951,122.16366 -1.94526,1.16717 -99.20937,27.23394 -1.94528,-9.33736 9.72642,-124.10894 3.11245,-1.16716 z"
         fill="none"
         stroke="#000000"
         stroke-width="0.389056"
         style="stroke-width:1.003;stroke-dasharray:none" />
      <path
         id="path63"
         d="m 747.71764,193.77042 -0.38911,5.4468 -1.16712,0.7781 -17.50754,2.7234 0.38906,-5.44678 1.16717,-0.77812 z"
         fill="none"
         stroke="#000000"
         stroke-width="0.389056"
         style="stroke-width:1.003;stroke-dasharray:none" />
      <path
         id="path64"
         d="m 748.88476,192.99232 -1.94526,-0.38906 -18.28563,3.5015 -0.77812,7.39207 1.5562,0.38906 18.67473,-3.5015 z"
         fill="none"
         stroke="#000000"
         stroke-width="0.389056"
         style="stroke-width:1.003;stroke-dasharray:none" />
      <path
         id="path65"
         d="m 738.76932,310.87636 -17.11847,26.06677 -1.55621,1.16716 -89.872,25.67772 8.55923,-22.56526 -0.38905,-2.7234 0.77811,-0.77812 96.48594,-26.84487 z"
         fill="none"
         stroke="#000000"
         stroke-width="0.389056"
         style="display:none;stroke-width:1.003;stroke-dasharray:none" />
    </g>
    <g
       id="t10"
       style="display:inline;stroke-width:1.003;stroke-dasharray:none"
       transform="matrix(0.70345474,0,0,0.70345474,264.12793,512.56949)"
       inkscape:label="t10">
      <path
         id="path66"
         d="m 814.24627,289.47827 -20.23096,26.84488 -70.03012,20.61998 -1.16717,-0.38906 17.89657,-26.84488 71.97545,-20.61998 z"
         fill="none"
         stroke="#000000"
         stroke-width="0.389056"
         style="stroke-width:1.003;stroke-dasharray:none" />
      <path
         id="path67"
         d="M 830.19753,175.09573 815.4134,287.14394 741.10369,308.54202 755.49878,186.37836 Z"
         fill="none"
         stroke="#000000"
         stroke-width="0.389056"
         style="stroke-width:1.003;stroke-dasharray:none" />
    </g>
    <g
       id="t11"
       style="display:inline;stroke-width:1.003;stroke-dasharray:none"
       transform="matrix(0.63710184,0,0,0.63710184,454.30094,497.99339)"
       inkscape:label="t11">
      <path
         id="path68"
         d="m 831.75375,285.19865 -21.39808,28.01204 -14.39509,2.33434 20.23096,-27.23393 z"
         fill="none"
         stroke="#000000"
         stroke-width="0.389056"
         style="stroke-width:1.003;stroke-dasharray:none" />
      <path
         id="path69"
         d="m 849.2613,281.69714 v 1.55623 l -12.83886,28.4011 -13.61695,1.16716 -0.38904,-0.7781 7.39203,-19.06376 4.27965,-8.9483 v -1.94527 z"
         fill="none"
         stroke="#000000"
         stroke-width="0.389056"
         style="stroke-width:1.003;stroke-dasharray:none" />
      <path
         id="path70"
         d="m 829.80848,289.47827 v 1.94528 l -8.17018,21.00903 -7.78113,-0.77811 -0.38905,-1.16717 z"
         fill="none"
         stroke="#000000"
         stroke-width="0.389056"
         style="display:none;stroke-width:1.003;stroke-dasharray:none" />
      <path
         id="path71"
         d="m 916.17893,162.64593 0.38909,2.7234 -13.2279,82.86897 -1.55622,0.77811 v -35.79317 l -13.61697,-9.33735 -30.73545,4.27962 -24.51054,75.08786 -16.34036,3.89057 14.78413,-112.04821 z"
         fill="none"
         stroke="#000000"
         stroke-width="0.389056"
         style="stroke-width:1.003;stroke-dasharray:none" />
    </g>
    <g
       id="t12"
       style="display:inline;stroke-width:1.003;stroke-dasharray:none"
       transform="matrix(0.76986494,0,0,0.76986494,350.85406,500.28577)"
       inkscape:label="t12">
      <path
         id="path72"
         d="m 825.52891,313.98881 -21.39815,4.27962 -158.34587,48.63203 -16.72943,7.39205 -0.38905,-6.61395 0.38905,-1.55621 2.33435,-1.55624 162.6255,-47.46485 17.1185,-3.11245 1.55623,-1.94528 z"
         fill="none"
         stroke="#000000"
         stroke-width="0.389056"
         style="stroke-width:1.003;stroke-dasharray:none" />
      <path
         id="path73"
         d="m 835.25525,313.59975 -4.66863,7.39208 -7.78113,7.39206 -36.96036,8.94829 -139.28212,45.51955 -15.56226,7.00307 h -1.94529 v -14.00606 l 12.44981,-6.61395 163.01459,-50.18825 29.17922,-5.83585 z"
         fill="none"
         stroke="#000000"
         stroke-width="0.389056"
         style="stroke-width:1.003;stroke-dasharray:none" />
    </g>
    <g
       id="t16"
       style="display:inline;stroke-width:1.003;stroke-dasharray:none"
       transform="matrix(0.54308475,0,0,0.54308475,159.30961,565.15767)"
       inkscape:label="t16">
      <path
         id="path74"
         d="m 645.78489,203.49683 -8.9483,118.2731 -0.7781,2.33434 -15.1732,-80.14559 -11.67169,-14.39508 -1.94529,-0.38905 -101.93273,15.9513 -45.51957,95.31878 -1.55624,1.55623 6.61397,-108.93576 0.77811,-0.7781 151.34288,-24.8996 z"
         fill="none"
         stroke="#000000"
         stroke-width="0.389056"
         style="stroke-width:1.003;stroke-dasharray:none" />
    </g>
    <g
       id="t15"
       style="display:inline;stroke-width:1.003;stroke-dasharray:none"
       transform="translate(-296.30435,520.91304)"
       inkscape:label="t15">
      <path
         id="path75"
         d="m 875.7171,221.00436 24.12149,-4.27961 -0.38909,42.40712 -4.66856,-9.33735 -5.0578,-5.05773 -8.17017,-2.72339 -13.2279,-1.94528 z"
         fill="none"
         stroke="#000000"
         stroke-width="0.389056"
         style="stroke-width:1.003;stroke-dasharray:none" />
      <path
         id="path76"
         d="m 901.00571,214.39041 -0.38893,1.16717 -26.06679,4.66867 1.55622,-1.55623 z"
         fill="none"
         stroke="#000000"
         stroke-width="0.389056"
         style="stroke-width:1.003;stroke-dasharray:none" />
      <path
         id="path77"
         d="m 858.20962,209.33268 14.39503,8.55924 1.16719,1.94527 -23.34335,60.69278 -15.17324,0.38906 -0.38904,-1.16717 22.56527,-70.03013 z"
         fill="none"
         stroke="#000000"
         stroke-width="0.389056"
         style="stroke-width:1.003;stroke-dasharray:none" />
      <path
         id="path78"
         d="m 899.83859,213.22324 -25.2886,5.05773 -15.56229,-9.33735 28.79019,-4.27962 z"
         fill="none"
         stroke="#000000"
         stroke-width="0.389056"
         style="stroke-width:1.003;stroke-dasharray:none" />
    </g>
    <g
       id="t17"
       style="display:inline;stroke-width:1.003;stroke-dasharray:none"
       transform="matrix(0.56086802,0,0,0.56086802,392.56747,525.08083)"
       inkscape:label="t17">
      <path
         id="path79"
         d="m 531.40236,261.46621 85.59237,-14.00602 0.7781,0.77811 6.61397,28.40111 11.28263,60.30372 v 5.44678 l -7.39207,18.67471 -5.05774,-21.3981 -7.00301,-16.34036 -10.89357,-15.1732 -6.61396,-6.61395 -6.2249,-4.27961 -7.78112,-3.50152 -20.61998,-3.89056 -14.39508,-1.16717 -33.06978,0.77812 z"
         fill="none"
         stroke="#000000"
         stroke-width="0.389056"
         style="stroke-width:1.003;stroke-dasharray:none" />
      <path
         id="path80"
         d="m 527.51179,258.35376 1.16717,1.16717 -48.24298,91.03916 -1.55622,0.77812 -19.45282,-7.00302 1.16717,-4.27961 44.35242,-92.98444 1.16716,-0.77812 z"
         fill="none"
         stroke="#000000"
         stroke-width="0.389056"
         style="stroke-width:1.003;stroke-dasharray:none" />
      <path
         id="path81"
         d="m 618.94,243.18057 -0.38905,0.77811 -88.31576,14.78413 -23.34338,-12.83885 100.76556,-15.95131 z"
         fill="none"
         stroke="#000000"
         stroke-width="0.389056"
         style="stroke-width:1.003;stroke-dasharray:none" />
      <path
         id="path82"
         d="m 619.71812,244.73679 7.00301,35.01507 -0.38905,2.33434 -8.17019,-35.40412 -87.14859,14.00602 -48.24297,91.81727 h -2.33435 l 49.41015,-92.98444 z"
         fill="none"
         stroke="#000000"
         stroke-width="0.389056"
         style="stroke-width:1.003;stroke-dasharray:none" />
    </g>
    <g
       id="t19"
       style="display:inline;stroke-width:1.003;stroke-dasharray:none"
       transform="matrix(0.72788341,0,0,0.72788341,168.45652,539.57447)"
       inkscape:label="t19">
      <path
         id="path83"
         d="m 479.65787,352.50537 -19.06376,0.38906 -0.7781,2.72339 -100.76558,-0.38905 -17.89658,-2.33434 78.58937,1.16717 1.16716,-1.94528 35.40412,0.38905 2.33434,-7.39206 z"
         fill="none"
         stroke="#000000"
         stroke-width="0.389056"
         style="display:inline;stroke-width:1.003;stroke-dasharray:none" />
      <path
         id="path84"
         d="m 112.38878,319.82465 6.61395,-3.11245 45.13053,9.33736 44.74147,7.003 50.18825,6.61396 47.46487,4.27962 47.0758,3.11245 102.71085,-1.55623 0.38906,0.77812 -2.33435,5.44678 -33.84789,-0.38905 -1.55622,1.94527 -61.85994,-0.38905 -43.18525,-3.11245 -98.04218,-10.50452 -49.02108,-7.00301 -47.85392,-8.94829 -1.16716,-0.77812 v -1.55621 z"
         fill="none"
         stroke="#000000"
         stroke-width="0.389056"
         style="stroke-width:1.003;stroke-dasharray:none" />
      <path
         id="path85"
         d="m 105.77482,323.32616 3.89057,-3.89057 0.77811,1.16717 6.2249,1.16717 0.38905,1.55623 1.55623,0.77811 47.85392,8.94829 90.6501,12.06075 31.12451,2.72339 70.41916,8.17018 103.09992,0.38906 8.94829,1.55622 -117.49498,-0.77811 -45.90864,-3.89057 -106.60142,-13.2279 -47.0758,-7.39208 z"
         fill="none"
         stroke="#000000"
         stroke-width="0.389056"
         style="stroke-width:1.003;stroke-dasharray:none" />
    </g>
    <g
       id="t20"
       style="display:inline;stroke-width:1.003;stroke-dasharray:none"
       transform="translate(-69.565217,465.21739)"
       inkscape:label="t20">
      <path
         id="path86"
         d="m 461.37223,245.12585 -114.77159,10.50452 h -32.29167 l -0.77811,-1.55623 -85.20332,-4.27962 -71.19729,-5.05773 -47.07581,-5.05773 -0.38905,-1.55622 89.48293,7.78112 112.0482,5.83585 1.16717,1.16716 36.96034,0.77811 111.65914,-19.06375 z"
         fill="none"
         stroke="#000000"
         stroke-width="0.389056"
         style="stroke-width:1.003;stroke-dasharray:none" />
      <path
         id="path87"
         d="m 105.77482,246.29302 3.50151,-3.11245 92.20633,8.9483 138.89308,6.61394 120.99649,-8.94829 1.55622,0.77812 -117.49498,13.61697 -95.31878,-3.11245 -55.63504,-3.89056 -57.58033,-5.83585 -30.73544,-4.27961 z"
         fill="none"
         stroke="#000000"
         stroke-width="0.389056"
         style="stroke-width:1.003;stroke-dasharray:none" />
    </g>
    <g
       id="t21"
       style="display:inline;stroke-width:1.003;stroke-dasharray:none"
       transform="matrix(0.57348965,0,0,0.57348965,-42.320035,386.26676)"
       inkscape:label="t21">
      <path
         id="path88"
         d="m 196.81398,258.35376 93.76256,5.44678 52.5226,1.16718 13.2279,80.9237 -43.96335,-2.33434 -49.02109,-4.27962 -54.07881,-7.00301 -1.16718,-1.16716 -5.05773,-24.8996 z"
         fill="none"
         stroke="#000000"
         stroke-width="0.389056"
         style="stroke-width:1.003;stroke-dasharray:none" />
      <path
         id="path89"
         d="m 462.92845,252.12887 -6.22489,92.59538 -99.5984,1.16717 -12.44981,-80.9237 z"
         fill="none"
         stroke="#000000"
         stroke-width="0.389056"
         style="stroke-width:1.003;stroke-dasharray:none" />
      <path
         id="path90"
         d="m 104.60765,247.84924 45.51958,5.83584 45.51958,4.27962 6.61396,48.63204 5.05774,24.8996 -42.79619,-6.2249 -46.68675,-9.33735 -7.00302,3.5015 -1.94528,-8.17017 -2.33434,-45.51959 z"
         fill="none"
         stroke="#000000"
         stroke-width="0.389056"
         style="stroke-width:1.003;stroke-dasharray:none" />
    </g>
    <g
       id="t22"
       style="display:inline;stroke-width:1.003;stroke-dasharray:none"
       transform="matrix(0.48823748,0,0,0.48823748,575.92628,590.24571)"
       inkscape:label="t22">
      <path
         id="path91"
         d="m 475.76731,381.68458 -5.83584,17.89659 -95.31879,8.17021 -1.94528,-0.38908 -12.4498,-21.00903 4.66868,-0.77808 z"
         fill="none"
         stroke="#000000"
         stroke-width="0.389056"
         style="stroke-width:1.003;stroke-dasharray:none" />
      <path
         id="path92"
         d="m 115.89028,364.95518 1.55623,-0.38907 45.90864,10.89356 52.91165,10.50452 98.04217,15.56228 56.80221,7.00299 81.31276,-6.61392 -0.38906,15.95129 -1.55623,0.38908 -10.50451,-2.72346 v 2.33438 l -1.94528,1.16715 -9.72641,2.72338 -238.10243,-38.12748 -50.18825,-11.28268 z"
         fill="none"
         stroke="#000000"
         stroke-width="0.389056"
         style="stroke-width:1.003;stroke-dasharray:none" />
      <path
         id="path93"
         d="m 355.54893,358.34122 124.498,0.77811 0.38905,1.94529 -4.66867,19.45281 -115.54971,4.66868 z"
         fill="none"
         stroke="#000000"
         stroke-width="0.389056"
         style="stroke-width:1.003;stroke-dasharray:none" />
      <path
         id="path94"
         d="m 104.99671,324.49332 48.24297,8.9483 55.24599,8.55924 94.54068,11.67168 51.35541,4.27962 4.66867,26.84488 -51.74447,-5.05769 -61.08183,-8.17021 -89.872,-14.00604 -47.46486,-8.94829 -1.55622,-1.55622 z"
         fill="none"
         stroke="#000000"
         stroke-width="0.389056"
         style="stroke-width:1.003;stroke-dasharray:none" />
      <path
         id="path95"
         d="m 108.49822,349.78198 1.55622,-0.38906 52.91165,10.11546 82.86897,12.83882 61.08184,8.17023 52.13353,5.44676 12.4498,21.00904 -3.11244,0.38907 -45.51958,-5.44676 -52.13355,-7.78113 -54.07881,-8.9483 -52.91165,-10.50452 -47.46486,-10.89358 -1.16717,-0.77812 z"
         fill="none"
         stroke="#000000"
         stroke-width="0.389056"
         style="stroke-width:1.003;stroke-dasharray:none" />
    </g>
  </g>
</svg>
