<?xml version="1.0" encoding="UTF-8" standalone="no"?>
<svg
   width="11in"
   height="8.5in"
   viewBox="0 0 1056 816"
   version="1.1"
   id="svg1"
   sodipodi:docname="processed_083I0001.svg"
   inkscape:version="1.4.2 (f4327f4, 2025-05-13)"
   xmlns:inkscape="http://www.inkscape.org/namespaces/inkscape"
   xmlns:sodipodi="http://sodipodi.sourceforge.net/DTD/sodipodi-0.dtd"
   xmlns="http://www.w3.org/2000/svg"
   xmlns:svg="http://www.w3.org/2000/svg">
  <defs
     id="defs1" />
  <sodipodi:namedview
     id="namedview1"
     pagecolor="#ffffff"
     bordercolor="#000000"
     borderopacity="0.25"
     inkscape:showpageshadow="2"
     inkscape:pageopacity="0.0"
     inkscape:pagecheckerboard="0"
     inkscape:deskcolor="#d1d1d1"
     inkscape:zoom="0.87072648"
     inkscape:cx="602.37056"
     inkscape:cy="417.46749"
     inkscape:window-width="1920"
     inkscape:window-height="1017"
     inkscape:window-x="-8"
     inkscape:window-y="-8"
     inkscape:window-maximized="1"
     inkscape:current-layer="layer5"
     inkscape:document-units="in" />
  <path
     id="part_0"
     d="m 1021.2487,249.14214 -2.6843,-6.97927 -9.6635,-9.12671 -1.0738,-2.68433 1.6106,-10.20044 v -15.03225 l -1.6106,-12.34792 -3.7581,-13.42163 -6.44232,-13.95852 -11.8111,-16.64283 -11.811,-11.27419 -37.58065,-25.23269 -33.8225,-27.38015 -17.1797,-10.73732 -17.71661,-8.58985 -32.74878,-9.66359 -49.39168,-6.97924 -47.78107,-4.8318 -76.23489,-3.22119 -103.07822,3.22119 -26.84331,2.68433 -13.42166,3.2212 -34.3594,12.34791 -47.78106,26.30642 -26.30641,16.64284 -22.01146,16.10597 -13.95856,8.05299 -32.21189,13.9585 -31.13826,8.053 -63.35015,9.66358 -72.47685,15.5691 -41.3387,10.73732 -18.25344,6.44239 -17.716574,8.58985 -12.88478,7.51613 -16.642831,14.49537 -12.347915,17.71656 -8.589851,19.86404 -5.90552,4.8318 -4.29493,1.61059 -6.442386,6.44239 -4.831797,13.95851 -1.610599,16.10597 v 18.7903 l 2.684332,17.71657 4.831797,9.12672 8.052985,22.54836 11.274182,22.0115 15.569103,23.08523 12.34792,10.20044 12.3479,8.053 18.253444,8.58985 18.7903,5.36865 59.05521,5.90553 51.0023,-0.53686 3.75804,-4.8318 5.36866,-3.75806 8.053,-3.75806 9.12671,-1.6106 4.83176,13.42165 6.44237,11.27418 9.66361,10.73731 14.49537,10.73732 16.6429,8.05299 11.81104,3.22119 13.42165,1.6106 h 15.56909 l 17.71651,-3.75807 12.88485,-5.90552 18.79022,-13.42164 8.053,-9.12672 7.51618,-10.73732 8.053,-16.64283 4.83175,-18.7903 1.07372,-15.56911 23.62208,1.61059 13.95856,3.75807 4.83176,2.68433 192.19795,-32.21195 198.64034,-28.99075 4.29495,1.07373 1.07371,6.44239 4.83176,11.27418 4.83185,6.97925 8.053,6.97926 12.88475,5.90552 12.34785,3.2212 13.95856,1.07373 16.10599,-2.68433 17.17971,-10.73732 9.66351,-11.27418 9.6636,-17.71657 4.295,-15.03224 1.6106,-12.34791 -1.0737,-12.88478 1.0737,-1.07373 2.6843,0.53686 4.2949,4.29493 h 4.29492 l 9.1267,-17.71657 7.5162,-23.08523 3.2211,-18.7903 z"
     fill="none"
     stroke="#000000"
     stroke-width="0.536865"
     style="display:inline" />
  <g
     inkscape:groupmode="layer"
     id="layer1"
     inkscape:label="_wheels"
     style="display:inline">
    <g
       id="g1">
      <path
         id="part_9"
         d="m 382.37851,340.94618 13.95847,4.83179 11.27423,6.97925 12.88475,12.88479 5.36867,8.58985 5.90547,15.03223 2.68433,15.56912 -0.53681,16.10597 -3.75804,16.64283 -5.36867,12.88478 -11.81104,18.25344 -12.34794,12.34791 -14.49537,9.66359 -15.56908,6.44238 -15.03228,2.68433 -14.49537,-0.53686 -13.95856,-3.75806 -14.49537,-8.05299 -10.73723,-10.20045 -6.97928,-9.66358 -5.90557,-12.88478 -3.22114,-13.42164 -0.53691,-18.7903 4.83176,-22.54837 5.90557,-13.42164 9.66361,-14.49538 8.053,-8.58985 12.34784,-10.20045 10.20052,-5.90552 13.95847,-5.36866 12.34794,-2.14747 z"
         fill="none"
         stroke="#000000"
         stroke-width="0.536865" />
      <path
         id="part_13"
         d="m 357.14582,460.13038 4.29495,2.14746 1.07371,9.12672 -2.14752,3.2212 -5.36866,0.53686 -0.53681,-13.95851 z"
         fill="none"
         stroke="#000000"
         stroke-width="0.536865" />
      <path
         id="part_14"
         d="m 339.96612,457.44605 12.88475,3.75806 1.07371,10.20045 -2.14742,2.68433 -7.51619,0.53687 -11.27414,-4.8318 2.14743,-5.90552 z"
         fill="none"
         stroke="#000000"
         stroke-width="0.536865" />
      <path
         id="part_17"
         d="m 395.26327,435.97142 2.68433,2.14746 4.29495,6.97926 -6.44238,9.66358 -9.66361,9.12672 -4.83185,2.68433 -2.68424,-2.68433 9.12671,-8.05298 7.51609,-9.66359 v -3.75806 l -3.75805,-4.29493 z"
         fill="none"
         stroke="#000000"
         stroke-width="0.536865" />
      <path
         id="part_19"
         d="m 315.27023,428.45529 4.29495,0.53687 2.14752,1.6106 6.44238,16.64284 -9.66362,9.66358 -2.68433,-3.22119 5.36867,-5.36866 v -3.75806 l -4.83176,-8.58985 z"
         fill="none"
         stroke="#000000"
         stroke-width="0.536865" />
      <path
         id="part_20"
         d="m 309.90157,428.45529 3.22123,1.07374 3.75805,11.27418 2.68433,4.29493 -0.53681,3.22119 -4.29495,4.29493 -5.36866,-12.34792 -1.07372,-10.20045 z"
         fill="none"
         stroke="#000000"
         stroke-width="0.536865" />
      <path
         id="part_26"
         d="m 327.08127,382.82171 2.68433,2.14746 4.29495,7.51612 -7.51609,11.27418 -3.22124,8.58986 -2.14742,2.14746 h -3.22124 l -2.14743,-1.07373 3.22124,-9.12672 8.5898,-12.34791 -0.5369,-3.2212 -3.22114,-3.22119 z"
         fill="none"
         stroke="#000000"
         stroke-width="0.536865" />
      <path
         id="part_27"
         d="m 378.62047,367.78947 -2.14752,14.49537 9.1267,6.97925 4.29495,0.53687 12.88476,-4.83179 v -4.29493 l -9.66352,-9.12671 -9.1268,-5.36866 h -3.75805 z"
         fill="none"
         stroke="#000000"
         stroke-width="0.536865" />
      <path
         id="part_31"
         d="m 354.46149,380.13738 -6.97928,2.68433 -1.61062,-1.07373 2.68433,-1.6106 z"
         fill="none"
         stroke="#000000"
         stroke-width="0.536865" />
      <path
         id="part_33"
         d="m 357.68263,365.10514 1.07381,3.22119 -2.14753,8.05299 -3.22114,2.14746 -8.5899,1.6106 -4.83175,-7.51612 2.68433,-2.68433 5.90547,-2.68432 z"
         fill="none"
         stroke="#000000"
         stroke-width="0.536865" />
      <path
         id="part_34"
         d="m 365.19881,364.56827 1.61052,1.6106 -1.07371,9.66359 -3.22114,3.22118 -4.83185,0.53687 2.14752,-14.49537 z"
         fill="none"
         stroke="#000000"
         stroke-width="0.536865" />
      <path
         id="part_36"
         d="m 379.69418,336.65126 9.12671,3.75805 0.53681,1.6106 -13.42156,-3.2212 h -15.03228 l -15.03227,3.2212 -15.56909,6.97925 -15.03227,10.73732 -6.97919,6.97926 -8.05299,10.20045 -7.51619,13.42164 -5.90547,16.10598 -2.68433,14.49537 0.53681,20.93776 3.22124,12.88478 5.90556,13.42164 8.58981,11.81105 10.20042,9.12672 12.34794,6.97926 -5.90547,-0.53687 -11.81114,-4.83179 -14.49537,-9.12672 -11.81104,-10.73732 -8.05299,-11.27418 -6.44238,-15.03224 -2.68433,-12.88478 v -18.7903 l 2.68433,-14.49538 6.44238,-16.10597 9.66361,-15.5691 12.88475,-13.95852 11.81104,-8.58985 10.20052,-5.36866 14.49537,-4.83179 12.88475,-1.61059 18.25342,0.53686 z"
         fill="none"
         stroke="#000000"
         stroke-width="0.536865" />
      <path
         id="part_11"
         d="m 379.69418,359.19961 17.1797,8.58986 8.58981,8.58985 6.97928,11.27418 4.83176,17.71657 v 13.95851 l -3.22114,15.03224 -5.36867,11.81105 -5.90556,9.12672 -10.73733,11.27418 -9.12671,6.44239 -13.95846,6.44238 -10.20042,2.14747 H 346.9453 l -9.66352,-2.14747 -15.56908,-8.58985 -8.05299,-8.05298 -5.90557,-9.12672 -3.75805,-9.66358 -2.14742,-13.95852 0.53681,-11.27418 2.14742,-10.73731 6.44247,-15.03224 6.97919,-10.20045 11.81104,-11.81105 16.10599,-9.12672 10.20051,-3.2212 18.25342,-0.53685 z"
         fill="none"
         stroke="#000000"
         stroke-width="0.536865" />
      <path
         id="part_12"
         d="m 331.37622,467.10963 v 3.75806 l 9.66361,4.29493 13.95847,1.61059 6.44247,-0.53685 2.14742,-2.68434 -0.5369,-12.34791 -2.14743,-2.14747 h -10.73732 l -10.73733,-3.22118 -2.68433,1.61059 -0.53681,2.68433 z"
         fill="none"
         stroke="#000000"
         stroke-width="0.536865" />
      <path
         id="part_15"
         d="m 396.33698,434.36082 -4.83176,0.53687 -4.83185,8.05299 -10.73723,10.20045 2.14742,13.42164 2.14743,1.61059 3.22124,-0.53686 7.51609,-5.90552 12.34794,-14.49538 v -4.29492 z"
         fill="none"
         stroke="#000000"
         stroke-width="0.536865" />
      <path
         id="part_16"
         d="m 390.96832,439.72948 2.68433,3.2212 -0.53681,3.75806 -5.36866,6.97925 -9.12671,8.05299 -1.61062,-5.90552 1.07371,-2.68433 7.51609,-6.44239 z"
         fill="none"
         stroke="#000000"
         stroke-width="0.536865" />
      <path
         id="part_18"
         d="m 308.29104,426.84471 -1.61061,4.29492 3.75804,16.10597 5.90557,10.73731 h 4.29485 l 8.5899,-8.58985 v -4.29492 l -4.83185,-8.58985 -1.07372,-6.97926 -1.61052,-1.6106 z"
         fill="none"
         stroke="#000000"
         stroke-width="0.536865" />
      <path
         id="part_22"
         d="m 401.16874,399.46454 2.14752,9.12672 v 8.053 l -1.61062,5.90552 -3.75804,-2.14747 -1.61062,-17.71657 z"
         fill="none"
         stroke="#000000"
         stroke-width="0.536865" />
      <path
         id="part_23"
         d="m 405.46369,398.39081 4.29495,1.6106 1.61062,6.4424 -0.53691,16.10597 -2.68433,2.14746 -4.29495,-1.6106 0.5369,-15.03224 -1.07371,-8.58986 z"
         fill="none"
         stroke="#000000"
         stroke-width="0.536865" />
      <path
         id="part_24"
         d="m 329.22879,381.74798 h -4.83185 l -6.97919,9.12671 -8.5899,18.25344 1.07372,4.83179 8.05299,1.6106 6.44238,-1.07373 0.5369,-3.75806 4.29495,-9.12672 6.44238,-8.05299 v -3.75806 z"
         fill="none"
         stroke="#000000"
         stroke-width="0.536865" />
      <path
         id="part_25"
         d="m 322.78641,386.57977 3.22114,4.29492 -0.5368,2.14747 -5.36867,6.97925 -4.29495,10.73732 -2.68433,2.68433 -2.68433,-2.14747 1.61062,-6.97925 5.36866,-10.73732 z"
         fill="none"
         stroke="#000000"
         stroke-width="0.536865" />
      <path
         id="part_28"
         d="m 379.69418,370.47379 1.07372,-0.53686 4.83175,3.22119 6.97929,6.97926 0.5369,2.68433 -2.68433,2.14746 -5.36866,1.6106 -4.83186,-3.2212 -2.68433,-3.22119 z"
         fill="none"
         stroke="#000000"
         stroke-width="0.536865" />
      <path
         id="part_29"
         d="m 380.7679,368.32633 3.22114,-0.53686 7.51618,4.29492 10.20042,10.73732 -2.68433,2.68433 -11.27413,2.68432 v -1.61059 l 5.36866,-1.07373 1.61052,-1.6106 v -3.75806 z"
         fill="none"
         stroke="#000000"
         stroke-width="0.536865" />
      <path
         id="part_30"
         d="m 367.34624,363.49454 -11.81104,0.53687 -15.56908,5.36865 -1.61062,2.14747 0.5369,3.75806 6.44238,8.58985 19.32713,-3.75806 1.61062,-1.6106 2.14742,-10.73731 z"
         fill="none"
         stroke="#000000"
         stroke-width="0.536865" />
      <path
         id="part_21"
         d="m 396.33698,399.46454 -1.61062,2.14747 2.14752,13.42165 -0.5369,6.44238 1.61062,1.6106 9.12671,2.68433 4.29495,-0.53686 1.61061,-10.73732 -1.61061,-15.56911 -1.61062,-1.61059 h -4.29495 z"
         fill="none"
         stroke="#000000"
         stroke-width="0.536865" />
      <path
         id="part_10"
         d="m 381.84161,358.66274 -12.34794,-2.14745 -10.20043,0.53687 -12.88475,3.22118 -10.20042,4.8318 -11.27423,8.05298 -7.51609,8.05299 -6.97928,10.20045 -5.36866,11.27418 -4.29495,20.93777 0.5369,12.88478 3.22114,12.88477 3.22124,6.97926 6.44237,9.12672 9.12671,8.58985 11.81104,5.90552 10.20052,2.68433 h 13.42166 l 12.88475,-2.68433 7.51609,-3.2212 11.81104,-7.51612 9.12671,-8.58985 8.05299,-10.73731 6.44238,-13.42164 3.75814,-15.56911 0.53681,-9.66359 -1.61062,-13.42164 -3.22114,-9.66359 -4.83186,-9.12672 -9.1267,-10.20045 -7.51609,-5.90552 z"
         fill="none"
         stroke="#000000"
         stroke-width="0.536865" />
      <path
         id="part_40"
         d="m 472.57197,379.06364 3.22114,17.71658 -0.5368,15.03224 -18.25352,-4.83179 -20.93774,-1.07373 -4.83176,-22.54837 -6.97928,-14.49538 -13.95847,-16.10597 -11.81104,-8.58985 -16.64289,-8.05298 -18.79032,-4.29493 -19.86403,-0.53687 -17.71651,3.2212 -11.27424,4.29492 -13.42165,8.053 -6.97919,5.36865 -10.73732,11.27418 -7.51619,10.73732 -7.51609,15.5691 -3.22123,10.20045 -2.68424,16.64285 v 10.7373 l 2.14743,12.88478 -11.27423,2.68434 -11.27414,6.44238 -1.07371,-0.53687 2.14743,-19.32716 5.90556,-24.15896 6.97919,-17.71657 13.42166,-24.15896 12.34794,-16.10597 8.5898,-9.12672 9.66361,-7.51612 17.17971,-10.20045 20.40093,-8.05299 20.93775,-4.29492 25.2327,-0.53687 18.25341,2.68433 18.79032,6.97926 16.6428,10.20045 17.71661,17.1797 8.5898,12.88478 z"
         fill="none"
         stroke="#000000"
         stroke-width="0.536865"
         style="display:none" />
    </g>
    <g
       id="g2">
      <path
         id="part_48"
         d="m 956.82488,288.8702 5.90547,3.22119 7.51618,7.51612 5.36865,11.27418 1.6105,7.51613 v 15.03224 l -2.6843,11.81105 -6.97918,14.49537 -10.73732,12.34791 -13.95857,7.51612 -11.27414,0.53687 -10.73732,-5.36866 -4.83176,-4.83179 -4.83186,-8.58985 -3.22114,-11.81105 v -13.42164 l 1.61062,-9.12672 3.22114,-9.66358 4.29495,-8.053 12.88475,-14.49537 12.88476,-6.44238 9.1268,-0.53687 z"
         fill="none"
         stroke="#000000"
         stroke-width="0.536865" />
      <path
         id="part_54"
         d="m 959.50921,355.97842 2.68433,3.75806 -8.05299,8.05299 -1.07372,-2.14746 5.90547,-5.90553 -0.5368,-3.22119 z"
         fill="none"
         stroke="#000000"
         stroke-width="0.536865" />
      <path
         id="part_57"
         d="m 914.94928,336.65126 3.22123,1.07373 0.53691,8.58985 2.14743,6.44238 -2.68434,3.2212 -2.14742,-0.53686 1.61052,-1.6106 v -2.14747 l -2.68433,-6.97925 z"
         fill="none"
         stroke="#000000"
         stroke-width="0.536865" />
      <path
         id="part_65"
         d="m 971.32025,328.0614 1.61062,1.07373 -0.53691,8.58986 -2.68433,8.58985 -2.14743,2.14746 -2.14752,-2.14746 2.14752,-5.36866 1.61062,-11.27419 z"
         fill="none"
         stroke="#000000"
         stroke-width="0.536865" />
      <path
         id="part_72"
         d="m 927.83413,304.43931 3.22114,3.75806 -5.36867,6.97925 -3.75804,7.51612 -3.75805,1.6106 -0.5369,-1.07373 2.68433,-5.90552 6.97928,-8.58985 z"
         fill="none"
         stroke="#000000"
         stroke-width="0.536865" />
      <path
         id="part_75"
         d="m 961.65664,302.29184 4.83185,9.12672 -0.5369,3.2212 -2.14743,-0.53687 -4.83186,-8.05298 z"
         fill="none"
         stroke="#000000"
         stroke-width="0.536865" />
      <path
         id="part_76"
         d="m 963.26725,300.14438 6.97928,9.66358 1.61062,4.8318 -1.61062,1.6106 h -3.22123 l 1.07371,-3.75807 -5.90547,-11.27418 z"
         fill="none"
         stroke="#000000"
         stroke-width="0.536865" />
      <path
         id="part_80"
         d="m 948.23497,293.70199 -0.53681,4.29493 -2.68433,3.22119 h -8.053 l -1.07371,-2.68432 1.07371,-2.14747 6.97929,-2.68433 z"
         fill="none"
         stroke="#000000"
         stroke-width="0.536865" />
      <path
         id="part_82"
         d="m 951.45621,270.61676 v 1.07373 l -7.51609,0.53687 -9.66362,3.2212 -12.88475,8.58985 -11.81104,13.42164 -8.5899,16.64284 -5.36866,22.0115 -0.53691,11.27418 2.14753,15.5691 3.22114,9.12672 7.51618,12.34792 5.36867,4.83178 8.5898,4.8318 -3.22114,0.53687 -12.88485,-3.2212 -10.73733,-4.83179 -9.66351,-8.05299 -6.97928,-10.73731 -4.29495,-14.49538 4.83185,-4.29493 1.61052,-3.22119 2.68434,-12.88478 9.1268,-24.69582 4.83176,-10.20045 10.20042,-15.56911 13.42166,-13.42164 20.40093,-0.53687 z"
         fill="none"
         stroke="#000000"
         stroke-width="0.536865" />
      <path
         id="part_86"
         d="m 923.53918,266.85871 10.73732,-6.97927 18.25342,-7.51612 h 12.34795 l 10.73731,4.29494 11.2741,10.73731 8.053,16.10597 2.1475,10.20045 -1.0737,18.25344 -1.0738,1.07373 -6.4423,-2.68433 -2.1475,-10.73732 -2.6843,-5.90552 -5.9056,-9.12672 -7.51605,-6.97925 -10.20051,-5.36866 -13.95848,-4.29492 z"
         fill="none"
         stroke="#000000"
         stroke-width="0.536865"
         style="display:inline" />
      <path
         id="part_46"
         d="m 957.36169,273.30109 13.42165,6.44239 6.97924,6.97926 6.4424,11.27418 4.295,16.64284 v 17.1797 l -2.1475,11.81105 -4.2949,12.34791 -7.5162,13.95851 -13.95846,15.03224 -15.03228,8.58985 -7.51609,1.6106 -12.88475,-1.07373 -10.20052,-5.36866 -8.0529,-8.05299 -6.97928,-12.88477 -3.22124,-15.03225 v -15.5691 l 2.68433,-13.95851 4.29495,-11.81105 5.90557,-11.27418 5.90547,-8.05299 8.053,-8.05298 7.51609,-5.36866 9.66361,-4.29493 9.66361,-1.6106 z"
         fill="none"
         stroke="#000000"
         stroke-width="0.536865" />
      <path
         id="part_47"
         d="m 956.82488,287.2596 h -13.95857 l -5.36867,1.6106 -9.1267,5.36866 -11.27414,12.34791 -8.05299,17.71657 -2.68433,17.1797 2.68433,18.25344 7.51609,12.88478 4.83185,4.29493 6.44238,3.22119 6.97918,1.6106 6.97928,-0.53687 10.73733,-4.29492 12.88476,-11.81105 4.83185,-6.97925 4.83175,-10.73732 3.758,-18.25344 -0.5368,-11.27418 -2.6843,-10.73731 -6.97926,-11.81105 -4.83176,-4.29493 z"
         fill="none"
         stroke="#000000"
         stroke-width="0.536865" />
      <path
         id="part_50"
         d="m 934.81331,365.64201 3.22124,2.68432 0.5369,3.75806 -1.61062,2.68433 -2.68433,-0.53686 z"
         fill="none"
         stroke="#000000"
         stroke-width="0.536865" />
      <path
         id="part_51"
         d="m 920.31794,366.17887 7.51619,-3.75806 4.83176,2.68433 1.07371,5.90552 -2.14743,2.68433 h -1.61062 l -6.44237,-3.75806 z"
         fill="none"
         stroke="#000000"
         stroke-width="0.536865" />
      <path
         id="part_52"
         d="m 960.58292,354.36782 h -4.29495 l -5.90548,5.90552 -0.5369,3.2212 2.68433,5.36865 h 3.75805 l 7.51619,-8.05298 v -2.68432 z"
         fill="none"
         stroke="#000000"
         stroke-width="0.536865" />
      <path
         id="part_53"
         d="m 956.28797,357.05216 1.07372,1.61058 -4.83177,4.8318 -1.07371,-1.07373 0.5369,-1.6106 z"
         fill="none"
         stroke="#000000"
         stroke-width="0.536865" />
      <path
         id="part_55"
         d="m 911.72814,335.04066 -1.07372,1.07373 v 8.58985 l 2.14743,11.81105 1.07371,1.07373 7.51619,-1.07373 1.07371,-3.75807 -2.68433,-6.97925 v -8.58985 l -1.07371,-1.6106 z"
         fill="none"
         stroke="#000000"
         stroke-width="0.536865" />
      <path
         id="part_56"
         d="m 912.80185,337.18812 3.22124,14.49537 -1.07381,2.14747 -1.61052,-0.53687 -1.61062,-12.88478 z"
         fill="none"
         stroke="#000000"
         stroke-width="0.536865" />
      <path
         id="part_58"
         d="m 973.46768,326.98767 -7.51609,0.53687 -0.53691,6.97925 -3.22114,11.81105 4.29495,3.75805 3.75804,-0.53686 3.75805,-13.42164 0.5368,-8.05299 z"
         fill="none"
         stroke="#000000"
         stroke-width="0.536865" />
      <path
         id="part_64"
         d="m 967.5622,329.13513 0.53681,3.75806 -1.07371,3.2212 z"
         fill="none"
         stroke="#000000"
         stroke-width="0.536865" />
      <path
         id="part_66"
         d="m 928.90784,302.82871 h -3.75804 l -6.44238,9.12672 -4.83186,9.66358 1.07372,3.2212 6.97928,0.53686 5.36866,-10.20045 4.83186,-4.83179 0.53681,-3.22119 z"
         fill="none"
         stroke="#000000"
         stroke-width="0.536865" />
      <path
         id="part_71"
         d="m 925.1498,305.51304 0.5368,2.68433 -7.51609,10.20045 v -2.68433 z"
         fill="none"
         stroke="#000000"
         stroke-width="0.536865" />
      <path
         id="part_74"
         d="m 961.11983,299.07065 v 1.61059 l -3.75814,4.8318 0.5369,2.68433 6.97928,10.20045 7.51609,-1.07373 0.53691,-3.75807 -4.29495,-9.66358 -3.22124,-4.83179 z"
         fill="none"
         stroke="#000000"
         stroke-width="0.536865" />
      <path
         id="part_77"
         d="m 954.14055,292.62826 -8.58991,-0.53687 -10.73733,3.2212 -0.53681,3.75806 3.22114,5.90552 6.97928,-1.6106 6.97929,0.53687 3.22115,-8.05298 z"
         fill="none"
         stroke="#000000"
         stroke-width="0.536865" />
      <path
         id="part_79"
         d="m 951.99311,293.70199 1.07372,1.07373 -1.07372,5.90552 -1.61062,1.6106 h -2.14752 l 1.07381,-6.97925 1.07371,-1.6106 z"
         fill="none"
         stroke="#000000"
         stroke-width="0.536865" />
      <path
         id="part_49"
         d="m 918.70742,364.56827 v 3.2212 l 6.97918,5.36865 8.053,2.68434 h 5.36866 l -0.53681,-10.73732 -6.44237,-1.6106 -3.75814,-2.68433 h -2.68434 z"
         fill="none"
         stroke="#000000"
         stroke-width="0.536865" />
      <path
         id="part_87"
         d="m 1018.0276,245.92094 2.1474,5.36865 v 5.36867 l -4.2949,24.15895 -10.7373,27.38016 -3.2212,5.90552 -3.22122,2.68433 -2.1474,-2.68433 1.6106,-6.97925 v -15.03225 l -3.2213,-12.34791 -8.053,-15.03224 -8.5898,-8.05298 17.1797,-3.2212 z"
         fill="none"
         stroke="#000000"
         stroke-width="0.536865" />
    </g>
  </g>
  <g
     inkscape:groupmode="layer"
     id="layer2"
     inkscape:label="_winshields"
     style="display:inline">
    <g
       id="g3">
      <path
         id="part_105"
         d="m 621.28373,74.66076 -38.11745,34.35941 -28.45384,28.45388 -34.89631,37.58061 -5.36866,3.75806 -13.95856,5.90552 -5.90548,1.07373 -24.15898,-0.53686 -24.15898,-2.68434 -31.13817,-5.36865 -49.39168,-13.95851 -35.97002,-15.03224 19.86403,-6.4424 25.7696,-11.81103 13.42166,-7.51613 20.40084,-15.03224 37.58064,-23.6221 41.33869,-22.01149 12.34785,-4.29493 15.56918,-2.68432 h 12.34784 l 27.91703,3.22119 39.19126,8.05298 z"
         fill="none"
         stroke="#000000"
         stroke-width="0.536865" />
    </g>
    <g
       id="g4">
      <path
         id="part_103"
         d="m 769.45867,63.38657 h 9.66361 l 3.75804,8.053 14.49538,53.68657 6.44237,38.11747 0.53691,12.34791 -15.03228,1.6106 -0.53681,-25.76955 -3.75804,-30.60135 -6.44247,-28.990746 -9.66352,-27.380164 z"
         fill="none"
         stroke="#000000"
         stroke-width="0.536865" />
      <path
         id="part_104"
         d="m 788.24899,177.20212 -159.44908,16.64284 -0.5369,-2.68433 4.29495,-9.66359 2.14742,-12.3479 v -9.66359 l -3.22114,-5.90553 -9.1268,-6.97925 -10.73723,-1.6106 -18.25351,1.07374 -8.053,3.22119 -2.68433,2.68432 v -16.10596 l 22.54837,-22.54837 31.67517,-28.99075 10.73723,-8.05299 9.1268,-4.29492 30.06445,-5.36866 27.91703,-2.68433 52.07592,-1.07372 9.1267,24.15895 8.053,34.35941 3.22123,24.15896 z"
         fill="none"
         stroke="#000000"
         stroke-width="0.536865" />
    </g>
    <g
       id="g5">
      <path
         id="part_101"
         d="m 790.93332,64.99717 18.25341,0.53687 22.54837,4.29493 18.25351,6.97925 17.71651,10.20045 23.08527,19.86403 19.32713,23.6221 5.36866,11.27417 -0.5369,5.36867 -2.14743,4.83178 -5.90547,5.36867 -8.05299,2.68433 -51.0023,9.66358 -29.52765,4.29492 -3.22114,-24.69582 -6.97928,-34.35941 -10.20042,-33.28567 z"
         fill="none"
         stroke="#000000"
         stroke-width="0.536865" />
      <path
         id="part_102"
         d="m 781.80661,63.38657 6.97928,0.53687 1.07372,1.07373 11.81103,31.138224 8.053,30.601346 4.83176,26.30642 2.14752,20.4009 -2.14752,1.07373 -8.053,0.53687 -1.07371,-2.14747 -1.07371,-13.9585 -6.44238,-36.50688 -9.12671,-35.97001 -7.51618,-21.47463 z"
         fill="none"
         stroke="#000000"
         stroke-width="0.536865" />
    </g>
    <g
       id="g6">
      <path
         id="part_99"
         d="m 584.77689,151.96942 10.73733,-4.83178 20.40084,-0.53687 8.5899,3.2212 5.36866,4.83179 3.75805,6.97925 -0.53691,11.27418 -4.29485,15.03225 -2.14752,4.29492 -3.75805,3.75806 -2.68433,1.07373 -4.29495,-0.53686 3.22124,-8.05299 2.14743,-12.88478 v -8.05298 l -4.29486,-7.51612 -10.20052,-6.4424 -9.66351,-1.07373 -12.88485,1.07373 z"
         fill="none"
         stroke="#000000"
         stroke-width="0.536865" />
      <path
         id="part_100"
         d="m 581.01885,137.47405 v 15.56911 l -5.36866,7.51613 -2.14753,13.42163 -3.75804,2.68433 h -5.36866 l -5.36867,-2.14746 -5.36866,0.53687 -6.44238,10.73731 -4.83175,17.1797 -1.07372,1.07374 -13.95856,1.6106 -0.53681,-2.14747 3.22114,-8.05298 6.44238,-10.20045 z"
         fill="none"
         stroke="#000000"
         stroke-width="0.536865" />
      <path
         id="part_96"
         d="m 574.03957,178.27585 0.5369,6.97926 -14.49546,3.75806 -15.03218,6.97925 2.14742,-6.97925 7.51619,-12.34792 3.75804,-0.53686 5.90548,2.14746 8.5899,-1.07373 z"
         fill="none"
         stroke="#000000"
         stroke-width="0.536865" />
      <path
         id="part_98"
         d="m 581.55566,155.19062 5.36866,-1.07373 17.1797,0.53687 8.053,3.75806 5.36866,5.36865 2.68433,5.36867 -1.61062,16.64283 -4.29485,11.27418 -11.81113,-1.61059 h -17.71652 l -4.29495,-4.29493 -5.36866,-11.27418 v -11.27418 l 1.61062,-5.90553 z"
         fill="none"
         stroke="#000000"
         stroke-width="0.536865" />
      <path
         id="part_90"
         d="m 581.55566,194.91869 -1.61062,1.07373 h -6.97918 l -3.22124,1.6106 -5.36866,6.97925 -6.97919,3.2212 -9.66361,0.53687 -3.22124,-2.14747 -1.07371,-2.68433 1.07371,-4.29492 4.83186,-3.75806 12.88475,-5.90552 9.12671,-2.68434 h 4.83176 z"
         fill="none"
         stroke="#000000"
         stroke-width="0.536865" />
      <path
         id="part_89"
         d="m 570.81833,199.75049 4.83186,-2.68434 h 21.47465 l -23.08527,3.2212 z"
         fill="none"
         stroke="#000000"
         stroke-width="0.536865" />
    </g>
    <g
       id="g9">
      <path
         id="part_108"
         d="m 511.76314,53.72299 17.7166,-5.36865 12.88476,-1.6106 76.7718,-4.29492 82.14046,0.53687 65.49758,4.83178 31.13826,4.29493 -63.88705,0.53687 -61.20272,5.36865 -27.38012,4.29493 -11.27414,4.29492 -11.27423,6.97925 -28.99074,-9.12671 -37.04373,-7.51612 -26.84332,-3.2212 z"
         fill="none"
         stroke="#000000"
         stroke-width="0.536865" />
    </g>
  </g>
  <g
     inkscape:groupmode="layer"
     id="layer3"
     inkscape:label="_doors"
     style="display:inline">
    <g
       id="g7">
      <path
         id="part_91"
         d="m 814.01859,192.77122 4.83176,15.56912 1.61061,11.27418 v 11.81104 l -4.29494,23.6221 v 19.32716 l -1.07372,1.07374 -294.73936,40.8018 1.61062,-64.96077 3.22123,-40.80179 1.61062,-3.75806 15.03218,-1.6106 3.75805,4.29493 14.49537,-0.53687 5.36866,-2.68433 4.83185,-4.83179 35.97003,-4.29493 13.95846,1.6106 10.20042,-4.29493 165.35465,-16.10597 9.1268,-1.6106 z"
         fill="none"
         stroke="#000000"
         stroke-width="0.536865" />
      <path
         id="part_45"
         d="m 816.16602,277.05915 1.07371,17.17971 -2.14743,22.0115 -3.75804,15.5691 -5.36867,12.88478 -135.82709,19.86403 -148.17494,24.69582 -1.61062,-36.50687 0.5369,-34.89627 279.70709,-39.72806 z"
         fill="none"
         stroke="#000000"
         stroke-width="0.536865" />
      <path
         id="part_94"
         d="m 797.3757,216.39332 -3.22114,5.90552 -7.51619,2.14747 -15.56908,1.07373 -3.75805,-1.07373 -4.29495,-4.29492 1.61062,-1.07374 2.68433,3.22119 2.68433,1.07373 19.86404,-2.14746 2.68433,-1.61059 2.14742,-3.75806 z"
         fill="none"
         stroke="#000000"
         stroke-width="0.536865" />
      <path
         id="part_95"
         d="m 796.83889,212.09839 -0.53691,2.68433 -34.3594,2.68433 1.07371,-5.90552 4.29495,-2.14746 24.69579,-2.14747 z"
         fill="none"
         stroke="#000000"
         stroke-width="0.536865" />
      <path
         id="part_93"
         d="m 792.00703,216.93019 -4.83176,3.2212 -16.64279,1.61059 -3.22124,-2.68433 19.32713,-2.68433 z"
         fill="none"
         stroke="#000000"
         stroke-width="0.536865" />
      <path
         id="part_92"
         d="m 798.44941,211.56153 -1.07371,-2.68433 -4.83176,-3.22119 -28.45394,2.68433 -3.22114,2.68432 -0.5369,6.44239 1.61062,4.83179 6.44237,4.29493 25.76961,-2.14746 4.29485,-5.36866 z"
         fill="none"
         stroke="#000000"
         stroke-width="0.536865" />
    </g>
  </g>
  <g
     inkscape:groupmode="layer"
     id="layer4"
     inkscape:label="_frames"
     style="display:inline">
    <g
       id="g8"
       style="display:inline">
      <path
         id="part_35"
         d="m 881.66368,336.11439 -4.29495,11.81105 -4.29495,3.75805 -4.29494,1.6106 -178.2394,25.23269 -132.06896,21.47463 -73.55066,13.42165 h -5.36866 l -2.68433,-4.29493 0.5369,-10.20045 24.69579,-4.83179 227.09427,-37.5806 150.85928,-21.47463 z"
         fill="none"
         stroke="#000000"
         stroke-width="0.536865" />
      <path
         id="part_37"
         d="m 518.74242,317.86095 2.14742,71.40314 -3.75804,1.6106 -39.72807,6.97926 -3.75804,-19.32717 -8.5899,-20.93776 -10.20042,-15.03224 -12.88476,-12.88479 1.07372,-1.07372 z"
         fill="none"
         stroke="#000000"
         stroke-width="0.536865" />
      <path
         id="part_39"
         d="m 505.85757,333.43006 v 1.6106 l -4.29485,2.68433 -17.17971,1.61059 -1.61061,-1.61059 1.07371,-2.68433 17.71661,-3.2212 h 2.68433 z"
         fill="none"
         stroke="#000000"
         stroke-width="0.536865" />
      <path
         id="part_85"
         d="m 929.98155,260.95318 -14.49537,10.73731 -13.42165,15.56911 -11.81104,22.54836 -8.58981,24.15896 -73.55066,9.66359 4.83186,-12.88478 4.29485,-20.4009 1.07371,-12.34791 -0.53681,-22.0115 108.98378,-15.56911 z"
         fill="none"
         stroke="#000000"
         stroke-width="0.536865" />
      <path
         id="part_38"
         d="m 507.46819,332.35633 -1.07372,-1.6106 -3.22123,-0.53687 -20.40084,3.2212 -1.61062,2.14746 v 3.22119 l 1.61062,2.14747 22.01146,-2.68433 2.68433,-2.14746 z"
         fill="none"
         stroke="#000000"
         stroke-width="0.536865" />
    </g>
    <g
       id="g10"
       style="display:inline">
      <path
         id="part_88"
         d="m 64.553947,230.88869 29.527619,34.35942 2.68433,6.44238 -1.07374,3.75807 -12.88477,16.10597 -7.51612,13.42164 -15.569106,-21.47463 -11.811048,-19.86403 9.663583,-22.54837 z"
         fill="none"
         stroke="#000000"
         stroke-width="0.536865" />
      <path
         id="part_84"
         d="m 31.805133,275.98542 8.052994,-7.51612 6.979252,-3.22119 19.864034,31.13821 9.663583,12.88477 6.44239,6.4424 19.327164,13.42164 12.34792,5.90553 10.20045,3.22119 18.7903,3.22119 49.39167,1.6106 47.78106,-0.53686 45.09673,-2.14747 -11.81104,13.95851 -66.03457,2.14747 h -76.2349 l -21.47463,-4.29493 -16.642844,-5.90552 -11.81105,-5.90553 -7.51611,-6.44239 L 58.111562,317.32409 45.763646,301.21811 34.489464,282.96467 Z"
         fill="none"
         stroke="#000000"
         stroke-width="0.536865" />
    </g>
    <g
       id="g11">
      <path
         id="part_42"
         d="m 29.657677,279.20662 h 1.610599 l 16.105969,26.84329 13.958505,17.1797 13.958516,13.95851 4.83179,3.75806 12.88477,6.44239 12.884784,4.83179 24.69583,5.36866 h 84.82481 l 57.44458,-2.14746 -13.42156,22.0115 -6.97928,14.49537 -5.90557,16.10597 -4.83176,20.40089 -2.68433,24.15897 -4.83176,2.14746 -46.70735,0.53687 -53.68659,-4.8318 -16.10597,-3.75805 -12.88478,-4.8318 -15.032234,-7.51612 -13.95852,-9.66358 -10.200446,-9.66358 -7.516118,-10.20045 -17.179703,-31.13822 -4.29493,-10.73732 0.536866,-1.07373 8.052985,12.34792 13.421648,16.64283 22.011498,20.4009 10.7373,6.97926 17.716584,6.44239 20.93777,1.07373 3.22119,-3.22119 v -5.90552 L 109.11381,400.53828 84.954846,382.28484 68.312011,367.78947 46.837379,346.31484 l -3.221198,-7.51613 1.610599,-19.32717 -0.536866,-8.05298 -2.684332,-5.36865 -15.032237,-13.42165 v -5.36866 z"
         fill="none"
         stroke="#000000"
         stroke-width="0.536865"
         style="display:inline" />
      <path
         id="part_44"
         d="m 182.66447,372.62126 3.75804,-4.29493 16.10599,-3.22119 13.42156,1.07373 5.90557,2.14746 2.14743,2.14746 -1.61053,3.2212 -4.29495,2.14747 -10.20051,2.14746 -16.1059,-0.53686 -6.97928,-2.68434 z"
         fill="none"
         stroke="#000000"
         stroke-width="0.536865"
         style="display:inline" />
      <path
         id="part_43"
         d="m 181.05385,373.15812 2.68433,2.68434 4.83176,2.14746 17.1797,1.61059 15.56908,-3.75805 3.22124,-2.14747 1.07371,-3.2212 -3.75804,-3.75805 -4.83176,-1.6106 -19.32722,-1.07373 -12.88476,3.75806 -3.22123,2.68432 z"
         fill="none"
         stroke="#000000"
         stroke-width="0.536865" />
    </g>
    <g
       id="g12">
      <path
         id="part_41"
         d="m 26.973345,294.23886 10.737317,10.20045 5.368653,7.51612 1.073733,7.51611 -1.610599,22.0115 2.684331,5.90553 17.179702,17.1797 20.400904,17.71657 26.306424,19.86404 18.7903,11.81104 4.29492,4.83179 -2.14745,4.8318 -2.14747,1.07373 -17.71657,-1.07373 -10.737314,-3.2212 -11.81105,-5.90552 -19.327165,-16.10598 -17.179702,-18.7903 -13.958514,-20.4009 -10.20045,-19.86403 -2.147465,-16.64284 v -17.71657 z"
         fill="none"
         stroke="#000000"
         stroke-width="0.536865" />
    </g>
    <g
       id="g13">
      <path
         id="part_106"
         d="m 1017.4907,244.31034 -11.811,4.8318 -23.62212,5.90552 -5.9056,0.53686 -8.05297,-3.75806 -13.42165,-1.07373 -11.27415,3.22119 -9.66361,4.8318 -115.96297,16.10597 -1.07371,-11.81105 4.83176,-30.60135 -0.53691,-19.32717 -4.29485,-17.1797 -10.20052,-19.32717 45.09673,-6.44238 55.29725,-10.73732 4.29485,-2.68433 4.29495,-5.90552 1.07372,-11.81105 -5.36867,-9.66358 -16.10599,-20.4009 L 881.12678,95.598524 860.18903,80.56629 841.93562,71.97643 823.68211,66.60777 804.35498,63.92344 771.60619,61.77598 h -37.58064 l -38.11745,2.68433 -31.67507,4.29493 -11.27423,3.22119 -13.42166,8.05299 -18.79022,16.642834 -49.92859,48.317916 -34.89621,38.65434 -5.36866,8.05298 -4.83186,11.27418 -2.14742,10.73732 -4.29495,74.08748 v 28.45389 l -1.07372,1.07373 -78.38242,10.73731 -12.34785,-8.58986 -21.47465,-9.12671 -20.40094,-3.75806 h -22.01146 l -20.93774,3.22119 -18.25351,5.90553 -19.86404,10.20045 -17.1797,12.88477 -48.85477,2.68433 h -66.03448 l -39.72805,-2.68433 -14.49537,-3.75805 -15.56911,-6.97926 -16.105974,-11.27418 -10.20045,-10.20045 8.58985,-15.56911 11.27418,-12.88477 1.6106,-3.2212 v -6.44239 l -1.6106,-3.22119 -30.601346,-35.43314 13.421646,-13.95851 11.81104,-8.05299 17.716584,-9.66358 23.62208,-9.12672 90.73031,-22.0115 54.76034,-10.20045 32.74879,-4.29493 15.03228,-3.75805 3.75804,0.53686 19.86403,9.12672 22.54837,8.05298 42.94921,11.81105 39.19125,6.44239 38.11745,2.14746 v 1.07374 l -63.88705,21.47463 -60.66581,16.10597 -70.32943,14.49538 -56.90777,8.58985 -14.49537,5.90552 -12.88475,9.12672 -9.66361,11.27418 -4.29495,7.51612 -2.68433,-4.83179 -5.36867,-4.8318 -18.79022,-4.83178 -30.06452,-1.07373 -23.08522,4.83178 -11.27419,6.4424 -9.126714,9.66358 -7.51613,15.5691 v 6.44239 l 2.14746,3.75806 2.68433,2.14747 24.158974,6.97925 26.30642,3.2212 16.64283,-1.6106 14.49542,-5.36865 10.73723,-6.97926 11.27423,-11.27419 1.07372,-3.75805 v -10.20045 l -1.07372,-2.14747 5.90548,-10.20045 11.81113,-12.34791 8.5898,-5.90552 9.12671,-4.29493 15.03228,-4.29492 34.89621,-4.29493 35.97002,-6.44239 68.71881,-15.56911 74.62438,-22.01149 49.39167,-18.25343 13.95847,-10.73732 23.08527,-25.76956 37.58054,-37.58061 33.2857,-30.60135 13.42165,-8.58985 11.81104,-4.29493 49.39168,-6.97925 50.46539,-3.22119 h 35.97003 l 34.89621,1.6106 19.32722,2.68432 26.30641,7.51612 13.42166,5.90553 25.76951,15.03224 30.60136,25.23269 42.41239,28.99076 10.7373,10.73731 6.4424,8.58985 -1.0737,38.65434 6.4424,6.44238 7.51612,0.53687 2.1475,-1.07373 1.0737,1.07373 -1.6106,27.91702 z"
         fill="none"
         stroke="#000000"
         stroke-width="0.536865" />
      <path
         id="part_97"
         d="m 993.86858,162.16987 5.3687,9.12672 6.44242,17.71658 2.1474,12.34791 -3.2212,2.14746 h -4.83182 l -3.2211,-1.6106 -4.295,-6.44238 z"
         fill="none"
         stroke="#000000"
         stroke-width="0.536865" />
    </g>
    <g
       id="g14">
      <path
         id="part_83"
         d="m 198.77036,286.72274 0.5369,8.05298 -1.07371,3.75807 -8.5899,10.20045 -13.42166,9.12671 -17.17966,5.90552 -19.32717,0.53687 -25.76956,-4.29493 -17.179704,-5.90552 -3.2212,-3.2212 -1.6106,-3.75805 2.68433,-9.66359 6.442394,-10.73731 11.27418,-10.20045 16.10598,-6.4424 15.5691,-2.14745 h 18.25344 l 15.56909,2.14745 8.053,2.14747 5.90556,3.75806 4.83176,5.90552 z"
         fill="none"
         stroke="#000000"
         stroke-width="0.536865" />
    </g>
  </g>
  <g
     inkscape:groupmode="layer"
     id="layer5"
     inkscape:label="_thumbs">
    <g
       id="t1"
       transform="matrix(0.57955526,0,0,0.57955526,-106.32616,327.21681)"
       style="stroke-width:1.98773108;stroke-dasharray:none">
      <path
         id="path1"
         d="m 382.37851,340.94618 13.95847,4.83179 11.27423,6.97925 12.88475,12.88479 5.36867,8.58985 5.90547,15.03223 2.68433,15.56912 -0.53681,16.10597 -3.75804,16.64283 -5.36867,12.88478 -11.81104,18.25344 -12.34794,12.34791 -14.49537,9.66359 -15.56908,6.44238 -15.03228,2.68433 -14.49537,-0.53686 -13.95856,-3.75806 -14.49537,-8.05299 -10.73723,-10.20045 -6.97928,-9.66358 -5.90557,-12.88478 -3.22114,-13.42164 -0.53691,-18.7903 4.83176,-22.54837 5.90557,-13.42164 9.66361,-14.49538 8.053,-8.58985 12.34784,-10.20045 10.20052,-5.90552 13.95847,-5.36866 12.34794,-2.14747 z"
         fill="none"
         stroke="#000000"
         stroke-width="0.536865"
         style="stroke-width:1.98773108;stroke-dasharray:none" />
      <path
         id="path2"
         d="m 357.14582,460.13038 4.29495,2.14746 1.07371,9.12672 -2.14752,3.2212 -5.36866,0.53686 -0.53681,-13.95851 z"
         fill="none"
         stroke="#000000"
         stroke-width="0.536865"
         style="stroke-width:1.98773108;stroke-dasharray:none" />
      <path
         id="path3"
         d="m 339.96612,457.44605 12.88475,3.75806 1.07371,10.20045 -2.14742,2.68433 -7.51619,0.53687 -11.27414,-4.8318 2.14743,-5.90552 z"
         fill="none"
         stroke="#000000"
         stroke-width="0.536865"
         style="stroke-width:1.98773108;stroke-dasharray:none" />
      <path
         id="path4"
         d="m 395.26327,435.97142 2.68433,2.14746 4.29495,6.97926 -6.44238,9.66358 -9.66361,9.12672 -4.83185,2.68433 -2.68424,-2.68433 9.12671,-8.05298 7.51609,-9.66359 v -3.75806 l -3.75805,-4.29493 z"
         fill="none"
         stroke="#000000"
         stroke-width="0.536865"
         style="stroke-width:1.98773108;stroke-dasharray:none" />
      <path
         id="path5"
         d="m 315.27023,428.45529 4.29495,0.53687 2.14752,1.6106 6.44238,16.64284 -9.66362,9.66358 -2.68433,-3.22119 5.36867,-5.36866 v -3.75806 l -4.83176,-8.58985 z"
         fill="none"
         stroke="#000000"
         stroke-width="0.536865"
         style="stroke-width:1.98773108;stroke-dasharray:none" />
      <path
         id="path6"
         d="m 309.90157,428.45529 3.22123,1.07374 3.75805,11.27418 2.68433,4.29493 -0.53681,3.22119 -4.29495,4.29493 -5.36866,-12.34792 -1.07372,-10.20045 z"
         fill="none"
         stroke="#000000"
         stroke-width="0.536865"
         style="stroke-width:1.98773108;stroke-dasharray:none" />
      <path
         id="path7"
         d="m 327.08127,382.82171 2.68433,2.14746 4.29495,7.51612 -7.51609,11.27418 -3.22124,8.58986 -2.14742,2.14746 h -3.22124 l -2.14743,-1.07373 3.22124,-9.12672 8.5898,-12.34791 -0.5369,-3.2212 -3.22114,-3.22119 z"
         fill="none"
         stroke="#000000"
         stroke-width="0.536865"
         style="stroke-width:1.98773108;stroke-dasharray:none" />
      <path
         id="path8"
         d="m 378.62047,367.78947 -2.14752,14.49537 9.1267,6.97925 4.29495,0.53687 12.88476,-4.83179 v -4.29493 l -9.66352,-9.12671 -9.1268,-5.36866 h -3.75805 z"
         fill="none"
         stroke="#000000"
         stroke-width="0.536865"
         style="stroke-width:1.98773108;stroke-dasharray:none" />
      <path
         id="path9"
         d="m 354.46149,380.13738 -6.97928,2.68433 -1.61062,-1.07373 2.68433,-1.6106 z"
         fill="none"
         stroke="#000000"
         stroke-width="0.536865"
         style="stroke-width:1.98773108;stroke-dasharray:none" />
      <path
         id="path10"
         d="m 357.68263,365.10514 1.07381,3.22119 -2.14753,8.05299 -3.22114,2.14746 -8.5899,1.6106 -4.83175,-7.51612 2.68433,-2.68433 5.90547,-2.68432 z"
         fill="none"
         stroke="#000000"
         stroke-width="0.536865"
         style="stroke-width:1.98773108;stroke-dasharray:none" />
      <path
         id="path11"
         d="m 365.19881,364.56827 1.61052,1.6106 -1.07371,9.66359 -3.22114,3.22118 -4.83185,0.53687 2.14752,-14.49537 z"
         fill="none"
         stroke="#000000"
         stroke-width="0.536865"
         style="stroke-width:1.98773108;stroke-dasharray:none" />
      <path
         id="path12"
         d="m 379.69418,336.65126 9.12671,3.75805 0.53681,1.6106 -13.42156,-3.2212 h -15.03228 l -15.03227,3.2212 -15.56909,6.97925 -15.03227,10.73732 -6.97919,6.97926 -8.05299,10.20045 -7.51619,13.42164 -5.90547,16.10598 -2.68433,14.49537 0.53681,20.93776 3.22124,12.88478 5.90556,13.42164 8.58981,11.81105 10.20042,9.12672 12.34794,6.97926 -5.90547,-0.53687 -11.81114,-4.83179 -14.49537,-9.12672 -11.81104,-10.73732 -8.05299,-11.27418 -6.44238,-15.03224 -2.68433,-12.88478 v -18.7903 l 2.68433,-14.49538 6.44238,-16.10597 9.66361,-15.5691 12.88475,-13.95852 11.81104,-8.58985 10.20052,-5.36866 14.49537,-4.83179 12.88475,-1.61059 18.25342,0.53686 z"
         fill="none"
         stroke="#000000"
         stroke-width="0.536865"
         style="stroke-width:1.98773108;stroke-dasharray:none" />
      <path
         id="path13"
         d="m 379.69418,359.19961 17.1797,8.58986 8.58981,8.58985 6.97928,11.27418 4.83176,17.71657 v 13.95851 l -3.22114,15.03224 -5.36867,11.81105 -5.90556,9.12672 -10.73733,11.27418 -9.12671,6.44239 -13.95846,6.44238 -10.20042,2.14747 H 346.9453 l -9.66352,-2.14747 -15.56908,-8.58985 -8.05299,-8.05298 -5.90557,-9.12672 -3.75805,-9.66358 -2.14742,-13.95852 0.53681,-11.27418 2.14742,-10.73731 6.44247,-15.03224 6.97919,-10.20045 11.81104,-11.81105 16.10599,-9.12672 10.20051,-3.2212 18.25342,-0.53685 z"
         fill="none"
         stroke="#000000"
         stroke-width="0.536865"
         style="stroke-width:1.98773108;stroke-dasharray:none" />
      <path
         id="path14"
         d="m 331.37622,467.10963 v 3.75806 l 9.66361,4.29493 13.95847,1.61059 6.44247,-0.53685 2.14742,-2.68434 -0.5369,-12.34791 -2.14743,-2.14747 h -10.73732 l -10.73733,-3.22118 -2.68433,1.61059 -0.53681,2.68433 z"
         fill="none"
         stroke="#000000"
         stroke-width="0.536865"
         style="stroke-width:1.98773108;stroke-dasharray:none" />
      <path
         id="path15"
         d="m 396.33698,434.36082 -4.83176,0.53687 -4.83185,8.05299 -10.73723,10.20045 2.14742,13.42164 2.14743,1.61059 3.22124,-0.53686 7.51609,-5.90552 12.34794,-14.49538 v -4.29492 z"
         fill="none"
         stroke="#000000"
         stroke-width="0.536865"
         style="stroke-width:1.98773108;stroke-dasharray:none" />
      <path
         id="path16"
         d="m 390.96832,439.72948 2.68433,3.2212 -0.53681,3.75806 -5.36866,6.97925 -9.12671,8.05299 -1.61062,-5.90552 1.07371,-2.68433 7.51609,-6.44239 z"
         fill="none"
         stroke="#000000"
         stroke-width="0.536865"
         style="stroke-width:1.98773108;stroke-dasharray:none" />
      <path
         id="path17"
         d="m 308.29104,426.84471 -1.61061,4.29492 3.75804,16.10597 5.90557,10.73731 h 4.29485 l 8.5899,-8.58985 v -4.29492 l -4.83185,-8.58985 -1.07372,-6.97926 -1.61052,-1.6106 z"
         fill="none"
         stroke="#000000"
         stroke-width="0.536865"
         style="stroke-width:1.98773108;stroke-dasharray:none" />
      <path
         id="path18"
         d="m 401.16874,399.46454 2.14752,9.12672 v 8.053 l -1.61062,5.90552 -3.75804,-2.14747 -1.61062,-17.71657 z"
         fill="none"
         stroke="#000000"
         stroke-width="0.536865"
         style="stroke-width:1.98773108;stroke-dasharray:none" />
      <path
         id="path19"
         d="m 405.46369,398.39081 4.29495,1.6106 1.61062,6.4424 -0.53691,16.10597 -2.68433,2.14746 -4.29495,-1.6106 0.5369,-15.03224 -1.07371,-8.58986 z"
         fill="none"
         stroke="#000000"
         stroke-width="0.536865"
         style="stroke-width:1.98773108;stroke-dasharray:none" />
      <path
         id="path20"
         d="m 329.22879,381.74798 h -4.83185 l -6.97919,9.12671 -8.5899,18.25344 1.07372,4.83179 8.05299,1.6106 6.44238,-1.07373 0.5369,-3.75806 4.29495,-9.12672 6.44238,-8.05299 v -3.75806 z"
         fill="none"
         stroke="#000000"
         stroke-width="0.536865"
         style="stroke-width:1.98773108;stroke-dasharray:none" />
      <path
         id="path21"
         d="m 322.78641,386.57977 3.22114,4.29492 -0.5368,2.14747 -5.36867,6.97925 -4.29495,10.73732 -2.68433,2.68433 -2.68433,-2.14747 1.61062,-6.97925 5.36866,-10.73732 z"
         fill="none"
         stroke="#000000"
         stroke-width="0.536865"
         style="stroke-width:1.98773108;stroke-dasharray:none" />
      <path
         id="path22"
         d="m 379.69418,370.47379 1.07372,-0.53686 4.83175,3.22119 6.97929,6.97926 0.5369,2.68433 -2.68433,2.14746 -5.36866,1.6106 -4.83186,-3.2212 -2.68433,-3.22119 z"
         fill="none"
         stroke="#000000"
         stroke-width="0.536865"
         style="stroke-width:1.98773108;stroke-dasharray:none" />
      <path
         id="path23"
         d="m 380.7679,368.32633 3.22114,-0.53686 7.51618,4.29492 10.20042,10.73732 -2.68433,2.68433 -11.27413,2.68432 v -1.61059 l 5.36866,-1.07373 1.61052,-1.6106 v -3.75806 z"
         fill="none"
         stroke="#000000"
         stroke-width="0.536865"
         style="stroke-width:1.98773108;stroke-dasharray:none" />
      <path
         id="path24"
         d="m 367.34624,363.49454 -11.81104,0.53687 -15.56908,5.36865 -1.61062,2.14747 0.5369,3.75806 6.44238,8.58985 19.32713,-3.75806 1.61062,-1.6106 2.14742,-10.73731 z"
         fill="none"
         stroke="#000000"
         stroke-width="0.536865"
         style="stroke-width:1.98773108;stroke-dasharray:none" />
      <path
         id="path25"
         d="m 396.33698,399.46454 -1.61062,2.14747 2.14752,13.42165 -0.5369,6.44238 1.61062,1.6106 9.12671,2.68433 4.29495,-0.53686 1.61061,-10.73732 -1.61061,-15.56911 -1.61062,-1.61059 h -4.29495 z"
         fill="none"
         stroke="#000000"
         stroke-width="0.536865"
         style="stroke-width:1.98773108;stroke-dasharray:none" />
      <path
         id="path26"
         d="m 381.84161,358.66274 -12.34794,-2.14745 -10.20043,0.53687 -12.88475,3.22118 -10.20042,4.8318 -11.27423,8.05298 -7.51609,8.05299 -6.97928,10.20045 -5.36866,11.27418 -4.29495,20.93777 0.5369,12.88478 3.22114,12.88477 3.22124,6.97926 6.44237,9.12672 9.12671,8.58985 11.81104,5.90552 10.20052,2.68433 h 13.42166 l 12.88475,-2.68433 7.51609,-3.2212 11.81104,-7.51612 9.12671,-8.58985 8.05299,-10.73731 6.44238,-13.42164 3.75814,-15.56911 0.53681,-9.66359 -1.61062,-13.42164 -3.22114,-9.66359 -4.83186,-9.12672 -9.1267,-10.20045 -7.51609,-5.90552 z"
         fill="none"
         stroke="#000000"
         stroke-width="0.536865"
         style="stroke-width:1.98773108;stroke-dasharray:none" />
      <path
         id="path27"
         d="m 472.57197,379.06364 3.22114,17.71658 -0.5368,15.03224 -18.25352,-4.83179 -20.93774,-1.07373 -4.83176,-22.54837 -6.97928,-14.49538 -13.95847,-16.10597 -11.81104,-8.58985 -16.64289,-8.05298 -18.79032,-4.29493 -19.86403,-0.53687 -17.71651,3.2212 -11.27424,4.29492 -13.42165,8.053 -6.97919,5.36865 -10.73732,11.27418 -7.51619,10.73732 -7.51609,15.5691 -3.22123,10.20045 -2.68424,16.64285 v 10.7373 l 2.14743,12.88478 -11.27423,2.68434 -11.27414,6.44238 -1.07371,-0.53687 2.14743,-19.32716 5.90556,-24.15896 6.97919,-17.71657 13.42166,-24.15896 12.34794,-16.10597 8.5898,-9.12672 9.66361,-7.51612 17.17971,-10.20045 20.40093,-8.05299 20.93775,-4.29492 25.2327,-0.53687 18.25341,2.68433 18.79032,6.97926 16.6428,10.20045 17.71661,17.1797 8.5898,12.88478 z"
         fill="none"
         stroke="#000000"
         stroke-width="0.536865"
         style="display:none;stroke-width:1.98773108;stroke-dasharray:none" />
    </g>
    <g
       id="t2"
       transform="matrix(0.71195033,0,0,0.71195033,-581.49277,470.41325)"
       style="stroke-width:1.61809041;stroke-dasharray:none">
      <path
         id="path28"
         d="m 956.82488,288.8702 5.90547,3.22119 7.51618,7.51612 5.36865,11.27418 1.6105,7.51613 v 15.03224 l -2.6843,11.81105 -6.97918,14.49537 -10.73732,12.34791 -13.95857,7.51612 -11.27414,0.53687 -10.73732,-5.36866 -4.83176,-4.83179 -4.83186,-8.58985 -3.22114,-11.81105 v -13.42164 l 1.61062,-9.12672 3.22114,-9.66358 4.29495,-8.053 12.88475,-14.49537 12.88476,-6.44238 9.1268,-0.53687 z"
         fill="none"
         stroke="#000000"
         stroke-width="0.536865"
         style="stroke-width:1.61809041;stroke-dasharray:none" />
      <path
         id="path29"
         d="m 959.50921,355.97842 2.68433,3.75806 -8.05299,8.05299 -1.07372,-2.14746 5.90547,-5.90553 -0.5368,-3.22119 z"
         fill="none"
         stroke="#000000"
         stroke-width="0.536865"
         style="stroke-width:1.61809041;stroke-dasharray:none" />
      <path
         id="path30"
         d="m 914.94928,336.65126 3.22123,1.07373 0.53691,8.58985 2.14743,6.44238 -2.68434,3.2212 -2.14742,-0.53686 1.61052,-1.6106 v -2.14747 l -2.68433,-6.97925 z"
         fill="none"
         stroke="#000000"
         stroke-width="0.536865"
         style="stroke-width:1.61809041;stroke-dasharray:none" />
      <path
         id="path31"
         d="m 971.32025,328.0614 1.61062,1.07373 -0.53691,8.58986 -2.68433,8.58985 -2.14743,2.14746 -2.14752,-2.14746 2.14752,-5.36866 1.61062,-11.27419 z"
         fill="none"
         stroke="#000000"
         stroke-width="0.536865"
         style="stroke-width:1.61809041;stroke-dasharray:none" />
      <path
         id="path32"
         d="m 927.83413,304.43931 3.22114,3.75806 -5.36867,6.97925 -3.75804,7.51612 -3.75805,1.6106 -0.5369,-1.07373 2.68433,-5.90552 6.97928,-8.58985 z"
         fill="none"
         stroke="#000000"
         stroke-width="0.536865"
         style="stroke-width:1.61809041;stroke-dasharray:none" />
      <path
         id="path33"
         d="m 961.65664,302.29184 4.83185,9.12672 -0.5369,3.2212 -2.14743,-0.53687 -4.83186,-8.05298 z"
         fill="none"
         stroke="#000000"
         stroke-width="0.536865"
         style="stroke-width:1.61809041;stroke-dasharray:none" />
      <path
         id="path34"
         d="m 963.26725,300.14438 6.97928,9.66358 1.61062,4.8318 -1.61062,1.6106 h -3.22123 l 1.07371,-3.75807 -5.90547,-11.27418 z"
         fill="none"
         stroke="#000000"
         stroke-width="0.536865"
         style="stroke-width:1.61809041;stroke-dasharray:none" />
      <path
         id="path35"
         d="m 948.23497,293.70199 -0.53681,4.29493 -2.68433,3.22119 h -8.053 l -1.07371,-2.68432 1.07371,-2.14747 6.97929,-2.68433 z"
         fill="none"
         stroke="#000000"
         stroke-width="0.536865"
         style="stroke-width:1.61809041;stroke-dasharray:none" />
      <path
         id="path36"
         d="m 951.45621,270.61676 v 1.07373 l -7.51609,0.53687 -9.66362,3.2212 -12.88475,8.58985 -11.81104,13.42164 -8.5899,16.64284 -5.36866,22.0115 -0.53691,11.27418 2.14753,15.5691 3.22114,9.12672 7.51618,12.34792 5.36867,4.83178 8.5898,4.8318 -3.22114,0.53687 -12.88485,-3.2212 -10.73733,-4.83179 -9.66351,-8.05299 -6.97928,-10.73731 -4.29495,-14.49538 4.83185,-4.29493 1.61052,-3.22119 2.68434,-12.88478 9.1268,-24.69582 4.83176,-10.20045 10.20042,-15.56911 13.42166,-13.42164 20.40093,-0.53687 z"
         fill="none"
         stroke="#000000"
         stroke-width="0.536865"
         style="stroke-width:1.61809041;stroke-dasharray:none" />
      <path
         id="path37"
         d="m 923.53918,266.85871 10.73732,-6.97927 18.25342,-7.51612 h 12.34795 l 10.73731,4.29494 11.2741,10.73731 8.053,16.10597 2.1475,10.20045 -1.0737,18.25344 -1.0738,1.07373 -6.4423,-2.68433 -2.1475,-10.73732 -2.6843,-5.90552 -5.9056,-9.12672 -7.51605,-6.97925 -10.20051,-5.36866 -13.95848,-4.29492 z"
         fill="none"
         stroke="#000000"
         stroke-width="0.536865"
         style="display:inline;stroke-width:1.61809041;stroke-dasharray:none" />
      <path
         id="path38"
         d="m 957.36169,273.30109 13.42165,6.44239 6.97924,6.97926 6.4424,11.27418 4.295,16.64284 v 17.1797 l -2.1475,11.81105 -4.2949,12.34791 -7.5162,13.95851 -13.95846,15.03224 -15.03228,8.58985 -7.51609,1.6106 -12.88475,-1.07373 -10.20052,-5.36866 -8.0529,-8.05299 -6.97928,-12.88477 -3.22124,-15.03225 v -15.5691 l 2.68433,-13.95851 4.29495,-11.81105 5.90557,-11.27418 5.90547,-8.05299 8.053,-8.05298 7.51609,-5.36866 9.66361,-4.29493 9.66361,-1.6106 z"
         fill="none"
         stroke="#000000"
         stroke-width="0.536865"
         style="stroke-width:1.61809041;stroke-dasharray:none" />
      <path
         id="path39"
         d="m 956.82488,287.2596 h -13.95857 l -5.36867,1.6106 -9.1267,5.36866 -11.27414,12.34791 -8.05299,17.71657 -2.68433,17.1797 2.68433,18.25344 7.51609,12.88478 4.83185,4.29493 6.44238,3.22119 6.97918,1.6106 6.97928,-0.53687 10.73733,-4.29492 12.88476,-11.81105 4.83185,-6.97925 4.83175,-10.73732 3.758,-18.25344 -0.5368,-11.27418 -2.6843,-10.73731 -6.97926,-11.81105 -4.83176,-4.29493 z"
         fill="none"
         stroke="#000000"
         stroke-width="0.536865"
         style="stroke-width:1.61809041;stroke-dasharray:none" />
      <path
         id="path40"
         d="m 934.81331,365.64201 3.22124,2.68432 0.5369,3.75806 -1.61062,2.68433 -2.68433,-0.53686 z"
         fill="none"
         stroke="#000000"
         stroke-width="0.536865"
         style="stroke-width:1.61809041;stroke-dasharray:none" />
      <path
         id="path41"
         d="m 920.31794,366.17887 7.51619,-3.75806 4.83176,2.68433 1.07371,5.90552 -2.14743,2.68433 h -1.61062 l -6.44237,-3.75806 z"
         fill="none"
         stroke="#000000"
         stroke-width="0.536865"
         style="stroke-width:1.61809041;stroke-dasharray:none" />
      <path
         id="path42"
         d="m 960.58292,354.36782 h -4.29495 l -5.90548,5.90552 -0.5369,3.2212 2.68433,5.36865 h 3.75805 l 7.51619,-8.05298 v -2.68432 z"
         fill="none"
         stroke="#000000"
         stroke-width="0.536865"
         style="stroke-width:1.61809041;stroke-dasharray:none" />
      <path
         id="path43"
         d="m 956.28797,357.05216 1.07372,1.61058 -4.83177,4.8318 -1.07371,-1.07373 0.5369,-1.6106 z"
         fill="none"
         stroke="#000000"
         stroke-width="0.536865"
         style="stroke-width:1.61809041;stroke-dasharray:none" />
      <path
         id="path44"
         d="m 911.72814,335.04066 -1.07372,1.07373 v 8.58985 l 2.14743,11.81105 1.07371,1.07373 7.51619,-1.07373 1.07371,-3.75807 -2.68433,-6.97925 v -8.58985 l -1.07371,-1.6106 z"
         fill="none"
         stroke="#000000"
         stroke-width="0.536865"
         style="stroke-width:1.61809041;stroke-dasharray:none" />
      <path
         id="path45"
         d="m 912.80185,337.18812 3.22124,14.49537 -1.07381,2.14747 -1.61052,-0.53687 -1.61062,-12.88478 z"
         fill="none"
         stroke="#000000"
         stroke-width="0.536865"
         style="stroke-width:1.61809041;stroke-dasharray:none" />
      <path
         id="path46"
         d="m 973.46768,326.98767 -7.51609,0.53687 -0.53691,6.97925 -3.22114,11.81105 4.29495,3.75805 3.75804,-0.53686 3.75805,-13.42164 0.5368,-8.05299 z"
         fill="none"
         stroke="#000000"
         stroke-width="0.536865"
         style="stroke-width:1.61809041;stroke-dasharray:none" />
      <path
         id="path47"
         d="m 967.5622,329.13513 0.53681,3.75806 -1.07371,3.2212 z"
         fill="none"
         stroke="#000000"
         stroke-width="0.536865"
         style="stroke-width:1.61809041;stroke-dasharray:none" />
      <path
         id="path48"
         d="m 928.90784,302.82871 h -3.75804 l -6.44238,9.12672 -4.83186,9.66358 1.07372,3.2212 6.97928,0.53686 5.36866,-10.20045 4.83186,-4.83179 0.53681,-3.22119 z"
         fill="none"
         stroke="#000000"
         stroke-width="0.536865"
         style="stroke-width:1.61809041;stroke-dasharray:none" />
      <path
         id="path49"
         d="m 925.1498,305.51304 0.5368,2.68433 -7.51609,10.20045 v -2.68433 z"
         fill="none"
         stroke="#000000"
         stroke-width="0.536865"
         style="stroke-width:1.61809041;stroke-dasharray:none" />
      <path
         id="path50"
         d="m 961.11983,299.07065 v 1.61059 l -3.75814,4.8318 0.5369,2.68433 6.97928,10.20045 7.51609,-1.07373 0.53691,-3.75807 -4.29495,-9.66358 -3.22124,-4.83179 z"
         fill="none"
         stroke="#000000"
         stroke-width="0.536865"
         style="stroke-width:1.61809041;stroke-dasharray:none" />
      <path
         id="path51"
         d="m 954.14055,292.62826 -8.58991,-0.53687 -10.73733,3.2212 -0.53681,3.75806 3.22114,5.90552 6.97928,-1.6106 6.97929,0.53687 3.22115,-8.05298 z"
         fill="none"
         stroke="#000000"
         stroke-width="0.536865"
         style="stroke-width:1.61809041;stroke-dasharray:none" />
      <path
         id="path52"
         d="m 951.99311,293.70199 1.07372,1.07373 -1.07372,5.90552 -1.61062,1.6106 h -2.14752 l 1.07381,-6.97925 1.07371,-1.6106 z"
         fill="none"
         stroke="#000000"
         stroke-width="0.536865"
         style="stroke-width:1.61809041;stroke-dasharray:none" />
      <path
         id="path53"
         d="m 918.70742,364.56827 v 3.2212 l 6.97918,5.36865 8.053,2.68434 h 5.36866 l -0.53681,-10.73732 -6.44237,-1.6106 -3.75814,-2.68433 h -2.68434 z"
         fill="none"
         stroke="#000000"
         stroke-width="0.536865"
         style="stroke-width:1.61809041;stroke-dasharray:none" />
      <path
         id="path54"
         d="m 1018.0276,245.92094 2.1474,5.36865 v 5.36867 l -4.2949,24.15895 -10.7373,27.38016 -3.2212,5.90552 -3.22122,2.68433 -2.1474,-2.68433 1.6106,-6.97925 v -15.03225 l -3.2213,-12.34791 -8.053,-15.03224 -8.5898,-8.05298 17.1797,-3.2212 z"
         fill="none"
         stroke="#000000"
         stroke-width="0.536865"
         style="stroke-width:1.61809041;stroke-dasharray:none" />
    </g>
    <g
       id="t3"
       transform="matrix(0.58633907,0,0,0.58633907,406.64092,536.60811)"
       style="stroke-width:1.96473348;stroke-dasharray:none">
      <path
         id="path55"
         d="m 621.28373,74.66076 -38.11745,34.35941 -28.45384,28.45388 -34.89631,37.58061 -5.36866,3.75806 -13.95856,5.90552 -5.90548,1.07373 -24.15898,-0.53686 -24.15898,-2.68434 -31.13817,-5.36865 -49.39168,-13.95851 -35.97002,-15.03224 19.86403,-6.4424 25.7696,-11.81103 13.42166,-7.51613 20.40084,-15.03224 37.58064,-23.6221 41.33869,-22.01149 12.34785,-4.29493 15.56918,-2.68432 h 12.34784 l 27.91703,3.22119 39.19126,8.05298 z"
         fill="none"
         stroke="#000000"
         stroke-width="0.536865"
         style="stroke-width:1.96473348;stroke-dasharray:none" />
    </g>
    <g
       id="t4"
       transform="matrix(0.56790643,0,0,0.56790643,564.50479,555.70879)"
       style="stroke-width:2.02850318;stroke-dasharray:none">
      <path
         id="path56"
         d="m 769.45867,63.38657 h 9.66361 l 3.75804,8.053 14.49538,53.68657 6.44237,38.11747 0.53691,12.34791 -15.03228,1.6106 -0.53681,-25.76955 -3.75804,-30.60135 -6.44247,-28.990746 -9.66352,-27.380164 z"
         fill="none"
         stroke="#000000"
         stroke-width="0.536865"
         style="stroke-width:2.02850318;stroke-dasharray:none" />
      <path
         id="path57"
         d="m 788.24899,177.20212 -159.44908,16.64284 -0.5369,-2.68433 4.29495,-9.66359 2.14742,-12.3479 v -9.66359 l -3.22114,-5.90553 -9.1268,-6.97925 -10.73723,-1.6106 -18.25351,1.07374 -8.053,3.22119 -2.68433,2.68432 v -16.10596 l 22.54837,-22.54837 31.67517,-28.99075 10.73723,-8.05299 9.1268,-4.29492 30.06445,-5.36866 27.91703,-2.68433 52.07592,-1.07372 9.1267,24.15895 8.053,34.35941 3.22123,24.15896 z"
         fill="none"
         stroke="#000000"
         stroke-width="0.536865"
         style="stroke-width:2.02850318;stroke-dasharray:none" />
    </g>
    <g
       id="t5"
       transform="matrix(0.57308598,0,0,0.57308598,329.23238,578.34745)"
       style="stroke-width:2.01016957;stroke-dasharray:none">
      <path
         id="path58"
         d="m 790.93332,64.99717 18.25341,0.53687 22.54837,4.29493 18.25351,6.97925 17.71651,10.20045 23.08527,19.86403 19.32713,23.6221 5.36866,11.27417 -0.5369,5.36867 -2.14743,4.83178 -5.90547,5.36867 -8.05299,2.68433 -51.0023,9.66358 -29.52765,4.29492 -3.22114,-24.69582 -6.97928,-34.35941 -10.20042,-33.28567 z"
         fill="none"
         stroke="#000000"
         stroke-width="0.536865"
         style="stroke-width:2.01016957;stroke-dasharray:none" />
      <path
         id="path59"
         d="m 781.80661,63.38657 6.97928,0.53687 1.07372,1.07373 11.81103,31.138224 8.053,30.601346 4.83176,26.30642 2.14752,20.4009 -2.14752,1.07373 -8.053,0.53687 -1.07371,-2.14747 -1.07371,-13.9585 -6.44238,-36.50688 -9.12671,-35.97001 -7.51618,-21.47463 z"
         fill="none"
         stroke="#000000"
         stroke-width="0.536865"
         style="stroke-width:2.01016957;stroke-dasharray:none" />
    </g>
    <g
       id="t6"
       transform="matrix(0.95462746,0,0,0.95462746,-192.12622,409.01276)"
       style="stroke-width:1.20675347;stroke-dasharray:none">
      <path
         id="path60"
         d="m 584.77689,151.96942 10.73733,-4.83178 20.40084,-0.53687 8.5899,3.2212 5.36866,4.83179 3.75805,6.97925 -0.53691,11.27418 -4.29485,15.03225 -2.14752,4.29492 -3.75805,3.75806 -2.68433,1.07373 -4.29495,-0.53686 3.22124,-8.05299 2.14743,-12.88478 v -8.05298 l -4.29486,-7.51612 -10.20052,-6.4424 -9.66351,-1.07373 -12.88485,1.07373 z"
         fill="none"
         stroke="#000000"
         stroke-width="0.536865"
         style="stroke-width:1.20675347;stroke-dasharray:none" />
      <path
         id="path61"
         d="m 581.01885,137.47405 v 15.56911 l -5.36866,7.51613 -2.14753,13.42163 -3.75804,2.68433 h -5.36866 l -5.36867,-2.14746 -5.36866,0.53687 -6.44238,10.73731 -4.83175,17.1797 -1.07372,1.07374 -13.95856,1.6106 -0.53681,-2.14747 3.22114,-8.05298 6.44238,-10.20045 z"
         fill="none"
         stroke="#000000"
         stroke-width="0.536865"
         style="stroke-width:1.20675347;stroke-dasharray:none" />
      <path
         id="path62"
         d="m 574.03957,178.27585 0.5369,6.97926 -14.49546,3.75806 -15.03218,6.97925 2.14742,-6.97925 7.51619,-12.34792 3.75804,-0.53686 5.90548,2.14746 8.5899,-1.07373 z"
         fill="none"
         stroke="#000000"
         stroke-width="0.536865"
         style="stroke-width:1.20675347;stroke-dasharray:none" />
      <path
         id="path63"
         d="m 581.55566,155.19062 5.36866,-1.07373 17.1797,0.53687 8.053,3.75806 5.36866,5.36865 2.68433,5.36867 -1.61062,16.64283 -4.29485,11.27418 -11.81113,-1.61059 h -17.71652 l -4.29495,-4.29493 -5.36866,-11.27418 v -11.27418 l 1.61062,-5.90553 z"
         fill="none"
         stroke="#000000"
         stroke-width="0.536865"
         style="stroke-width:1.20675347;stroke-dasharray:none" />
      <path
         id="path64"
         d="m 581.55566,194.91869 -1.61062,1.07373 h -6.97918 l -3.22124,1.6106 -5.36866,6.97925 -6.97919,3.2212 -9.66361,0.53687 -3.22124,-2.14747 -1.07371,-2.68433 1.07371,-4.29492 4.83186,-3.75806 12.88475,-5.90552 9.12671,-2.68434 h 4.83176 z"
         fill="none"
         stroke="#000000"
         stroke-width="0.536865"
         style="stroke-width:1.20675347;stroke-dasharray:none" />
      <path
         id="path65"
         d="m 570.81833,199.75049 4.83186,-2.68434 h 21.47465 l -23.08527,3.2212 z"
         fill="none"
         stroke="#000000"
         stroke-width="0.536865"
         style="stroke-width:1.20675347;stroke-dasharray:none" />
    </g>
    <g
       id="t7"
       transform="matrix(0.45533408,0,0,0.45533408,190.40343,545.95852)"
       style="stroke-width:2.53001049;stroke-dasharray:none">
      <path
         id="path66"
         d="m 814.01859,192.77122 4.83176,15.56912 1.61061,11.27418 v 11.81104 l -4.29494,23.6221 v 19.32716 l -1.07372,1.07374 -294.73936,40.8018 1.61062,-64.96077 3.22123,-40.80179 1.61062,-3.75806 15.03218,-1.6106 3.75805,4.29493 14.49537,-0.53687 5.36866,-2.68433 4.83185,-4.83179 35.97003,-4.29493 13.95846,1.6106 10.20042,-4.29493 165.35465,-16.10597 9.1268,-1.6106 z"
         fill="none"
         stroke="#000000"
         stroke-width="0.536865"
         style="stroke-width:2.53001049;stroke-dasharray:none" />
      <path
         id="path67"
         d="m 816.16602,277.05915 1.07371,17.17971 -2.14743,22.0115 -3.75804,15.5691 -5.36867,12.88478 -135.82709,19.86403 -148.17494,24.69582 -1.61062,-36.50687 0.5369,-34.89627 279.70709,-39.72806 z"
         fill="none"
         stroke="#000000"
         stroke-width="0.536865"
         style="stroke-width:2.53001049;stroke-dasharray:none" />
      <path
         id="path68"
         d="m 797.3757,216.39332 -3.22114,5.90552 -7.51619,2.14747 -15.56908,1.07373 -3.75805,-1.07373 -4.29495,-4.29492 1.61062,-1.07374 2.68433,3.22119 2.68433,1.07373 19.86404,-2.14746 2.68433,-1.61059 2.14742,-3.75806 z"
         fill="none"
         stroke="#000000"
         stroke-width="0.536865"
         style="stroke-width:2.53001049;stroke-dasharray:none" />
      <path
         id="path69"
         d="m 796.83889,212.09839 -0.53691,2.68433 -34.3594,2.68433 1.07371,-5.90552 4.29495,-2.14746 24.69579,-2.14747 z"
         fill="none"
         stroke="#000000"
         stroke-width="0.536865"
         style="stroke-width:2.53001049;stroke-dasharray:none" />
      <path
         id="path70"
         d="m 792.00703,216.93019 -4.83176,3.2212 -16.64279,1.61059 -3.22124,-2.68433 19.32713,-2.68433 z"
         fill="none"
         stroke="#000000"
         stroke-width="0.536865"
         style="stroke-width:2.53001049;stroke-dasharray:none" />
      <path
         id="path71"
         d="m 798.44941,211.56153 -1.07371,-2.68433 -4.83176,-3.22119 -28.45394,2.68433 -3.22114,2.68432 -0.5369,6.44239 1.61062,4.83179 6.44237,4.29493 25.76961,-2.14746 4.29485,-5.36866 z"
         fill="none"
         stroke="#000000"
         stroke-width="0.536865"
         style="stroke-width:2.53001049;stroke-dasharray:none" />
    </g>
    <g
       id="t8"
       style="display:inline;stroke-width:3.06453153;stroke-dasharray:none"
       transform="matrix(0.3759139,0,0,0.3759139,242.97675,639.86061)">
      <path
         id="path72"
         d="m 881.66368,336.11439 -4.29495,11.81105 -4.29495,3.75805 -4.29494,1.6106 -178.2394,25.23269 -132.06896,21.47463 -73.55066,13.42165 h -5.36866 l -2.68433,-4.29493 0.5369,-10.20045 24.69579,-4.83179 227.09427,-37.5806 150.85928,-21.47463 z"
         fill="none"
         stroke="#000000"
         stroke-width="0.536865"
         style="stroke-width:3.06453153;stroke-dasharray:none" />
      <path
         id="path73"
         d="m 518.74242,317.86095 2.14742,71.40314 -3.75804,1.6106 -39.72807,6.97926 -3.75804,-19.32717 -8.5899,-20.93776 -10.20042,-15.03224 -12.88476,-12.88479 1.07372,-1.07372 z"
         fill="none"
         stroke="#000000"
         stroke-width="0.536865"
         style="stroke-width:3.06453153;stroke-dasharray:none" />
      <path
         id="path74"
         d="m 505.85757,333.43006 v 1.6106 l -4.29485,2.68433 -17.17971,1.61059 -1.61061,-1.61059 1.07371,-2.68433 17.71661,-3.2212 h 2.68433 z"
         fill="none"
         stroke="#000000"
         stroke-width="0.536865"
         style="stroke-width:3.06453153;stroke-dasharray:none" />
      <path
         id="path75"
         d="m 929.98155,260.95318 -14.49537,10.73731 -13.42165,15.56911 -11.81104,22.54836 -8.58981,24.15896 -73.55066,9.66359 4.83186,-12.88478 4.29485,-20.4009 1.07371,-12.34791 -0.53681,-22.0115 108.98378,-15.56911 z"
         fill="none"
         stroke="#000000"
         stroke-width="0.536865"
         style="stroke-width:3.06453153;stroke-dasharray:none" />
      <path
         id="path76"
         d="m 507.46819,332.35633 -1.07372,-1.6106 -3.22123,-0.53687 -20.40084,3.2212 -1.61062,2.14746 v 3.22119 l 1.61062,2.14747 22.01146,-2.68433 2.68433,-2.14746 z"
         fill="none"
         stroke="#000000"
         stroke-width="0.536865"
         style="stroke-width:3.06453153;stroke-dasharray:none" />
    </g>
    <g
       id="t9"
       transform="matrix(0.59010876,0,0,0.59010876,119.98991,563.82477)"
       style="stroke-width:1.95218251;stroke-dasharray:none">
      <path
         id="path77"
         d="m 511.76314,53.72299 17.7166,-5.36865 12.88476,-1.6106 76.7718,-4.29492 82.14046,0.53687 65.49758,4.83178 31.13826,4.29493 -63.88705,0.53687 -61.20272,5.36865 -27.38012,4.29493 -11.27414,4.29492 -11.27423,6.97925 -28.99074,-9.12671 -37.04373,-7.51612 -26.84332,-3.2212 z"
         fill="none"
         stroke="#000000"
         stroke-width="0.536865"
         style="stroke-width:1.95218251;stroke-dasharray:none" />
    </g>
    <g
       id="t10"
       style="display:inline;stroke-width:1.7820208;stroke-dasharray:none"
       transform="matrix(0.6464571,0,0,0.6464571,148.33672,433.10772)">
      <path
         id="path78"
         d="m 64.553947,230.88869 29.527619,34.35942 2.68433,6.44238 -1.07374,3.75807 -12.88477,16.10597 -7.51612,13.42164 -15.569106,-21.47463 -11.811048,-19.86403 9.663583,-22.54837 z"
         fill="none"
         stroke="#000000"
         stroke-width="0.536865"
         style="stroke-width:1.7820208;stroke-dasharray:none" />
      <path
         id="path79"
         d="m 31.805133,275.98542 8.052994,-7.51612 6.979252,-3.22119 19.864034,31.13821 9.663583,12.88477 6.44239,6.4424 19.327164,13.42164 12.34792,5.90553 10.20045,3.22119 18.7903,3.22119 49.39167,1.6106 47.78106,-0.53686 45.09673,-2.14747 -11.81104,13.95851 -66.03457,2.14747 h -76.2349 l -21.47463,-4.29493 -16.642844,-5.90552 -11.81105,-5.90553 -7.51611,-6.44239 L 58.111562,317.32409 45.763646,301.21811 34.489464,282.96467 Z"
         fill="none"
         stroke="#000000"
         stroke-width="0.536865"
         style="stroke-width:1.7820208;stroke-dasharray:none" />
    </g>
    <g
       id="t11"
       transform="matrix(0.52643617,0,0,0.52643617,140.00449,518.64906)"
       style="stroke-width:2.18829949;stroke-dasharray:none">
      <path
         id="path80"
         d="m 29.657677,279.20662 h 1.610599 l 16.105969,26.84329 13.958505,17.1797 13.958516,13.95851 4.83179,3.75806 12.88477,6.44239 12.884784,4.83179 24.69583,5.36866 h 84.82481 l 57.44458,-2.14746 -13.42156,22.0115 -6.97928,14.49537 -5.90557,16.10597 -4.83176,20.40089 -2.68433,24.15897 -4.83176,2.14746 -46.70735,0.53687 -53.68659,-4.8318 -16.10597,-3.75805 -12.88478,-4.8318 -15.032234,-7.51612 -13.95852,-9.66358 -10.200446,-9.66358 -7.516118,-10.20045 -17.179703,-31.13822 -4.29493,-10.73732 0.536866,-1.07373 8.052985,12.34792 13.421648,16.64283 22.011498,20.4009 10.7373,6.97926 17.716584,6.44239 20.93777,1.07373 3.22119,-3.22119 v -5.90552 L 109.11381,400.53828 84.954846,382.28484 68.312011,367.78947 46.837379,346.31484 l -3.221198,-7.51613 1.610599,-19.32717 -0.536866,-8.05298 -2.684332,-5.36865 -15.032237,-13.42165 v -5.36866 z"
         fill="none"
         stroke="#000000"
         stroke-width="0.536865"
         style="display:inline;stroke-width:2.18829949;stroke-dasharray:none" />
      <path
         id="path81"
         d="m 182.66447,372.62126 3.75804,-4.29493 16.10599,-3.22119 13.42156,1.07373 5.90557,2.14746 2.14743,2.14746 -1.61053,3.2212 -4.29495,2.14747 -10.20051,2.14746 -16.1059,-0.53686 -6.97928,-2.68434 z"
         fill="none"
         stroke="#000000"
         stroke-width="0.536865"
         style="display:inline;stroke-width:2.18829949;stroke-dasharray:none" />
      <path
         id="path82"
         d="m 181.05385,373.15812 2.68433,2.68434 4.83176,2.14746 17.1797,1.61059 15.56908,-3.75805 3.22124,-2.14747 1.07371,-3.2212 -3.75804,-3.75805 -4.83176,-1.6106 -19.32722,-1.07373 -12.88476,3.75806 -3.22123,2.68432 z"
         fill="none"
         stroke="#000000"
         stroke-width="0.536865"
         style="stroke-width:2.18829949;stroke-dasharray:none" />
    </g>
    <g
       id="t12"
       transform="matrix(0.7710865,0,0,0.7710865,292.6389,472.46605)"
       style="stroke-width:1.49399581;stroke-dasharray:none">
      <path
         id="path83"
         d="m 26.973345,294.23886 10.737317,10.20045 5.368653,7.51612 1.073733,7.51611 -1.610599,22.0115 2.684331,5.90553 17.179702,17.1797 20.400904,17.71657 26.306424,19.86404 18.7903,11.81104 4.29492,4.83179 -2.14745,4.8318 -2.14747,1.07373 -17.71657,-1.07373 -10.737314,-3.2212 -11.81105,-5.90552 -19.327165,-16.10598 -17.179702,-18.7903 -13.958514,-20.4009 -10.20045,-19.86403 -2.147465,-16.64284 v -17.71657 z"
         fill="none"
         stroke="#000000"
         stroke-width="0.536865"
         style="stroke-width:1.49399581;stroke-dasharray:none" />
    </g>
    <g
       id="t13"
       transform="matrix(0.38988036,0,0,0.38988036,593.46409,665.715)"
       style="stroke-width:2.95475258;stroke-dasharray:none">
      <path
         id="path84"
         d="m 1017.4907,244.31034 -11.811,4.8318 -23.62212,5.90552 -5.9056,0.53686 -8.05297,-3.75806 -13.42165,-1.07373 -11.27415,3.22119 -9.66361,4.8318 -115.96297,16.10597 -1.07371,-11.81105 4.83176,-30.60135 -0.53691,-19.32717 -4.29485,-17.1797 -10.20052,-19.32717 45.09673,-6.44238 55.29725,-10.73732 4.29485,-2.68433 4.29495,-5.90552 1.07372,-11.81105 -5.36867,-9.66358 -16.10599,-20.4009 L 881.12678,95.598524 860.18903,80.56629 841.93562,71.97643 823.68211,66.60777 804.35498,63.92344 771.60619,61.77598 h -37.58064 l -38.11745,2.68433 -31.67507,4.29493 -11.27423,3.22119 -13.42166,8.05299 -18.79022,16.642834 -49.92859,48.317916 -34.89621,38.65434 -5.36866,8.05298 -4.83186,11.27418 -2.14742,10.73732 -4.29495,74.08748 v 28.45389 l -1.07372,1.07373 -78.38242,10.73731 -12.34785,-8.58986 -21.47465,-9.12671 -20.40094,-3.75806 h -22.01146 l -20.93774,3.22119 -18.25351,5.90553 -19.86404,10.20045 -17.1797,12.88477 -48.85477,2.68433 h -66.03448 l -39.72805,-2.68433 -14.49537,-3.75805 -15.56911,-6.97926 -16.105974,-11.27418 -10.20045,-10.20045 8.58985,-15.56911 11.27418,-12.88477 1.6106,-3.2212 v -6.44239 l -1.6106,-3.22119 -30.601346,-35.43314 13.421646,-13.95851 11.81104,-8.05299 17.716584,-9.66358 23.62208,-9.12672 90.73031,-22.0115 54.76034,-10.20045 32.74879,-4.29493 15.03228,-3.75805 3.75804,0.53686 19.86403,9.12672 22.54837,8.05298 42.94921,11.81105 39.19125,6.44239 38.11745,2.14746 v 1.07374 l -63.88705,21.47463 -60.66581,16.10597 -70.32943,14.49538 -56.90777,8.58985 -14.49537,5.90552 -12.88475,9.12672 -9.66361,11.27418 -4.29495,7.51612 -2.68433,-4.83179 -5.36867,-4.8318 -18.79022,-4.83178 -30.06452,-1.07373 -23.08522,4.83178 -11.27419,6.4424 -9.126714,9.66358 -7.51613,15.5691 v 6.44239 l 2.14746,3.75806 2.68433,2.14747 24.158974,6.97925 26.30642,3.2212 16.64283,-1.6106 14.49542,-5.36865 10.73723,-6.97926 11.27423,-11.27419 1.07372,-3.75805 v -10.20045 l -1.07372,-2.14747 5.90548,-10.20045 11.81113,-12.34791 8.5898,-5.90552 9.12671,-4.29493 15.03228,-4.29492 34.89621,-4.29493 35.97002,-6.44239 68.71881,-15.56911 74.62438,-22.01149 49.39167,-18.25343 13.95847,-10.73732 23.08527,-25.76956 37.58054,-37.58061 33.2857,-30.60135 13.42165,-8.58985 11.81104,-4.29493 49.39168,-6.97925 50.46539,-3.22119 h 35.97003 l 34.89621,1.6106 19.32722,2.68432 26.30641,7.51612 13.42166,5.90553 25.76951,15.03224 30.60136,25.23269 42.41239,28.99076 10.7373,10.73731 6.4424,8.58985 -1.0737,38.65434 6.4424,6.44238 7.51612,0.53687 2.1475,-1.07373 1.0737,1.07373 -1.6106,27.91702 z"
         fill="none"
         stroke="#000000"
         stroke-width="0.536865"
         style="stroke-width:2.95475258;stroke-dasharray:none" />
      <path
         id="path85"
         d="m 993.86858,162.16987 5.3687,9.12672 6.44242,17.71658 2.1474,12.34791 -3.2212,2.14746 h -4.83182 l -3.2211,-1.6106 -4.295,-6.44238 z"
         fill="none"
         stroke="#000000"
         stroke-width="0.536865"
         style="stroke-width:2.95475258;stroke-dasharray:none" />
    </g>
    <g
       id="t14"
       transform="matrix(0.77167841,0,0,0.77167841,104.85046,309.6125)"
       style="stroke-width:1.49284985;stroke-dasharray:none">
      <path
         id="path86"
         d="m 198.77036,286.72274 0.5369,8.05298 -1.07371,3.75807 -8.5899,10.20045 -13.42166,9.12671 -17.17966,5.90552 -19.32717,0.53687 -25.76956,-4.29493 -17.179704,-5.90552 -3.2212,-3.2212 -1.6106,-3.75805 2.68433,-9.66359 6.442394,-10.73731 11.27418,-10.20045 16.10598,-6.4424 15.5691,-2.14745 h 18.25344 l 15.56909,2.14745 8.053,2.14747 5.90556,3.75806 4.83176,5.90552 z"
         fill="none"
         stroke="#000000"
         stroke-width="0.536865"
         style="stroke-width:1.49284985;stroke-dasharray:none" />
    </g>
  </g>
</svg>
