<?xml version="1.0" encoding="UTF-8" standalone="no"?>
<svg
   width="11in"
   height="8.5in"
   viewBox="0 0 1056 816"
   version="1.1"
   id="svg1"
   sodipodi:docname="processed_090I0003.svg"
   inkscape:version="1.4.2 (f4327f4, 2025-05-13)"
   xmlns:inkscape="http://www.inkscape.org/namespaces/inkscape"
   xmlns:sodipodi="http://sodipodi.sourceforge.net/DTD/sodipodi-0.dtd"
   xmlns="http://www.w3.org/2000/svg"
   xmlns:svg="http://www.w3.org/2000/svg">
  <defs
     id="defs1" />
  <sodipodi:namedview
     id="namedview1"
     pagecolor="#ffffff"
     bordercolor="#000000"
     borderopacity="0.25"
     inkscape:showpageshadow="2"
     inkscape:pageopacity="0.0"
     inkscape:pagecheckerboard="0"
     inkscape:deskcolor="#d1d1d1"
     inkscape:zoom="1"
     inkscape:cx="525"
     inkscape:cy="384.5"
     inkscape:window-width="1920"
     inkscape:window-height="1009"
     inkscape:window-x="-8"
     inkscape:window-y="-8"
     inkscape:window-maximized="1"
     inkscape:current-layer="layer3"
     inkscape:document-units="in" />
  <path
     id="part_0"
     d="m 1033.2308,195.98911 -3.4376,-7.36187 -4.9109,-5.06128 -35.35864,-14.26362 -44.19832,-41.41051 -37.32299,-25.76654 -43.70727,-21.625491 -30.93877,-10.58269 -31.92101,-5.06129 h -44.68937 l -127.19292,5.5214 -136.52372,21.6255 -25.04567,7.36187 -2.45547,-0.46012 -18.66152,5.981521 -20.13475,8.2821 -38.30523,13.34339 -91.34315,52.45331 -21.11699,7.82199 -73.66384,5.5214 -55.98453,10.58269 -16.69713,6.44163 h -3.92874 l -19.1526,4.14106 -17.188235,6.44163 -18.170422,9.66245 -13.259489,10.12257 -15.223859,15.18386 -10.804035,15.64397 -12.768396,25.76654 -0.982185,4.14106 v 27.60701 l -5.89311,27.607 v 5.98152 l 0.982185,3.68094 9.821842,8.74222 2.946555,5.98151 -8.348565,7.36187 -4.910925,6.90175 -0.982185,7.36187 1.96437,3.68093 7.857472,5.52141 15.71496,5.98152 111.969052,21.62548 112.9512,9.66246 6.87534,3.22081 9.33073,1.84047 91.34315,1.38035 52.54688,10.12258 5.40205,7.82198 9.33073,9.20234 11.29514,7.36187 9.33073,4.14105 8.83967,2.30058 45.67162,4.60117 22.59021,-0.92024 17.67936,-4.60116 17.67928,-7.36187 14.73278,-9.66245 13.25948,-12.42316 8.83968,-14.72373 6.38421,-15.18386 4.41981,-14.26362 14.24172,-0.92024 14.73278,-2.7607 32.41206,-8.2821 30.93884,-6.44163 188.08835,-31.28795 29.46555,2.76071 4.91093,8.74221 9.33072,8.74222 11.78619,5.06129 5.8931,0.92023 38.30521,0.46012 8.3486,-2.30059 5.402,-2.76069 8.3486,-8.28211 6.8752,-14.26362 4.911,-20.24514 1.4732,-19.32491 6.3843,-18.40467 2.4554,-16.56421 v -23.46595 l -4.4199,-20.24514 -0.9821,-37.72958 z"
     fill="none"
     stroke="#000000"
     stroke-width="0.475352"
     inkscape:label="_outer"
     style="stroke-width:1.152;stroke-dasharray:none" />
  <g
     inkscape:groupmode="layer"
     id="layer1"
     inkscape:label="_windows"
     style="display:inline">
    <g
       id="g1"
       style="display:inline;stroke-width:1.152;stroke-dasharray:none">
      <path
         id="part_192"
         d="m 682.09989,135.71382 0.98217,0.92023 v 35.42899 l -30.44772,0.92024 4.91093,-10.58269 8.34855,-11.50292 z"
         fill="none"
         stroke="#000000"
         stroke-width="0.475352"
         style="stroke-width:1.152;stroke-dasharray:none" />
      <path
         id="part_303"
         d="m 808.80169,81.420029 12.27731,43.250981 4.91093,43.25098 -38.79628,2.76071 -102.6383,1.38034 v -35.88911 l -1.47329,-2.30058 11.78619,-11.0428 24.55462,-19.78503 18.66153,-10.582691 20.62587,-7.82198 25.5368,-3.68094 z"
         fill="none"
         stroke="#000000"
         stroke-width="0.475352"
         style="stroke-width:1.152;stroke-dasharray:none" />
      <path
         id="part_302"
         d="m 812.23932,80.959909 8.83968,0.92024 15.71495,42.790861 7.8575,39.10993 -0.49112,2.7607 -13.7506,0.46012 -5.40197,-43.25099 z"
         fill="none"
         stroke="#000000"
         stroke-width="0.475352"
         style="stroke-width:1.152;stroke-dasharray:none" />
      <path
         id="part_167"
         d="m 841.21375,172.52316 -0.49105,0.92023 -54.02017,4.14105 -121.29983,2.30059 -23.08133,-0.46012 0.98217,-5.06128 144.38116,-2.30059 35.35864,-2.7607 7.36639,0.46012 0.49112,-0.92023 5.8931,-0.46013 z"
         fill="none"
         stroke="#000000"
         stroke-width="0.475352"
         style="display:inline;stroke-width:1.152;stroke-dasharray:none" />
    </g>
    <g
       id="g2"
       style="display:inline;stroke-width:1.152;stroke-dasharray:none">
      <path
         id="part_220"
         d="m 920.77071,121.91031 11.29515,6.90175 14.73277,12.42316 -0.49112,9.20234 -8.83961,8.28209 -3.4377,0.46012 -0.98217,-0.92023 -12.76836,-34.96888 z"
         fill="none"
         stroke="#000000"
         stroke-width="0.475352"
         style="stroke-width:1.152;stroke-dasharray:none" />
      <path
         id="part_227"
         d="m 927.15493,120.52996 18.66153,12.88327 8.34856,8.74222 1.47329,5.06129 v 5.5214 l -1.96442,4.60116 -5.40197,5.06129 -3.4377,0.92024 -2.94652,-4.14106 4.91093,-3.68094 3.43763,-5.5214 v -9.66245 l -20.62587,-16.56421 z"
         fill="none"
         stroke="#000000"
         stroke-width="0.475352"
         style="stroke-width:1.152;stroke-dasharray:none" />
      <path
         id="part_246"
         d="m 915.36874,117.30914 2.94651,4.14105 13.75061,39.57005 -2.45547,-0.92023 -5.89309,-20.70526 -8.34856,-19.78502 z"
         fill="none"
         stroke="#000000"
         stroke-width="0.475352"
         style="stroke-width:1.152;stroke-dasharray:none" />
      <path
         id="part_300"
         d="m 825.00776,84.180729 1.47321,-0.46011 42.72503,11.50292 41.25182,20.245141 8.8396,20.70525 7.36639,24.84631 -76.61038,5.06128 -0.98217,-0.92023 -8.34856,-40.9504 z"
         fill="none"
         stroke="#000000"
         stroke-width="0.475352"
         style="stroke-width:1.152;stroke-dasharray:none" />
      <path
         id="part_178"
         d="m 942.86987,162.8607 -1.47329,1.84047 -9.82185,1.84047 -87.90552,6.44164 -3.43763,-4.14105 93.30757,-6.44164 6.38421,-2.30058 z"
         fill="none"
         stroke="#000000"
         stroke-width="0.475352"
         style="display:inline;stroke-width:1.152;stroke-dasharray:none" />
    </g>
    <g
       id="g3"
       style="display:inline;stroke-width:1.152;stroke-dasharray:none">
      <path
         id="part_307"
         d="m 918.80637,114.54844 h -1.96441 l -28.48331,-16.104091 -32.41213,-12.42315 -25.04567,-6.44164 -21.11699,-2.30058 h -30.44772 l -15.2239,2.30058 -14.7327,4.60117 -14.73277,6.44163 -16.69719,11.502931 -24.55462,19.78502 -28.48331,27.60701 -8.34855,11.50292 -5.89317,11.50292 h -7.36639 l 22.09916,-30.82783 29.46555,-29.90759 30.93884,-22.545721 13.7506,-7.82199 16.206,-5.52141 17.67936,-3.22081 h 16.69711 l 39.77852,4.14105 38.79628,10.58269 41.25173,20.705261 z"
         fill="none"
         stroke="#000000"
         stroke-width="0.475352"
         style="stroke-width:1.152;stroke-dasharray:none" />
      <path
         id="part_309"
         d="m 909.96669,105.80622 h -1.96434 L 869.206,86.021199 830.40973,75.438509 790.14016,71.297459 h -17.18824 l -17.67928,3.22082 -16.20607,5.5214 -14.73277,8.2821 -30.93884,22.545721 -28.97443,29.44748 -22.59021,31.28794 -38.30523,-0.46011 8.83968,-5.06129 42.23391,-40.49028 30.93884,-26.686771 15.71495,-11.50292 16.20606,-9.20233 17.18824,-6.90176 17.18824,-4.14105 11.78619,-0.92024 h 37.32298 l 31.92101,5.06129 30.93884,10.58269 42.72503,21.165371 z"
         fill="none"
         stroke="#000000"
         stroke-width="0.475352"
         style="stroke-width:1.152;stroke-dasharray:none" />
    </g>
    <g
       id="g4"
       style="display:inline;stroke-width:1.152;stroke-dasharray:none">
      <path
         id="part_287"
         d="m 541.64749,90.162249 0.98217,0.46011 -0.49112,2.30059 -1.96434,-0.92023 z"
         fill="none"
         stroke="#000000"
         stroke-width="0.475352"
         style="stroke-width:1.152;stroke-dasharray:none" />
      <path
         id="part_290"
         d="m 559.81789,87.861669 -17.67935,9.66245 -15.22383,-0.46012 0.49105,-5.98151 11.29514,-1.38036 0.49113,3.68094 3.92868,0.92023 1.47329,-5.06128 z"
         fill="none"
         stroke="#000000"
         stroke-width="0.475352"
         style="stroke-width:1.152;stroke-dasharray:none" />
      <path
         id="part_306"
         d="m 713.52978,78.659329 -13.75061,7.82198 -15.71494,11.50292 -30.93884,26.686781 -42.23391,40.49028 -9.33073,5.52141 -5.89316,1.84046 -12.27732,1.84047 -86.92328,0.46011 -141.92569,5.06129 -51.07359,3.68093 47.14484,-30.82782 46.16266,-25.30643 28.48338,-12.42315 30.44771,-11.04281 37.81411,-10.582681 31.42989,-3.22082 0.98217,8.74222 h 16.69719 l 21.11699,-11.0428 2.45546,-2.76071 39.77845,-4.60116 93.79861,-2.30058 z"
         fill="none"
         stroke="#000000"
         stroke-width="0.475352"
         style="stroke-width:1.152;stroke-dasharray:none" />
    </g>
    <g
       id="g5"
       style="display:inline;stroke-width:1.152;stroke-dasharray:none">
      <path
         id="part_308"
         d="m 743.48638,67.616529 -9.33073,2.30058 -16.69712,6.90175 -111.96909,2.30059 -52.54688,6.44163 h -7.85744 l 84.95894,-13.8035 106.07593,-4.60117 z"
         fill="none"
         stroke="#000000"
         stroke-width="0.475352"
         style="stroke-width:1.152;stroke-dasharray:none" />
    </g>
  </g>
  <g
     inkscape:groupmode="layer"
     id="layer2"
     inkscape:label="_doors"
     style="display:inline">
    <g
       id="g6"
       style="stroke-width:1.152;stroke-dasharray:none">
      <path
         id="part_126"
         d="m 848.58013,190.0076 3.43764,5.98151 6.87534,19.32492 -0.98217,0.92022 -61.38656,3.22082 -130.63056,11.96304 -0.49112,1.38035 131.6128,-11.96303 61.87761,-3.68094 -0.49113,39.10993 -3.92875,42.79086 -62.85978,9.20234 -119.82653,39.57004 v 0.92024 l 134.06818,-18.86479 54.5113,-11.50292 0.49105,0.92023 -5.40198,15.18386 -2.94658,15.18385 -188.08836,32.20818 0.98217,-80.52045 -3.92868,-64.87647 -6.38422,-23.92607 -7.8575,-20.70526 181.70414,-0.46011 z"
         fill="none"
         stroke="#000000"
         stroke-width="0.475352"
         style="stroke-width:1.152;stroke-dasharray:none" />
      <path
         id="part_128"
         d="m 840.7227,198.2897 -0.98217,4.14105 -4.91093,3.22082 -23.57245,-0.46012 0.98217,-2.30058 h 9.82185 l 9.33073,-1.38035 1.47329,-3.68094 z"
         fill="none"
         stroke="#000000"
         stroke-width="0.475352"
         style="stroke-width:1.152;stroke-dasharray:none" />
      <path
         id="part_148"
         d="m 848.08909,188.16713 -19.6437,1.84047 H 646.74125 l -3.92876,-6.44164 v -1.84046 l 144.38116,-2.76071 54.51122,-4.14105 z"
         fill="none"
         stroke="#000000"
         stroke-width="0.475352"
         style="stroke-width:1.152;stroke-dasharray:none" />
      <path
         id="part_127"
         d="m 842.19599,196.44923 h -10.31297 l -1.47329,3.68094 -8.83968,1.38035 h -9.82185 l -2.45546,2.7607 1.47329,2.7607 h 24.55462 l 2.94659,-0.92023 2.45546,-2.30059 z"
         fill="none"
         stroke="#000000"
         stroke-width="0.475352"
         style="stroke-width:1.152;stroke-dasharray:none" />
      <path
         id="part_55"
         d="m 859.87528,316.53972 -51.56471,11.50293 -117.37107,17.02432 h -5.8931 l 107.05817,-35.429 62.36866,-9.20233 z"
         fill="none"
         stroke="#000000"
         stroke-width="0.475352"
         style="stroke-width:1.152;stroke-dasharray:none" />
    </g>
    <g
       id="g7"
       style="stroke-width:1.152;stroke-dasharray:none">
      <path
         id="part_102"
         d="m 958.09377,222.67589 11.29507,11.50292 3.43771,5.98152 v 2.30058 l -35.84977,79.60021 -3.92875,5.5214 -7.36639,6.44164 -11.78619,5.98152 -59.42222,9.66245 2.45546,-14.72374 5.89317,-17.02432 81.52131,-17.48443 -0.98217,-1.84047 -6.87534,-4.14106 -14.24165,-4.60116 h -8.83968 l -56.96669,8.2821 3.43764,-41.41052 0.98217,-39.10992 59.42222,-4.14105 h 15.22382 l 10.31297,2.76069 z"
         fill="none"
         stroke="#000000"
         stroke-width="0.475352"
         style="stroke-width:1.152;stroke-dasharray:none" />
      <path
         id="part_135"
         d="m 974.29976,236.93951 -1.47321,0.46012 -3.92876,-6.44164 -9.3308,-9.20233 -13.25948,-6.90176 -10.3129,-2.76069 h -16.20607 l -58.43997,3.68093 -10.80402,-25.76654 126.21068,-8.2821 1.96441,16.10408 -0.98217,25.76654 z"
         fill="none"
         stroke="#000000"
         stroke-width="0.475352"
         style="stroke-width:1.152;stroke-dasharray:none" />
      <path
         id="part_173"
         d="m 971.35325,180.34515 -121.29982,7.82198 -6.38422,-13.34339 88.39665,-6.90175 11.29514,-2.30058 10.31289,8.2821 z"
         fill="none"
         stroke="#000000"
         stroke-width="0.475352"
         style="stroke-width:1.152;stroke-dasharray:none" />
      <path
         id="part_188"
         d="m 954.16502,139.39475 33.88535,30.82782 24.06353,9.66246 v 1.38035 l -2.4555,0.46012 -8.3486,-1.84047 -24.55457,0.46012 -19.6437,-6.44164 -5.8931,-3.22081 -5.89309,-5.52141 4.4198,-1.84046 6.38422,-6.90176 0.98217,-9.66245 z"
         fill="none"
         stroke="#000000"
         stroke-width="0.475352"
         style="stroke-width:1.152;stroke-dasharray:none" />
      <path
         id="part_57"
         d="m 941.39658,299.5154 -78.57472,17.02432 -2.94658,-2.7607 -3.43764,-13.34338 57.45781,-9.20234 h 7.85743 l 13.25956,4.14105 z"
         fill="none"
         stroke="#000000"
         stroke-width="0.475352"
         style="stroke-width:1.152;stroke-dasharray:none" />
      <path
         id="part_137"
         d="m 964.96904,192.7683 -0.49113,2.30059 -3.43763,2.76069 H 943.361 l 1.47322,-1.84047 13.25955,-0.46011 1.47322,-3.22082 z"
         fill="none"
         stroke="#000000"
         stroke-width="0.475352"
         style="stroke-width:1.152;stroke-dasharray:none" />
      <path
         id="part_136"
         d="m 966.44233,191.38795 -7.36639,-0.46012 -1.47329,0.92023 -0.49112,2.30059 -13.25949,0.46012 -2.45546,2.7607 1.47329,2.30058 20.13483,-0.92023 2.45546,-2.30059 z"
         fill="none"
         stroke="#000000"
         stroke-width="0.475352"
         style="stroke-width:1.152;stroke-dasharray:none" />
    </g>
  </g>
  <g
     inkscape:groupmode="layer"
     id="layer3"
     inkscape:label="_frames"
     style="display:inline">
    <g
       id="g8"
       style="display:none;stroke-width:1.152;stroke-dasharray:none">
      <path
         id="part_139"
         d="m 1026.8466,200.59029 8.3487,14.26361 0.9821,32.6683 h -0.9821 l -2.9466,-5.98152 -5.8931,-7.82198 -9.3308,-8.28211 -6.3842,-3.22082 -8.8396,-0.46011 -5.89312,1.38035 -3.43771,1.84047 -12.27724,12.42315 -4.91092,8.74222 -14.73278,42.33074 -5.89317,44.63133 1.4733,-0.46011 5.89309,-43.7111 14.73278,-42.33074 8.34863,-12.42316 11.29506,-9.66245 10.80398,-1.38035 5.8932,1.84047 12.2773,10.12256 5.8931,7.822 5.402,10.12256 3.9287,19.78503 v 22.54572 l -0.9821,6.44163 h -0.9822 l 0.491,-22.54572 -1.4733,-8.74222 -3.4376,-11.0428 -5.402,-11.0428 -5.8931,-8.28211 -6.3842,-5.5214 -6.3842,-1.84047 h -6.3842 l -9.33072,3.22082 -9.33072,9.20234 -6.87534,10.12256 -12.27731,35.429 -8.34856,55.21401 -7.36639,18.40468 -27.01008,1.38035 -216.08062,35.88911 -60.89544,14.26362 -11.78618,1.38035 6.87526,-6.90175 3.92875,-6.90175 2.45547,-7.82199 v -6.90175 l 15.71494,-5.5214 250.94814,-41.87063 6.38421,-2.76071 8.34856,-5.06127 8.34863,-9.20234 36.34082,-79.60021 5.40197,-20.70526 0.98224,-26.68677 -1.47329,-15.18386 2.45546,-0.92023 h 19.6437 l 12.2773,2.30058 z"
         fill="none"
         stroke="#000000"
         stroke-width="0.475352"
         style="stroke-width:1.152;stroke-dasharray:none" />
      <path
         id="part_140"
         d="m 1014.5693,180.80526 8.8397,3.68094 5.402,5.5214 2.9466,6.44163 2.4554,11.04281 -0.491,1.84046 -5.8931,-10.12257 -13.2596,-16.10409 z"
         fill="none"
         stroke="#000000"
         stroke-width="0.475352"
         style="stroke-width:1.152;stroke-dasharray:none" />
      <path
         id="part_7"
         d="m 645.759,388.77806 v 9.20234 l -6.87526,12.88327 -8.34856,7.36186 -10.31297,1.38036 11.29514,-10.58269 3.92876,-8.74222 0.98217,-9.66245 z"
         fill="none"
         stroke="#000000"
         stroke-width="0.475352"
         style="stroke-width:1.152;stroke-dasharray:none" />
      <path
         id="part_32"
         d="m 948.27192,366.23233 -0.49112,2.76071 -4.91093,5.06129 -33.88535,-3.68094 0.49105,-0.92024 27.99233,-3.68093 z"
         fill="none"
         stroke="#000000"
         stroke-width="0.475352"
         style="display:inline;stroke-width:1.152;stroke-dasharray:none" />
    </g>
    <g
       id="g11"
       style="display:inline;stroke-width:1.152;stroke-dasharray:none">
      <path
         id="part_120"
         d="m 397.26633,258.565 30.44772,-21.62549 29.9566,-27.60701 v -6.44163 l 93.79869,-11.96304 93.30749,0.46012 8.83968,21.62549 6.38422,23.92607 3.92868,64.87647 -1.47322,80.06033 -12.76843,4.60116 -1.47329,-0.46011 1.47329,-36.34923 -3.92876,-30.36771 -11.29506,-34.96888 -11.29515,-18.40467 -13.25948,-15.18385 -19.15265,-16.10409 -18.66145,-8.74222 -9.82185,-1.84047 h -13.75061 l -11.78619,1.38035 -15.22389,3.68094 -15.22383,6.44164 -13.7506,8.28209 -14.24173,12.88327 -14.7327,-2.76069 H 441.9557 l -21.11692,1.38034 z"
         fill="none"
         stroke="#000000"
         stroke-width="0.475352"
         style="stroke-width:1.152;stroke-dasharray:none" />
      <path
         id="part_121"
         d="m 648.21447,229.57764 -2.94652,-2.7607 -25.53679,1.38036 -3.43763,1.84046 -0.49112,3.68094 5.89309,8.74221 5.8931,5.98153 h 3.43763 l 16.69719,-16.10409 z"
         fill="none"
         stroke="#000000"
         stroke-width="0.475352"
         style="stroke-width:1.152;stroke-dasharray:none" />
      <path
         id="part_123"
         d="m 633.97281,234.63893 -1.96434,5.98151 -3.4377,3.68094 -9.33073,-10.58268 14.24165,-0.92024 z"
         fill="none"
         stroke="#000000"
         stroke-width="0.475352"
         style="stroke-width:1.152;stroke-dasharray:none" />
      <path
         id="part_124"
         d="m 645.26795,230.49788 -11.29514,11.0428 1.4733,-8.28211 z"
         fill="none"
         stroke="#000000"
         stroke-width="0.475352"
         style="stroke-width:1.152;stroke-dasharray:none" />
      <path
         id="part_125"
         d="m 640.84808,230.03776 -8.34856,1.84047 -13.7506,-0.46012 0.98224,-0.92023 z"
         fill="none"
         stroke="#000000"
         stroke-width="0.475352"
         style="stroke-width:1.152;stroke-dasharray:none" />
      <path
         id="part_133"
         d="m 644.77683,189.54748 h -93.79862 l -92.32532,11.96304 -12.27731,-1.38035 -45.1805,11.50292 -5.89316,0.46012 11.78626,-4.60117 78.08367,-17.48444 73.66387,-6.44164 83.97677,3.22082 z"
         fill="none"
         stroke="#000000"
         stroke-width="0.475352"
         style="stroke-width:1.152;stroke-dasharray:none" />
    </g>
    <g
       id="g12"
       style="display:inline;stroke-width:1.152;stroke-dasharray:none">
      <path
         id="part_154"
         d="m 641.3392,173.44339 -0.98217,4.14105 H 534.2811 l -56.96676,8.28211 -1.47321,-1.38035 h -2.94659 l -22.59028,5.06128 -22.09909,2.7607 -22.09916,6.44164 -46.16274,9.20234 -128.66613,50.15273 -19.64372,4.60116 -20.13478,2.30059 h -44.6894 l -18.66151,-1.38035 H 63.323541 l -2.946555,-1.84047 0.982185,-2.30058 16.206045,-12.42316 106.075944,-38.18969 116.87997,-23.46596 54.51122,-4.14105 141.92569,-5.06128 93.30757,-0.92024 7.85744,-2.30058 z"
         fill="none"
         stroke="#000000"
         stroke-width="0.475352"
         style="stroke-width:1.152;stroke-dasharray:none" />
      <path
         id="part_157"
         d="m 126.67445,251.66325 5.89311,-3.22081 v -2.30059 h 9.82184 l 3.43765,1.38035 -1.47328,0.92024 -4.41983,-0.92024 -12.2773,4.60117 z"
         fill="none"
         stroke="#000000"
         stroke-width="0.475352"
         style="stroke-width:1.152;stroke-dasharray:none" />
      <path
         id="part_155"
         d="m 149.2647,246.60197 -6.3842,-1.84047 h -11.78622 l -3.43764,4.60117 -9.33076,4.60117 -1.96437,2.30058 h 3.92874 l 20.13478,-7.36187 4.41984,0.92023 3.92874,-1.84047 z"
         fill="none"
         stroke="#000000"
         stroke-width="0.475352"
         style="stroke-width:1.152;stroke-dasharray:none" />
      <path
         id="part_129"
         d="m 276.94868,188.62724 -92.32534,18.40468 -100.18283,36.34923 -1.473277,-0.46011 7.857472,-5.98153 29.956635,-17.02432 33.88538,-12.88327 35.84973,-8.2821 55.00234,-7.82199 27.50121,-2.7607 z"
         fill="none"
         stroke="#000000"
         stroke-width="0.475352"
         style="stroke-width:1.152;stroke-dasharray:none" />
    </g>
    <g
       id="g13"
       style="display:inline;stroke-width:1.152;stroke-dasharray:none">
      <path
         id="part_1"
         d="m 425.25859,453.65454 -2.94659,9.66245 -44.68937,-8.74223 33.88535,-1.38035 z"
         fill="none"
         stroke="#000000"
         stroke-width="0.475352"
         style="stroke-width:1.152;stroke-dasharray:none" />
      <path
         id="part_3"
         d="m 14.705401,403.96192 4.419833,0.46011 40.76066,14.26363 49.600326,9.20233 154.20297,7.82199 172.37342,-0.46012 -1.96434,7.82199 -4.91093,8.74222 -56.47563,1.38034 -93.79862,-1.38034 -7.85751,-1.38035 -8.34856,-3.68094 -112.95123,-9.66245 -111.96905,-21.62549 -14.732774,-5.5214 z"
         fill="none"
         stroke="#000000"
         stroke-width="0.475352"
         style="stroke-width:1.152;stroke-dasharray:none" />
      <path
         id="part_142"
         d="m 640.84808,179.42491 0.49112,5.98152 -82.9946,-3.22082 -73.66387,6.44163 -79.55696,17.94456 -71.69946,26.68677 -49.10925,13.80351 -46.16266,22.08561 -0.49105,2.30058 1.96434,2.30058 24.55463,6.44165 29.46554,1.38035 37.81411,-4.60117 41.25174,-7.82199 10.80402,-3.22082 10.31297,-5.06129 27.50113,-4.14105 41.74286,-1.38035 13.25948,2.76071 -6.87526,9.66245 -25.53679,43.7111 -20.62587,53.83367 -10.31298,47.85215 1.4733,-0.46013 4.4198,-5.5214 5.89309,-3.68093 11.78627,-1.84047 -0.98225,31.74807 -171.39116,0.92022 -154.203,-7.82198 -49.600334,-9.20234 -44.6894,-15.18385 -2.946555,-2.30059 0.491093,-3.22081 5.402017,-7.82199 8.839657,-7.82199 -3.437647,-8.28209 -5.40201,-5.06129 2.455455,-0.46012 67.279654,12.88327 75.13712,5.98152 h 135.54147 l 79.55696,-1.38035 -7.85743,20.24514 -6.38422,7.36187 -61.87768,4.14105 -62.36866,1.84046 -1.96441,-5.06127 -2.94651,-2.76071 -27.01012,-18.86479 -84.46787,-5.5214 -86.923345,-11.96303 -1.96437,1.84046 v 11.0428 l 2.946555,7.36187 4.419832,3.22082 97.727368,19.78502 97.72741,5.06129 0.49105,1.38035 58.43997,-1.38035 57.45781,-3.68093 8.34856,-2.76071 7.36638,-6.44163 14.73278,-33.12841 7.36638,-30.36772 -79.06584,4.14106 H 291.1904 l -13.7506,-2.7607 -13.25948,-4.14105 -12.76844,-5.98152 -10.80402,-7.36187 -29.46553,-16.5642 -33.39428,-11.50293 -73.17275,-9.20233 -77.592594,-1.38035 18.170414,-24.84631 26.027893,-24.38619 3.437648,-5.06129 34.376469,-18.86479 36.34083,-13.34338 57.4578,-11.04281 15.71496,-0.92023 v 0.92023 l -28.48336,3.68094 -35.84974,8.2821 -32.90319,12.42315 -31.920995,17.94456 -14.732774,10.58269 -14.732767,11.96303 -0.982185,3.22082 1.473277,2.7607 67.279654,0.46012 18.6615,1.38035 h 45.67159 l 12.27731,-1.38035 28.97444,-5.98152 53.038,-20.24514 v 0.92023 l -56.96673,25.30643 -0.49109,1.38035 h 1.47328 l 96.25411,-43.25098 86.92335,-24.84631 38.30515,-7.82199 82.9946,-11.50292 z"
         fill="none"
         stroke="#000000"
         stroke-width="0.475352"
         style="stroke-width:1.152;stroke-dasharray:none" />
      <path
         id="part_2"
         d="m 361.90769,414.08448 -8.34856,3.22082 -57.4578,3.68094 -55.98452,0.92023 1.47322,-2.7607 61.38656,-1.38035 z"
         fill="none"
         stroke="#000000"
         stroke-width="0.475352"
         style="display:inline;stroke-width:1.152;stroke-dasharray:none" />
      <path
         id="part_104"
         d="m 117.3437,213.47356 -10.80403,4.14105 -33.394287,18.40467 -2.946555,4.60116 -41.251752,40.03017 3.928739,-8.74222 10.804035,-15.64397 15.714951,-15.64398 10.804027,-8.28209 19.643699,-11.04281 18.661513,-6.90175 6.38419,-1.38035 z"
         fill="none"
         stroke="#000000"
         stroke-width="0.475352"
         style="display:inline;stroke-width:1.152;stroke-dasharray:none" />
    </g>
    <g
       id="g16"
       style="stroke-width:1.152;stroke-dasharray:none">
      <path
         id="part_56"
         d="m 20.107418,298.59517 3.43764,-4.60117 5.89311,-1.84047 74.646042,1.84047 73.17275,9.20233 32.41209,11.04281 29.46552,16.5642 10.80402,7.36187 13.7506,6.44164 13.25949,4.14105 10.31297,1.84047 v 0.92023 l -34.8676,2.30059 0.49112,1.38034 7.85751,4.14106 13.75053,5.5214 17.67936,3.22081 92.32533,-0.92023 0.49112,1.38035 -5.40205,14.72374 -81.03018,1.38035 H 163.99747 l -75.137128,-5.98152 -74.154941,-14.26362 -0.982185,-2.7607 v -5.5214 l 2.455463,-8.28211 112.951231,11.50293 114.42454,0.92023 -0.49112,-1.38035 -113.44232,-0.92023 -112.951239,-11.50292 -0.491092,-1.84047 3.437647,-16.10409 z"
         fill="none"
         stroke="#000000"
         stroke-width="0.475352"
         style="stroke-width:1.152;stroke-dasharray:none" />
    </g>
  </g>
  <g
     inkscape:groupmode="layer"
     id="layer5"
     inkscape:label="_lights"
     style="display:inline">
    <g
       id="g14"
       style="stroke-width:1.152;stroke-dasharray:none">
      <path
         id="part_112"
         d="m 456.19743,204.27122 v 4.14105 l -29.95667,27.60701 -33.39431,23.92608 -14.24165,5.98151 -47.63595,9.66245 -37.81411,4.60118 -28.48338,-1.38036 -25.53679,-7.36187 0.98224,-1.84046 11.29507,-5.06129 0.98217,1.84047 13.25956,5.06128 14.24165,2.76071 19.15258,0.46011 84.95901,-12.88327 0.49105,-1.38035 -6.87527,0.46011 -79.06584,12.42316 -18.17041,-0.46011 -14.24172,-2.76071 -14.24166,-5.06128 v -0.92024 l 32.90319,-15.64396 19.15257,-5.5214 0.49112,1.38034 37.32299,-4.14105 35.35864,-8.2821 54.51129,-21.62549 20.62587,-5.06129 0.49105,-1.38035 h -2.45546 l -19.15258,5.06129 -54.51122,21.62549 -35.35864,8.2821 -29.46555,3.68093 -3.43763,-0.46011 27.01008,-7.82199 53.52905,-18.40467 57.94886,-14.26362 6.38421,0.46012 z"
         fill="none"
         stroke="#000000"
         stroke-width="0.475352"
         style="stroke-width:1.152;stroke-dasharray:none" />
      <path
         id="part_115"
         d="m 387.44448,242.92104 -8.83968,11.96303 -4.91092,3.22082 -58.43998,8.74222 -11.78619,0.92023 -23.08133,-0.92023 -14.24172,-4.14106 12.27731,-6.90174 13.25948,-5.06129 h 48.61813 l 44.19832,-8.28211 z"
         fill="none"
         stroke="#000000"
         stroke-width="0.475352"
         style="stroke-width:1.152;stroke-dasharray:none" />
      <path
         id="part_116"
         d="m 391.86428,236.47939 -3.43763,4.14105 -48.61812,8.74223 -27.99226,-0.46012 16.69712,-0.92024 32.90318,-5.98151 28.48337,-9.66245 z"
         fill="none"
         stroke="#000000"
         stroke-width="0.475352"
         style="stroke-width:1.152;stroke-dasharray:none" />
      <path
         id="part_117"
         d="m 444.90229,211.63309 -12.27732,8.74222 -9.33072,4.14105 -9.82185,2.30058 -4.91093,9.66245 -5.89317,7.82199 -6.38414,0.46012 -13.7506,11.96303 -2.94659,-0.46011 4.41988,-5.06129 6.38414,-11.0428 3.43771,-1.84047 -1.47329,-3.68093 1.47329,-3.68094 27.50113,-12.42315 22.09916,-7.36187 z"
         fill="none"
         stroke="#000000"
         stroke-width="0.475352"
         style="stroke-width:1.152;stroke-dasharray:none" />
      <path
         id="part_113"
         d="m 450.30426,207.95216 -29.46548,9.20233 -27.99233,12.88327 -31.92093,10.58268 -32.90318,5.98153 -32.90326,1.38034 -18.1704,6.90176 -13.25949,7.36187 -0.49104,1.38035 16.69711,4.60116 24.0635,0.92024 11.78627,-0.92024 67.27957,-10.12256 14.73278,-12.42316 h 5.89317 l 10.80402,-17.48443 9.33072,-2.30059 10.31298,-4.60117 8.8396,-5.5214 z"
         fill="none"
         stroke="#000000"
         stroke-width="0.475352"
         style="stroke-width:1.152;stroke-dasharray:none" />
    </g>
    <g
       id="g15"
       style="stroke-width:1.152;stroke-dasharray:none">
      <path
         id="part_5"
         d="m 44.662027,396.13993 9.82185,-0.46012 73.172763,13.80351 73.66385,6.90175 36.83191,2.30059 0.49112,1.84046 -7.36638,0.46012 -90.85211,-5.06129 z"
         fill="none"
         stroke="#000000"
         stroke-width="0.475352"
         style="stroke-width:1.152;stroke-dasharray:none" />
      <path
         id="part_6"
         d="m 195.91847,392.91912 h 11.78621 l 26.02792,18.40467 4.4198,5.5214 -4.91092,0.46011 -30.93881,-2.30058 z"
         fill="none"
         stroke="#000000"
         stroke-width="0.475352"
         style="stroke-width:1.152;stroke-dasharray:none" />
      <path
         id="part_8"
         d="m 55.466062,378.65549 2.946555,-0.46011 33.885365,4.60116 -0.982185,1.84047 -7.857472,-0.46012 -0.982185,1.84047 h 9.821842 l 1.96437,-2.7607 13.259498,2.30059 -9.330754,0.46011 -0.982189,1.84047 10.312943,-0.46012 1.96437,-1.84046 12.27731,1.38034 v 0.92024 l -8.34857,-0.46012 -0.98218,2.30059 1.96436,-0.92024 8.34857,0.46012 1.47328,-1.84047 69.73511,4.60117 0.98218,4.60117 -6.87529,-0.46012 -0.98219,1.84047 h 8.34858 l 1.47327,4.60117 -0.98218,0.92023 -8.83967,-0.46012 -0.98218,2.30058 1.96437,-0.92023 h 9.33076 l 2.94655,9.66245 -3.43765,0.46012 -68.75292,-6.44163 -29.956634,-5.5214 -0.982189,-1.38036 8.839673,0.46012 0.98218,-1.84047 H 96.226722 l -1.473277,1.84047 -7.36638,-1.38035 3.43764,-0.46012 0.982185,-1.84046 -13.750582,0.92023 -1.96437,-0.92023 0.982185,-1.84047 -11.786212,0.46012 -2.455462,-0.46012 -0.982185,-1.84047 -2.455463,0.92024 -3.437647,-0.46012 -0.491092,-5.06128 6.384202,-0.46012 0.982185,-1.84047 -6.875295,0.46012 -0.491092,-5.5214 h 7.366387 l 0.982185,-1.84047 h -7.85748 z"
         fill="none"
         stroke="#000000"
         stroke-width="0.475352"
         style="stroke-width:1.152;stroke-dasharray:none" />
      <path
         id="part_10"
         d="m 181.67679,408.10297 -2.45546,0.92023 -7.85748,-0.46012 -0.98218,1.84047 h 9.82185 z"
         fill="none"
         stroke="#000000"
         stroke-width="0.475352"
         style="stroke-width:1.152;stroke-dasharray:none" />
      <path
         id="part_18"
         d="m 126.18336,398.44052 1.96437,-0.92024 8.83966,0.46012 0.98218,-1.84047 h -10.80403 z"
         fill="none"
         stroke="#000000"
         stroke-width="0.475352"
         style="stroke-width:1.152;stroke-dasharray:none" />
      <path
         id="part_22"
         d="m 108.01295,392.459 -2.45547,0.92023 -8.348573,-0.46011 -0.982185,1.84046 h 10.312948 z"
         fill="none"
         stroke="#000000"
         stroke-width="0.475352"
         style="stroke-width:1.152;stroke-dasharray:none" />
      <path
         id="part_23"
         d="M 81.493955,392.91912 H 91.80689 l 0.982185,-1.84047 H 82.47614 Z"
         fill="none"
         stroke="#000000"
         stroke-width="0.475352"
         style="stroke-width:1.152;stroke-dasharray:none" />
      <path
         id="part_26"
         d="m 66.270096,391.53876 1.964363,-0.92023 8.839664,0.46012 0.982185,-1.84047 H 67.252274 Z"
         fill="none"
         stroke="#000000"
         stroke-width="0.475352"
         style="stroke-width:1.152;stroke-dasharray:none" />
      <path
         id="part_28"
         d="m 37.295648,375.43467 16.697136,2.76071 -0.491092,16.10408 h -13.25949 l -1.473277,-1.38034 -2.455462,-6.44165 v -10.12256 z"
         fill="none"
         stroke="#000000"
         stroke-width="0.475352"
         style="stroke-width:1.152;stroke-dasharray:none" />
      <path
         id="part_14"
         d="m 182.65898,401.20121 -10.31294,0.46012 -0.98219,1.84047 10.31294,-0.46012 z"
         fill="none"
         stroke="#000000"
         stroke-width="0.475352"
         style="display:inline;stroke-width:1.152;stroke-dasharray:none" />
      <path
         id="part_9"
         d="m 196.90065,409.94344 -10.31294,0.46011 -0.98218,1.84047 10.31294,-0.46012 z"
         fill="none"
         stroke="#000000"
         stroke-width="0.475352"
         style="stroke-width:1.152;stroke-dasharray:none" />
      <path
         id="part_11"
         d="m 155.15781,408.56308 h 10.80402 l 0.98219,-1.84046 h -10.31293 z"
         fill="none"
         stroke="#000000"
         stroke-width="0.475352"
         style="stroke-width:1.152;stroke-dasharray:none" />
      <path
         id="part_12"
         d="m 140.42503,407.18273 1.96437,-0.92023 8.34858,0.46012 0.98218,-1.84047 h -10.31294 z"
         fill="none"
         stroke="#000000"
         stroke-width="0.475352"
         style="stroke-width:1.152;stroke-dasharray:none" />
      <path
         id="part_13"
         d="m 136.98739,403.04168 -10.31294,0.46012 -1.47328,1.84046 10.80404,-0.46011 z"
         fill="none"
         stroke="#000000"
         stroke-width="0.475352"
         style="stroke-width:1.152;stroke-dasharray:none" />
      <path
         id="part_15"
         d="m 121.76353,401.20121 -2.45547,0.92024 -7.85747,-0.46012 -0.98218,1.84047 h 9.82184 z"
         fill="none"
         stroke="#000000"
         stroke-width="0.475352"
         style="stroke-width:1.152;stroke-dasharray:none" />
      <path
         id="part_16"
         d="m 167.9262,399.36075 -2.45546,0.92023 -8.34856,-0.46012 -0.98219,1.84047 h 10.31294 z"
         fill="none"
         stroke="#000000"
         stroke-width="0.475352"
         style="stroke-width:1.152;stroke-dasharray:none" />
      <path
         id="part_17"
         d="m 141.40722,399.82086 h 10.31294 l 0.98219,-1.84046 H 142.3894 Z"
         fill="none"
         stroke="#000000"
         stroke-width="0.475352"
         style="stroke-width:1.152;stroke-dasharray:none" />
      <path
         id="part_19"
         d="m 172.34604,396.60005 1.96437,-0.92024 8.34857,0.46012 0.98218,-1.84047 h -10.31294 z"
         fill="none"
         stroke="#000000"
         stroke-width="0.475352"
         style="stroke-width:1.152;stroke-dasharray:none" />
      <path
         id="part_20"
         d="m 122.74571,394.29946 -10.31293,0.46012 -0.98219,1.84047 10.31294,-0.46012 z"
         fill="none"
         stroke="#000000"
         stroke-width="0.475352"
         style="stroke-width:1.152;stroke-dasharray:none" />
      <path
         id="part_21"
         d="m 168.90839,392.459 -10.80403,0.46012 -0.98218,1.84046 10.80402,-0.46012 z"
         fill="none"
         stroke="#000000"
         stroke-width="0.475352"
         style="stroke-width:1.152;stroke-dasharray:none" />
      <path
         id="part_24"
         d="m 153.68453,390.61853 -2.45546,0.92023 -7.85748,-0.46011 -0.98219,1.84047 h 9.82185 z"
         fill="none"
         stroke="#000000"
         stroke-width="0.475352"
         style="stroke-width:1.152;stroke-dasharray:none" />
      <path
         id="part_25"
         d="m 127.16554,391.07865 h 10.80403 l 0.98219,-1.84047 h -10.80403 z"
         fill="none"
         stroke="#000000"
         stroke-width="0.475352"
         style="stroke-width:1.152;stroke-dasharray:none" />
      <path
         id="part_27"
         d="M 67.252274,384.17689 H 77.565216 L 78.5474,382.33643 H 68.234459 Z"
         fill="none"
         stroke="#000000"
         stroke-width="0.475352"
         style="stroke-width:1.152;stroke-dasharray:none" />
    </g>
    <g
       id="g17"
       style="stroke-width:1.152;stroke-dasharray:none">
      <path
         id="part_36"
         d="m 273.51104,362.5514 3.43764,0.46012 -1.96434,0.46012 z"
         fill="none"
         stroke="#000000"
         stroke-width="0.475352"
         style="stroke-width:1.152;stroke-dasharray:none" />
      <path
         id="part_40"
         d="m 309.36081,360.71093 40.76061,-0.46011 3.92876,0.92024 -40.26957,0.92023 z"
         fill="none"
         stroke="#000000"
         stroke-width="0.475352"
         style="stroke-width:1.152;stroke-dasharray:none" />
      <path
         id="part_43"
         d="m 287.75277,363.01152 -7.36639,-0.46012 -8.83968,-2.7607 -4.91092,-2.7607 20.62587,-1.38035 z"
         fill="none"
         stroke="#000000"
         stroke-width="0.475352"
         style="stroke-width:1.152;stroke-dasharray:none" />
      <path
         id="part_44"
         d="m 388.91777,351.96872 -3.92875,13.8035 -92.3254,0.92024 -10.3129,-1.84047 h 6.87527 l 0.49112,-6.44164 h 10.80402 l 0.49112,2.30058 12.27731,2.76071 71.20834,-0.92024 3.43763,-10.58268 z"
         fill="none"
         stroke="#000000"
         stroke-width="0.475352"
         style="stroke-width:1.152;stroke-dasharray:none" />
      <path
         id="part_45"
         d="m 386.95336,351.04848 -3.43763,10.12258 h -17.67929 l -11.78626,-2.30059 h -6.87527 l -15.22389,-2.30059 h -42.72503 l 0.49112,-0.92023 66.29748,-3.22082 4.4198,5.06129 5.40205,2.30058 h 16.69712 l 2.45546,-8.2821 z"
         fill="none"
         stroke="#000000"
         stroke-width="0.475352"
         style="stroke-width:1.152;stroke-dasharray:none" />
      <path
         id="part_46"
         d="m 383.51573,351.04848 -2.45547,7.36187 h -14.73277 l -4.4198,-1.84047 -3.92876,-4.14105 z"
         fill="none"
         stroke="#000000"
         stroke-width="0.475352"
         style="stroke-width:1.152;stroke-dasharray:none" />
      <path
         id="part_47"
         d="m 390.39099,347.82766 -1.47322,4.14106 -0.49112,-2.76071 -63.3509,3.68094 -61.8776,2.30058 -0.49113,1.38035 5.40205,2.76071 0.49105,1.38034 -12.27731,-5.5214 45.67161,-3.68093 81.03018,-4.14105 z"
         fill="none"
         stroke="#000000"
         stroke-width="0.475352"
         style="stroke-width:1.152;stroke-dasharray:none" />
    </g>
  </g>
  <g
     inkscape:groupmode="layer"
     id="layer6"
     inkscape:label="_thumbs"
     style="display:inline">
    <g
       id="t1"
       style="display:inline;stroke-width:1.64972373;stroke-dasharray:none"
       transform="matrix(0.69829874,0,0,0.69829874,-188.09462,588.34326)">
      <path
         id="path1"
         d="m 682.09989,135.71382 0.98217,0.92023 v 35.42899 l -30.44772,0.92024 4.91093,-10.58269 8.34855,-11.50292 z"
         fill="none"
         stroke="#000000"
         stroke-width="0.475352"
         style="stroke-width:1.64972373;stroke-dasharray:none" />
      <path
         id="path2"
         d="m 808.80169,81.420029 12.27731,43.250981 4.91093,43.25098 -38.79628,2.76071 -102.6383,1.38034 v -35.88911 l -1.47329,-2.30058 11.78619,-11.0428 24.55462,-19.78503 18.66153,-10.582691 20.62587,-7.82198 25.5368,-3.68094 z"
         fill="none"
         stroke="#000000"
         stroke-width="0.475352"
         style="stroke-width:1.64972373;stroke-dasharray:none" />
      <path
         id="path3"
         d="m 812.23932,80.959909 8.83968,0.92024 15.71495,42.790861 7.8575,39.10993 -0.49112,2.7607 -13.7506,0.46012 -5.40197,-43.25099 z"
         fill="none"
         stroke="#000000"
         stroke-width="0.475352"
         style="stroke-width:1.64972373;stroke-dasharray:none" />
      <path
         id="path4"
         d="m 841.21375,172.52316 -0.49105,0.92023 -54.02017,4.14105 -121.29983,2.30059 -23.08133,-0.46012 0.98217,-5.06128 144.38116,-2.30059 35.35864,-2.7607 7.36639,0.46012 0.49112,-0.92023 5.8931,-0.46013 z"
         fill="none"
         stroke="#000000"
         stroke-width="0.475352"
         style="display:inline;stroke-width:1.64972373;stroke-dasharray:none" />
    </g>
    <g
       id="t2"
       style="display:inline;stroke-width:1.44097887;stroke-dasharray:none"
       transform="matrix(0.79945655,0,0,0.79945655,-401.30533,663.73999)">
      <path
         id="path5"
         d="m 920.77071,121.91031 11.29515,6.90175 14.73277,12.42316 -0.49112,9.20234 -8.83961,8.28209 -3.4377,0.46012 -0.98217,-0.92023 -12.76836,-34.96888 z"
         fill="none"
         stroke="#000000"
         stroke-width="0.475352"
         style="stroke-width:1.44097887;stroke-dasharray:none" />
      <path
         id="path6"
         d="m 927.15493,120.52996 18.66153,12.88327 8.34856,8.74222 1.47329,5.06129 v 5.5214 l -1.96442,4.60116 -5.40197,5.06129 -3.4377,0.92024 -2.94652,-4.14106 4.91093,-3.68094 3.43763,-5.5214 v -9.66245 l -20.62587,-16.56421 z"
         fill="none"
         stroke="#000000"
         stroke-width="0.475352"
         style="stroke-width:1.44097887;stroke-dasharray:none" />
      <path
         id="path7"
         d="m 915.36874,117.30914 2.94651,4.14105 13.75061,39.57005 -2.45547,-0.92023 -5.89309,-20.70526 -8.34856,-19.78502 z"
         fill="none"
         stroke="#000000"
         stroke-width="0.475352"
         style="stroke-width:1.44097887;stroke-dasharray:none" />
      <path
         id="path8"
         d="m 825.00776,84.180729 1.47321,-0.46011 42.72503,11.50292 41.25182,20.245141 8.8396,20.70525 7.36639,24.84631 -76.61038,5.06128 -0.98217,-0.92023 -8.34856,-40.9504 z"
         fill="none"
         stroke="#000000"
         stroke-width="0.475352"
         style="stroke-width:1.44097887;stroke-dasharray:none" />
      <path
         id="path9"
         d="m 942.86987,162.8607 -1.47329,1.84047 -9.82185,1.84047 -87.90552,6.44164 -3.43763,-4.14105 93.30757,-6.44164 6.38421,-2.30058 z"
         fill="none"
         stroke="#000000"
         stroke-width="0.475352"
         style="display:inline;stroke-width:1.44097887;stroke-dasharray:none" />
    </g>
    <g
       id="t3"
       style="display:inline;stroke-width:2.16675725;stroke-dasharray:none"
       transform="matrix(0.53167008,0,0,0.53167008,56.64626,700.90907)">
      <path
         id="path10"
         d="m 918.80637,114.54844 h -1.96441 l -28.48331,-16.104091 -32.41213,-12.42315 -25.04567,-6.44164 -21.11699,-2.30058 h -30.44772 l -15.2239,2.30058 -14.7327,4.60117 -14.73277,6.44163 -16.69719,11.502931 -24.55462,19.78502 -28.48331,27.60701 -8.34855,11.50292 -5.89317,11.50292 h -7.36639 l 22.09916,-30.82783 29.46555,-29.90759 30.93884,-22.545721 13.7506,-7.82199 16.206,-5.52141 17.67936,-3.22081 h 16.69711 l 39.77852,4.14105 38.79628,10.58269 41.25173,20.705261 z"
         fill="none"
         stroke="#000000"
         stroke-width="0.475352"
         style="stroke-width:2.16675725;stroke-dasharray:none" />
      <path
         id="path11"
         d="m 909.96669,105.80622 h -1.96434 L 869.206,86.021199 830.40973,75.438509 790.14016,71.297459 h -17.18824 l -17.67928,3.22082 -16.20607,5.5214 -14.73277,8.2821 -30.93884,22.545721 -28.97443,29.44748 -22.59021,31.28794 -38.30523,-0.46011 8.83968,-5.06129 42.23391,-40.49028 30.93884,-26.686771 15.71495,-11.50292 16.20606,-9.20233 17.18824,-6.90176 17.18824,-4.14105 11.78619,-0.92024 h 37.32298 l 31.92101,5.06129 30.93884,10.58269 42.72503,21.165371 z"
         fill="none"
         stroke="#000000"
         stroke-width="0.475352"
         style="stroke-width:2.16675725;stroke-dasharray:none" />
    </g>
    <g
       id="t4"
       style="display:inline;stroke-width:1.90909424;stroke-dasharray:none"
       transform="matrix(0.60342752,0,0,0.60342752,81.30289,523.91736)">
      <path
         id="path12"
         d="m 541.64749,90.162249 0.98217,0.46011 -0.49112,2.30059 -1.96434,-0.92023 z"
         fill="none"
         stroke="#000000"
         stroke-width="0.475352"
         style="stroke-width:1.90909424;stroke-dasharray:none" />
      <path
         id="path13"
         d="m 559.81789,87.861669 -17.67935,9.66245 -15.22383,-0.46012 0.49105,-5.98151 11.29514,-1.38036 0.49113,3.68094 3.92868,0.92023 1.47329,-5.06128 z"
         fill="none"
         stroke="#000000"
         stroke-width="0.475352"
         style="stroke-width:1.90909424;stroke-dasharray:none" />
      <path
         id="path14"
         d="m 713.52978,78.659329 -13.75061,7.82198 -15.71494,11.50292 -30.93884,26.686781 -42.23391,40.49028 -9.33073,5.52141 -5.89316,1.84046 -12.27732,1.84047 -86.92328,0.46011 -141.92569,5.06129 -51.07359,3.68093 47.14484,-30.82782 46.16266,-25.30643 28.48338,-12.42315 30.44771,-11.04281 37.81411,-10.582681 31.42989,-3.22082 0.98217,8.74222 h 16.69719 l 21.11699,-11.0428 2.45546,-2.76071 39.77845,-4.60116 93.79861,-2.30058 z"
         fill="none"
         stroke="#000000"
         stroke-width="0.475352"
         style="stroke-width:1.90909424;stroke-dasharray:none" />
    </g>
    <g
       id="t5"
       style="display:inline;stroke-width:1.152;stroke-dasharray:none"
       transform="translate(-278,469)">
      <path
         id="path15"
         d="m 743.48638,67.616529 -9.33073,2.30058 -16.69712,6.90175 -111.96909,2.30059 -52.54688,6.44163 h -7.85744 l 84.95894,-13.8035 106.07593,-4.60117 z"
         fill="none"
         stroke="#000000"
         stroke-width="0.475352"
         style="stroke-width:1.152;stroke-dasharray:none" />
    </g>
    <g
       id="t6"
       style="display:inline;stroke-width:2.26806402;stroke-dasharray:none"
       transform="matrix(0.50792217,0,0,0.50792217,-193.26362,438.05184)">
      <path
         id="path16"
         d="m 848.58013,190.0076 3.43764,5.98151 6.87534,19.32492 -0.98217,0.92022 -61.38656,3.22082 -130.63056,11.96304 -0.49112,1.38035 131.6128,-11.96303 61.87761,-3.68094 -0.49113,39.10993 -3.92875,42.79086 -62.85978,9.20234 -119.82653,39.57004 v 0.92024 l 134.06818,-18.86479 54.5113,-11.50292 0.49105,0.92023 -5.40198,15.18386 -2.94658,15.18385 -188.08836,32.20818 0.98217,-80.52045 -3.92868,-64.87647 -6.38422,-23.92607 -7.8575,-20.70526 181.70414,-0.46011 z"
         fill="none"
         stroke="#000000"
         stroke-width="0.475352"
         style="stroke-width:2.26806402;stroke-dasharray:none" />
      <path
         id="path17"
         d="m 840.7227,198.2897 -0.98217,4.14105 -4.91093,3.22082 -23.57245,-0.46012 0.98217,-2.30058 h 9.82185 l 9.33073,-1.38035 1.47329,-3.68094 z"
         fill="none"
         stroke="#000000"
         stroke-width="0.475352"
         style="stroke-width:2.26806402;stroke-dasharray:none" />
      <path
         id="path18"
         d="m 848.08909,188.16713 -19.6437,1.84047 H 646.74125 l -3.92876,-6.44164 v -1.84046 l 144.38116,-2.76071 54.51122,-4.14105 z"
         fill="none"
         stroke="#000000"
         stroke-width="0.475352"
         style="stroke-width:2.26806402;stroke-dasharray:none" />
      <path
         id="path19"
         d="m 842.19599,196.44923 h -10.31297 l -1.47329,3.68094 -8.83968,1.38035 h -9.82185 l -2.45546,2.7607 1.47329,2.7607 h 24.55462 l 2.94659,-0.92023 2.45546,-2.30059 z"
         fill="none"
         stroke="#000000"
         stroke-width="0.475352"
         style="stroke-width:2.26806402;stroke-dasharray:none" />
      <path
         id="path20"
         d="m 859.87528,316.53972 -51.56471,11.50293 -117.37107,17.02432 h -5.8931 l 107.05817,-35.429 62.36866,-9.20233 z"
         fill="none"
         stroke="#000000"
         stroke-width="0.475352"
         style="stroke-width:2.26806402;stroke-dasharray:none" />
    </g>
    <g
       id="t7"
       style="display:inline;stroke-width:1.84283114;stroke-dasharray:none"
       transform="matrix(0.6251251,0,0,0.6251251,-391.49481,548.18969)">
      <path
         id="path21"
         d="m 958.09377,222.67589 11.29507,11.50292 3.43771,5.98152 v 2.30058 l -35.84977,79.60021 -3.92875,5.5214 -7.36639,6.44164 -11.78619,5.98152 -59.42222,9.66245 2.45546,-14.72374 5.89317,-17.02432 81.52131,-17.48443 -0.98217,-1.84047 -6.87534,-4.14106 -14.24165,-4.60116 h -8.83968 l -56.96669,8.2821 3.43764,-41.41052 0.98217,-39.10992 59.42222,-4.14105 h 15.22382 l 10.31297,2.76069 z"
         fill="none"
         stroke="#000000"
         stroke-width="0.475352"
         style="stroke-width:1.84283114;stroke-dasharray:none" />
      <path
         id="path22"
         d="m 974.29976,236.93951 -1.47321,0.46012 -3.92876,-6.44164 -9.3308,-9.20233 -13.25948,-6.90176 -10.3129,-2.76069 h -16.20607 l -58.43997,3.68093 -10.80402,-25.76654 126.21068,-8.2821 1.96441,16.10408 -0.98217,25.76654 z"
         fill="none"
         stroke="#000000"
         stroke-width="0.475352"
         style="stroke-width:1.84283114;stroke-dasharray:none" />
      <path
         id="path23"
         d="m 971.35325,180.34515 -121.29982,7.82198 -6.38422,-13.34339 88.39665,-6.90175 11.29514,-2.30058 10.31289,8.2821 z"
         fill="none"
         stroke="#000000"
         stroke-width="0.475352"
         style="stroke-width:1.84283114;stroke-dasharray:none" />
      <path
         id="path24"
         d="m 954.16502,139.39475 33.88535,30.82782 24.06353,9.66246 v 1.38035 l -2.4555,0.46012 -8.3486,-1.84047 -24.55457,0.46012 -19.6437,-6.44164 -5.8931,-3.22081 -5.89309,-5.52141 4.4198,-1.84046 6.38422,-6.90176 0.98217,-9.66245 z"
         fill="none"
         stroke="#000000"
         stroke-width="0.475352"
         style="stroke-width:1.84283114;stroke-dasharray:none" />
      <path
         id="path25"
         d="m 941.39658,299.5154 -78.57472,17.02432 -2.94658,-2.7607 -3.43764,-13.34338 57.45781,-9.20234 h 7.85743 l 13.25956,4.14105 z"
         fill="none"
         stroke="#000000"
         stroke-width="0.475352"
         style="stroke-width:1.84283114;stroke-dasharray:none" />
      <path
         id="path26"
         d="m 964.96904,192.7683 -0.49113,2.30059 -3.43763,2.76069 H 943.361 l 1.47322,-1.84047 13.25955,-0.46011 1.47322,-3.22082 z"
         fill="none"
         stroke="#000000"
         stroke-width="0.475352"
         style="stroke-width:1.84283114;stroke-dasharray:none" />
      <path
         id="path27"
         d="m 966.44233,191.38795 -7.36639,-0.46012 -1.47329,0.92023 -0.49112,2.30059 -13.25949,0.46012 -2.45546,2.7607 1.47329,2.30058 20.13483,-0.92023 2.45546,-2.30059 z"
         fill="none"
         stroke="#000000"
         stroke-width="0.475352"
         style="stroke-width:1.84283114;stroke-dasharray:none" />
    </g>
    <g
       id="t8"
       style="display:inline;stroke-width:2.71840329;stroke-dasharray:none"
       transform="matrix(0.42377818,0,0,0.42377818,299.75177,629.97856)">
      <path
         id="path28"
         d="m 1026.8466,200.59029 8.3487,14.26361 0.9821,32.6683 h -0.9821 l -2.9466,-5.98152 -5.8931,-7.82198 -9.3308,-8.28211 -6.3842,-3.22082 -8.8396,-0.46011 -5.89312,1.38035 -3.43771,1.84047 -12.27724,12.42315 -4.91092,8.74222 -14.73278,42.33074 -5.89317,44.63133 1.4733,-0.46011 5.89309,-43.7111 14.73278,-42.33074 8.34863,-12.42316 11.29506,-9.66245 10.80398,-1.38035 5.8932,1.84047 12.2773,10.12256 5.8931,7.822 5.402,10.12256 3.9287,19.78503 v 22.54572 l -0.9821,6.44163 h -0.9822 l 0.491,-22.54572 -1.4733,-8.74222 -3.4376,-11.0428 -5.402,-11.0428 -5.8931,-8.28211 -6.3842,-5.5214 -6.3842,-1.84047 h -6.3842 l -9.33072,3.22082 -9.33072,9.20234 -6.87534,10.12256 -12.27731,35.429 -8.34856,55.21401 -7.36639,18.40468 -27.01008,1.38035 -216.08062,35.88911 -60.89544,14.26362 -11.78618,1.38035 6.87526,-6.90175 3.92875,-6.90175 2.45547,-7.82199 v -6.90175 l 15.71494,-5.5214 250.94814,-41.87063 6.38421,-2.76071 8.34856,-5.06127 8.34863,-9.20234 36.34082,-79.60021 5.40197,-20.70526 0.98224,-26.68677 -1.47329,-15.18386 2.45546,-0.92023 h 19.6437 l 12.2773,2.30058 z"
         fill="none"
         stroke="#000000"
         stroke-width="0.475352"
         style="stroke-width:2.71840329;stroke-dasharray:none" />
      <path
         id="path29"
         d="m 1014.5693,180.80526 8.8397,3.68094 5.402,5.5214 2.9466,6.44163 2.4554,11.04281 -0.491,1.84046 -5.8931,-10.12257 -13.2596,-16.10409 z"
         fill="none"
         stroke="#000000"
         stroke-width="0.475352"
         style="stroke-width:2.71840329;stroke-dasharray:none" />
      <path
         id="path30"
         d="m 645.759,388.77806 v 9.20234 l -6.87526,12.88327 -8.34856,7.36186 -10.31297,1.38036 11.29514,-10.58269 3.92876,-8.74222 0.98217,-9.66245 z"
         fill="none"
         stroke="#000000"
         stroke-width="0.475352"
         style="stroke-width:2.71840329;stroke-dasharray:none" />
      <path
         id="path31"
         d="m 948.27192,366.23233 -0.49112,2.76071 -4.91093,5.06129 -33.88535,-3.68094 0.49105,-0.92024 27.99233,-3.68093 z"
         fill="none"
         stroke="#000000"
         stroke-width="0.475352"
         style="display:inline;stroke-width:2.71840329;stroke-dasharray:none" />
    </g>
    <g
       id="t9"
       style="display:inline;stroke-width:1.48035052;stroke-dasharray:none"
       transform="matrix(0.77819407,0,0,0.77819407,-704.79013,458.02388)">
      <path
         id="path32"
         d="m 999.3455,297.67493 h 2.4555 l 4.4198,4.60117 2.4554,5.52141 1.4733,7.36186 -0.9821,17.94455 -1.9645,6.44164 -5.8931,6.90176 -4.41975,-0.92024 -2.45547,-2.7607 -3.43763,-9.66246 -0.98217,-7.82198 1.47322,-16.10409 2.94658,-6.90175 z"
         fill="none"
         stroke="#000000"
         stroke-width="0.475352"
         style="stroke-width:1.48035052;stroke-dasharray:none" />
      <path
         id="path33"
         d="m 995.90788,316.99984 2.45542,1.38035 0.9822,6.90175 -2.45545,3.22082 h -1.4733 l -2.45546,-3.22082 0.49112,-5.98152 z"
         fill="none"
         stroke="#000000"
         stroke-width="0.475352"
         style="stroke-width:1.48035052;stroke-dasharray:none" />
      <path
         id="path34"
         d="m 998.8544,264.54652 h 7.3664 l 11.7862,10.58269 6.3842,13.34338 4.9109,25.30643 v 22.54572 l -4.4198,21.16538 -2.4555,6.90175 -5.8931,9.66246 -6.3842,5.98151 -4.9109,1.84047 -4.9109,-0.46012 -4.41982,-2.30058 -6.87534,-7.36187 0.98224,-0.46012 3.92868,2.30058 h 4.91094 l 3.4376,-1.38034 6.8754,-5.98153 3.4376,-5.98151 6.3842,-18.40467 1.4733,-11.96304 v -20.70526 l -0.9823,-7.82199 -3.9286,-13.8035 -5.8932,-11.50292 -7.3664,-6.44163 -3.9287,-0.92023 -6.8753,0.92023 z"
         fill="none"
         stroke="#000000"
         stroke-width="0.475352"
         style="stroke-width:1.48035052;stroke-dasharray:none" />
      <path
         id="path35"
         d="m 1016.0426,236.01928 5.8931,5.5214 5.8932,8.2821 4.9109,10.12258 3.4376,11.0428 1.4732,8.74222 -0.491,23.92607 -2.9466,12.88327 -1.4732,-1.38035 -0.4911,-11.0428 -4.4198,-21.16538 -5.8932,-13.8035 -6.3841,-10.12257 -4.911,-4.60117 -8.8396,-3.68093 -6.87537,0.46011 -5.89309,2.76071 -4.41981,4.14105 -8.83967,14.26362 -5.8931,18.86479 -3.43763,22.08561 0.49105,23.46595 2.94658,22.08561 5.40205,16.10409 7.36638,13.34338 8.83961,7.82199 -15.71494,0.46012 -21.60804,-1.38035 -10.80402,-4.60117 -8.83968,-7.82199 -4.41981,-7.82198 13.25949,0.46011 4.4198,-3.68093 1.96434,-5.52141 2.45546,-1.38034 6.87534,-18.40467 8.34856,-55.21402 11.78619,-34.50877 6.87534,-10.12256 9.82185,-9.66246 8.34852,-2.7607 h 5.402 z"
         fill="none"
         stroke="#000000"
         stroke-width="0.475352"
         style="stroke-width:1.48035052;stroke-dasharray:none" />
      <path
         id="path36"
         d="m 995.90788,270.06792 5.89312,0.92024 1.9643,1.38035 7.8575,9.66245 4.4198,12.42315 2.9466,15.18386 v 19.78502 l -3.4376,19.32491 -7.3664,16.10409 -5.4021,5.06128 -4.4198,2.30059 h -3.92872 l -3.43763,-1.84047 -6.38422,-6.44164 -4.91092,-13.8035 -2.94658,-17.94456 v -17.48444 l 4.41987,-25.76654 6.38422,-13.34339 4.4198,-4.14105 z"
         fill="none"
         stroke="#000000"
         stroke-width="0.475352"
         style="stroke-width:1.48035052;stroke-dasharray:none" />
      <path
         id="path37"
         d="m 998.8544,296.29458 -3.92877,2.7607 -3.43763,5.5214 -1.96434,5.98152 -0.98217,14.72374 0.98217,8.28211 3.92875,10.58268 4.91089,3.68093 h 3.4377 l 6.3842,-6.90174 2.4554,-7.36187 0.9822,-18.8648 -1.4733,-7.36187 -2.9466,-6.44163 -3.9286,-4.14105 z"
         fill="none"
         stroke="#000000"
         stroke-width="0.475352"
         style="stroke-width:1.48035052;stroke-dasharray:none" />
      <path
         id="path38"
         d="m 1001.3098,252.12337 7.8576,3.22081 5.4019,5.06129 4.4199,6.44164 7.3664,16.5642 3.9287,20.70526 h -0.9822 l -3.4376,-16.10409 -2.9466,-7.36187 -3.9287,-6.90176 -8.8397,-8.74221 -3.4376,-1.84046 h -8.3486 l -5.40201,2.76069 -3.43763,3.22082 -5.40205,8.74222 -4.4198,10.58268 -4.4198,25.76655 v 18.40467 l 4.91092,24.38619 6.87527,15.18386 7.36638,7.82198 7.36642,3.22082 6.3842,-0.46012 3.4376,-1.84047 7.3664,-7.36187 7.3664,-15.64396 4.4198,-21.16538 V 316.0796 h 0.9822 v 22.08561 l -3.4377,22.08561 -3.4376,11.0428 -5.8931,11.96304 -8.8397,8.74222 -4.4198,2.30058 -10.31295,2.30059 -4.4198,-2.30059 -7.36639,-7.36187 -5.89309,-10.12257 -3.92875,-10.12256 -4.41988,-19.32491 -1.47322,-33.58853 5.8931,-31.74806 7.36638,-16.5642 9.33073,-10.58269 4.91092,-2.30058 z"
         fill="none"
         stroke="#000000"
         stroke-width="0.475352"
         style="stroke-width:1.48035052;stroke-dasharray:none" />
      <path
         id="path39"
         d="m 995.41675,315.61949 -3.43763,3.22082 -0.49112,6.44163 2.94658,4.60117 h 3.43762 l 2.4555,-2.7607 0.4911,-5.98152 -1.4733,-4.14105 z"
         fill="none"
         stroke="#000000"
         stroke-width="0.475352"
         style="stroke-width:1.48035052;stroke-dasharray:none" />
    </g>
    <g
       id="t10"
       style="display:inline;stroke-width:2.78442065;stroke-dasharray:none"
       transform="matrix(0.41373059,0,0,0.41373059,-150.83214,424.54088)">
      <path
         id="path40"
         d="m 551.46934,289.85295 7.85743,1.38035 9.3308,4.14105 7.85744,5.06129 9.33073,9.20233 7.36638,10.12257 5.89317,11.50292 7.85744,26.68678 0.98217,28.52723 -1.47322,14.72374 -3.43771,13.80351 -9.82185,23.92608 -8.34855,12.88327 -11.29515,11.50292 -6.38414,5.06128 -8.34856,4.60117 -11.29514,3.22082 h -12.76843 l -6.38422,-0.92024 -7.85743,-3.22081 -9.82185,-5.98153 -9.33073,-9.20233 -7.36639,-10.12257 -5.89317,-11.50292 -4.4198,-12.88327 -2.94658,-13.80351 -1.47322,-28.52724 1.47322,-14.72373 3.4377,-14.26363 9.33073,-22.54572 8.83968,-13.80351 11.29514,-11.50292 6.38414,-5.06128 7.85751,-4.14105 11.78619,-3.68094 z"
         fill="none"
         stroke="#000000"
         stroke-width="0.475352"
         style="stroke-width:2.78442065;stroke-dasharray:none" />
      <path
         id="path41"
         d="m 545.67783,311.26153 11.4705,3.47171 6.8823,4.33962 7.79992,7.37737 5.50584,7.81133 4.58819,9.54718 4.58821,14.32078 2.2941,14.32077 v 19.09437 l -3.21173,19.09436 -3.67058,10.84907 -4.58819,9.98115 -7.34109,10.41511 -6.88229,7.37737 -12.3882,8.24529 -7.79993,2.16981 -10.09403,0.43397 -5.04704,-0.86793 -12.38813,-6.9434 -8.2587,-7.81134 -10.55288,-16.92455 -5.96468,-21.69814 -0.91762,-11.28303 0.91762,-23.00004 6.42346,-22.1321 8.71762,-16.49059 5.50583,-6.9434 9.1764,-8.2453 7.79993,-4.33963 7.79993,-2.16981 z"
         fill="none"
         stroke="#000000"
         stroke-width="0.446218"
         style="stroke-width:2.78442065;stroke-dasharray:none" />
      <path
         id="path42"
         d="m 534.77215,345.06697 h 7.85751 l 3.92875,1.38035 8.83961,6.90174 4.91092,7.36187 3.92876,13.3434 v 13.8035 l -5.40198,16.10409 -10.31297,11.0428 -8.34855,3.22081 h -7.36639 l -8.34856,-4.14105 -6.87534,-6.90175 -4.4198,-9.66245 -2.45546,-11.50292 1.47329,-16.10409 4.4198,-10.58268 9.82185,-11.0428 z"
         fill="none"
         stroke="#000000"
         stroke-width="0.475352"
         style="stroke-width:2.78442065;stroke-dasharray:none" />
      <path
         id="path43"
         d="m 536.73656,370.83351 5.40198,3.68093 0.98217,8.74222 -6.87527,-5.5214 1.47329,-4.14106 h -3.92875 l -2.45546,7.82199 v 4.14106 h 3.43763 l 0.49112,-3.22082 7.36639,3.22082 -2.94659,5.06128 -4.4198,1.38035 -4.91092,-4.60117 -0.98217,-5.98152 1.96434,-6.44163 2.94658,-3.22082 z"
         fill="none"
         stroke="#000000"
         stroke-width="0.475352"
         style="stroke-width:2.78442065;stroke-dasharray:none" />
      <path
         id="path44"
         d="m 578.97047,244.30138 8.83968,4.60117 9.82185,6.90176 11.78619,11.50291 8.34856,11.04281 6.38421,11.96303 4.41981,12.88327 6.38421,28.52725 1.96442,23.46595 -1.47329,34.04865 -1.4733,10.58268 -2.94658,6.90176 -9.82185,10.12257 -2.45546,0.46011 3.92875,-19.3249 0.49112,-9.66246 -0.49112,-28.06712 -2.94651,-18.40467 -4.91092,-17.02432 -6.87534,-16.1041 -11.78619,-17.48443 -10.31297,-10.58269 -8.34856,-6.44163 -13.25948,-6.90176 -13.25949,-3.68093 h -13.25948 l -13.25948,2.30058 -13.7506,5.98152 -12.27731,8.74222 -10.80402,10.12257 -14.24166,21.16537 -11.29514,25.30643 -4.41987,17.94455 -2.94652,18.8648 0.98217,37.72957 3.43764,17.94456 5.40204,16.56421 8.34856,16.10408 8.83968,13.34339 12.76836,12.42315 8.83968,6.44164 7.36639,3.22081 -2.94659,0.46013 -40.76061,-4.14106 -13.25949,-4.14105 -15.22389,-9.20234 -9.82185,-9.66245 -4.4198,-8.2821 1.96434,-8.28211 0.98217,-1.38035 3.92875,-0.92023 4.4198,-8.74222 1.96442,-7.82198 V 409.0232 l 6.87526,-52.91343 10.80402,-34.50877 14.24173,-28.52723 11.78619,-17.48445 14.73277,-13.8035 11.29514,-8.28211 15.71495,-8.28209 16.69711,-5.06129 9.82185,-1.38035 h 9.82185 l 9.82185,1.84046 z"
         fill="none"
         stroke="#000000"
         stroke-width="0.475352"
         style="stroke-width:2.78442065;stroke-dasharray:none" />
      <path
         id="path45"
         d="m 534.2811,343.68661 -9.3308,3.68094 -9.33073,10.58269 -4.91092,11.50291 -1.4733,16.56421 3.43764,14.72374 3.92875,7.82198 7.85751,7.36187 7.85744,3.68094 h 8.34855 l 9.3308,-3.68094 9.82185,-10.58269 2.94651,-5.98151 2.94659,-11.04281 V 373.5942 l -3.92876,-13.34338 -5.40197,-8.2821 -9.3308,-6.90175 -3.92875,-1.38036 z"
         fill="none"
         stroke="#000000"
         stroke-width="0.475352"
         style="stroke-width:2.78442065;stroke-dasharray:none" />
      <path
         id="path46"
         d="m 536.73656,369.45315 -5.40204,2.76071 -3.43764,8.74221 1.4733,7.82199 2.94651,3.68094 2.45546,0.92023 5.89309,-1.38035 3.92876,-6.44163 v -8.74223 l -0.98217,-2.76069 -2.94659,-3.22082 z"
         fill="none"
         stroke="#000000"
         stroke-width="0.475352"
         style="stroke-width:2.78442065;stroke-dasharray:none" />
      <path
         id="path47"
         d="m 533.78998,377.73526 4.4198,3.22081 h -4.4198 z"
         fill="none"
         stroke="#000000"
         stroke-width="0.475352"
         style="stroke-width:2.78442065;stroke-dasharray:none" />
      <path
         id="path48"
         d="m 550.97821,265.00664 13.75061,4.14105 11.29507,5.98152 8.34863,6.44164 13.25948,13.8035 8.83968,13.8035 6.87526,16.10409 4.91093,17.02432 2.94651,18.40467 v 36.80935 l -3.43763,18.40467 -5.8931,18.86479 -6.38421,15.18386 -8.34856,13.8035 -13.75061,12.88327 -15.71494,10.12257 -15.71494,6.44164 -15.71495,4.14105 -19.6437,1.38035 -11.78619,-5.06129 -8.83968,-6.44163 -13.25948,-12.88327 -8.83968,-13.34339 -7.85743,-15.18386 -5.40205,-16.5642 -3.43763,-17.94455 -0.98217,-36.80935 2.94651,-18.86479 4.91092,-19.32491 10.31297,-23.00583 14.24166,-21.16538 11.29514,-10.58268 15.22382,-10.12258 12.27731,-4.60116 10.80402,-1.84047 z"
         fill="none"
         stroke="#000000"
         stroke-width="0.475352"
         style="stroke-width:2.78442065;stroke-dasharray:none" />
      <path
         id="path49"
         d="m 551.96039,288.47259 -12.76836,0.46012 -12.76844,4.14106 -7.85743,4.14105 -6.38422,5.06128 -10.80402,11.04281 -7.36639,11.0428 -8.83968,19.3249 -5.89309,21.16538 -1.47329,14.72374 1.47329,29.44747 2.94651,13.80351 4.41988,12.88327 6.38414,12.42315 7.36639,10.12257 8.83967,8.74222 10.80402,6.44163 7.85751,3.22082 6.38422,0.92024 h 13.75053 l 12.27731,-3.68094 8.34863,-4.60117 6.38415,-5.06128 10.80402,-11.04281 7.36638,-11.0428 6.38422,-12.88327 8.34856,-27.60701 1.47329,-14.72374 -0.98217,-29.44747 -7.85751,-26.68678 -6.38414,-12.42315 -7.36639,-10.12257 -8.83968,-8.74222 -7.85751,-5.06129 -10.3129,-4.60116 z"
         fill="none"
         stroke="#000000"
         stroke-width="0.475352"
         style="stroke-width:2.78442065;stroke-dasharray:none" />
      <path
         id="path50"
         d="m 478.78764,258.565 11.29514,6.44164 -9.82185,9.20234 -9.82185,13.8035 -16.69712,33.12841 -10.80409,34.50876 -5.40197,43.7111 -0.98217,0.92023 -11.29514,1.38035 -9.33073,5.98152 9.82185,-46.01168 18.66145,-47.39203 27.99226,-48.31227 z"
         fill="none"
         stroke="#000000"
         stroke-width="0.475352"
         style="stroke-width:2.78442065;stroke-dasharray:none" />
      <path
         id="path51"
         d="m 480.26093,256.72453 13.7506,-11.96303 13.75053,-8.28211 14.24173,-5.98151 15.22382,-3.68094 11.78626,-1.38035 h 12.76836 l 9.82185,1.84047 17.67936,8.28211 14.24165,11.50291 18.66153,20.24514 11.78619,19.32491 10.31297,33.12841 2.94652,22.54572 0.98217,19.32491 -1.47322,25.30642 -9.82185,1.38035 1.47322,-33.58852 -1.96434,-23.46596 -6.38422,-28.52724 -4.4198,-12.88327 -7.85751,-14.26363 -7.36639,-9.66245 -11.29507,-11.0428 -13.25955,-8.74222 -16.206,-6.90175 -10.31297,-1.84047 h -10.3129 l -9.82184,1.38035 -16.69719,5.06128 -16.69712,8.74223 -14.24165,11.0428 -10.31297,-5.06129 z"
         fill="none"
         stroke="#000000"
         stroke-width="0.475352"
         style="stroke-width:2.78442065;stroke-dasharray:none" />
    </g>
    <g
       id="t11"
       style="display:inline;stroke-width:2.10942005;stroke-dasharray:none"
       transform="matrix(0.54612167,0,0,0.54612167,264.45111,505.52753)">
      <path
         id="path52"
         d="m 397.26633,258.565 30.44772,-21.62549 29.9566,-27.60701 v -6.44163 l 93.79869,-11.96304 93.30749,0.46012 8.83968,21.62549 6.38422,23.92607 3.92868,64.87647 -1.47322,80.06033 -12.76843,4.60116 -1.47329,-0.46011 1.47329,-36.34923 -3.92876,-30.36771 -11.29506,-34.96888 -11.29515,-18.40467 -13.25948,-15.18385 -19.15265,-16.10409 -18.66145,-8.74222 -9.82185,-1.84047 h -13.75061 l -11.78619,1.38035 -15.22389,3.68094 -15.22383,6.44164 -13.7506,8.28209 -14.24173,12.88327 -14.7327,-2.76069 H 441.9557 l -21.11692,1.38034 z"
         fill="none"
         stroke="#000000"
         stroke-width="0.475352"
         style="stroke-width:2.10942005;stroke-dasharray:none" />
      <path
         id="path53"
         d="m 648.21447,229.57764 -2.94652,-2.7607 -25.53679,1.38036 -3.43763,1.84046 -0.49112,3.68094 5.89309,8.74221 5.8931,5.98153 h 3.43763 l 16.69719,-16.10409 z"
         fill="none"
         stroke="#000000"
         stroke-width="0.475352"
         style="stroke-width:2.10942005;stroke-dasharray:none" />
      <path
         id="path54"
         d="m 633.97281,234.63893 -1.96434,5.98151 -3.4377,3.68094 -9.33073,-10.58268 14.24165,-0.92024 z"
         fill="none"
         stroke="#000000"
         stroke-width="0.475352"
         style="stroke-width:2.10942005;stroke-dasharray:none" />
      <path
         id="path55"
         d="m 645.26795,230.49788 -11.29514,11.0428 1.4733,-8.28211 z"
         fill="none"
         stroke="#000000"
         stroke-width="0.475352"
         style="stroke-width:2.10942005;stroke-dasharray:none" />
      <path
         id="path56"
         d="m 640.84808,230.03776 -8.34856,1.84047 -13.7506,-0.46012 0.98224,-0.92023 z"
         fill="none"
         stroke="#000000"
         stroke-width="0.475352"
         style="stroke-width:2.10942005;stroke-dasharray:none" />
      <path
         id="path57"
         d="m 644.77683,189.54748 h -93.79862 l -92.32532,11.96304 -12.27731,-1.38035 -45.1805,11.50292 -5.89316,0.46012 11.78626,-4.60117 78.08367,-17.48444 73.66387,-6.44164 83.97677,3.22082 z"
         fill="none"
         stroke="#000000"
         stroke-width="0.475352"
         style="stroke-width:2.10942005;stroke-dasharray:none" />
    </g>
    <g
       id="t12"
       style="display:inline;stroke-width:2.44968278;stroke-dasharray:none"
       transform="matrix(0.47026497,0,0,0.47026497,499.8987,451.5092)">
      <path
         id="path58"
         d="m 641.3392,173.44339 -0.98217,4.14105 H 534.2811 l -56.96676,8.28211 -1.47321,-1.38035 h -2.94659 l -22.59028,5.06128 -22.09909,2.7607 -22.09916,6.44164 -46.16274,9.20234 -128.66613,50.15273 -19.64372,4.60116 -20.13478,2.30059 h -44.6894 l -18.66151,-1.38035 H 63.323541 l -2.946555,-1.84047 0.982185,-2.30058 16.206045,-12.42316 106.075944,-38.18969 116.87997,-23.46596 54.51122,-4.14105 141.92569,-5.06128 93.30757,-0.92024 7.85744,-2.30058 z"
         fill="none"
         stroke="#000000"
         stroke-width="0.475352"
         style="stroke-width:2.44968278;stroke-dasharray:none" />
      <path
         id="path59"
         d="m 126.67445,251.66325 5.89311,-3.22081 v -2.30059 h 9.82184 l 3.43765,1.38035 -1.47328,0.92024 -4.41983,-0.92024 -12.2773,4.60117 z"
         fill="none"
         stroke="#000000"
         stroke-width="0.475352"
         style="stroke-width:2.44968278;stroke-dasharray:none" />
      <path
         id="path60"
         d="m 149.2647,246.60197 -6.3842,-1.84047 h -11.78622 l -3.43764,4.60117 -9.33076,4.60117 -1.96437,2.30058 h 3.92874 l 20.13478,-7.36187 4.41984,0.92023 3.92874,-1.84047 z"
         fill="none"
         stroke="#000000"
         stroke-width="0.475352"
         style="stroke-width:2.44968278;stroke-dasharray:none" />
      <path
         id="path61"
         d="m 276.94868,188.62724 -92.32534,18.40468 -100.18283,36.34923 -1.473277,-0.46011 7.857472,-5.98153 29.956635,-17.02432 33.88538,-12.88327 35.84973,-8.2821 55.00234,-7.82199 27.50121,-2.7607 z"
         fill="none"
         stroke="#000000"
         stroke-width="0.475352"
         style="stroke-width:2.44968278;stroke-dasharray:none" />
    </g>
    <g
       id="t13"
       style="display:inline;stroke-width:3.25351517;stroke-dasharray:none"
       transform="matrix(0.35407857,0,0,0.35407857,811.42192,630.44363)">
      <path
         id="path62"
         d="m 425.25859,453.65454 -2.94659,9.66245 -44.68937,-8.74223 33.88535,-1.38035 z"
         fill="none"
         stroke="#000000"
         stroke-width="0.475352"
         style="stroke-width:3.25351517;stroke-dasharray:none" />
      <path
         id="path63"
         d="m 14.705401,403.96192 4.419833,0.46011 40.76066,14.26363 49.600326,9.20233 154.20297,7.82199 172.37342,-0.46012 -1.96434,7.82199 -4.91093,8.74222 -56.47563,1.38034 -93.79862,-1.38034 -7.85751,-1.38035 -8.34856,-3.68094 -112.95123,-9.66245 -111.96905,-21.62549 -14.732774,-5.5214 z"
         fill="none"
         stroke="#000000"
         stroke-width="0.475352"
         style="stroke-width:3.25351517;stroke-dasharray:none" />
      <path
         id="path64"
         d="m 640.84808,179.42491 0.49112,5.98152 -82.9946,-3.22082 -73.66387,6.44163 -79.55696,17.94456 -71.69946,26.68677 -49.10925,13.80351 -46.16266,22.08561 -0.49105,2.30058 1.96434,2.30058 24.55463,6.44165 29.46554,1.38035 37.81411,-4.60117 41.25174,-7.82199 10.80402,-3.22082 10.31297,-5.06129 27.50113,-4.14105 41.74286,-1.38035 13.25948,2.76071 -6.87526,9.66245 -25.53679,43.7111 -20.62587,53.83367 -10.31298,47.85215 1.4733,-0.46013 4.4198,-5.5214 5.89309,-3.68093 11.78627,-1.84047 -0.98225,31.74807 -171.39116,0.92022 -154.203,-7.82198 -49.600334,-9.20234 -44.6894,-15.18385 -2.946555,-2.30059 0.491093,-3.22081 5.402017,-7.82199 8.839657,-7.82199 -3.437647,-8.28209 -5.40201,-5.06129 2.455455,-0.46012 67.279654,12.88327 75.13712,5.98152 h 135.54147 l 79.55696,-1.38035 -7.85743,20.24514 -6.38422,7.36187 -61.87768,4.14105 -62.36866,1.84046 -1.96441,-5.06127 -2.94651,-2.76071 -27.01012,-18.86479 -84.46787,-5.5214 -86.923345,-11.96303 -1.96437,1.84046 v 11.0428 l 2.946555,7.36187 4.419832,3.22082 97.727368,19.78502 97.72741,5.06129 0.49105,1.38035 58.43997,-1.38035 57.45781,-3.68093 8.34856,-2.76071 7.36638,-6.44163 14.73278,-33.12841 7.36638,-30.36772 -79.06584,4.14106 H 291.1904 l -13.7506,-2.7607 -13.25948,-4.14105 -12.76844,-5.98152 -10.80402,-7.36187 -29.46553,-16.5642 -33.39428,-11.50293 -73.17275,-9.20233 -77.592594,-1.38035 18.170414,-24.84631 26.027893,-24.38619 3.437648,-5.06129 34.376469,-18.86479 36.34083,-13.34338 57.4578,-11.04281 15.71496,-0.92023 v 0.92023 l -28.48336,3.68094 -35.84974,8.2821 -32.90319,12.42315 -31.920995,17.94456 -14.732774,10.58269 -14.732767,11.96303 -0.982185,3.22082 1.473277,2.7607 67.279654,0.46012 18.6615,1.38035 h 45.67159 l 12.27731,-1.38035 28.97444,-5.98152 53.038,-20.24514 v 0.92023 l -56.96673,25.30643 -0.49109,1.38035 h 1.47328 l 96.25411,-43.25098 86.92335,-24.84631 38.30515,-7.82199 82.9946,-11.50292 z"
         fill="none"
         stroke="#000000"
         stroke-width="0.475352"
         style="stroke-width:3.25351517;stroke-dasharray:none" />
      <path
         id="path65"
         d="m 361.90769,414.08448 -8.34856,3.22082 -57.4578,3.68094 -55.98452,0.92023 1.47322,-2.7607 61.38656,-1.38035 z"
         fill="none"
         stroke="#000000"
         stroke-width="0.475352"
         style="display:inline;stroke-width:3.25351517;stroke-dasharray:none" />
      <path
         id="path66"
         d="m 117.3437,213.47356 -10.80403,4.14105 -33.394287,18.40467 -2.946555,4.60116 -41.251752,40.03017 3.928739,-8.74222 10.804035,-15.64397 15.714951,-15.64398 10.804027,-8.28209 19.643699,-11.04281 18.661513,-6.90175 6.38419,-1.38035 z"
         fill="none"
         stroke="#000000"
         stroke-width="0.475352"
         style="display:inline;stroke-width:3.25351517;stroke-dasharray:none" />
    </g>
    <g
       id="t14"
       style="display:inline;stroke-width:1.85503754;stroke-dasharray:none"
       transform="matrix(0.62101169,0,0,0.62101169,487.98357,450.27927)">
      <path
         id="path67"
         d="m 456.19743,204.27122 v 4.14105 l -29.95667,27.60701 -33.39431,23.92608 -14.24165,5.98151 -47.63595,9.66245 -37.81411,4.60118 -28.48338,-1.38036 -25.53679,-7.36187 0.98224,-1.84046 11.29507,-5.06129 0.98217,1.84047 13.25956,5.06128 14.24165,2.76071 19.15258,0.46011 84.95901,-12.88327 0.49105,-1.38035 -6.87527,0.46011 -79.06584,12.42316 -18.17041,-0.46011 -14.24172,-2.76071 -14.24166,-5.06128 v -0.92024 l 32.90319,-15.64396 19.15257,-5.5214 0.49112,1.38034 37.32299,-4.14105 35.35864,-8.2821 54.51129,-21.62549 20.62587,-5.06129 0.49105,-1.38035 h -2.45546 l -19.15258,5.06129 -54.51122,21.62549 -35.35864,8.2821 -29.46555,3.68093 -3.43763,-0.46011 27.01008,-7.82199 53.52905,-18.40467 57.94886,-14.26362 6.38421,0.46012 z"
         fill="none"
         stroke="#000000"
         stroke-width="0.475352"
         style="stroke-width:1.85503754;stroke-dasharray:none" />
      <path
         id="path68"
         d="m 387.44448,242.92104 -8.83968,11.96303 -4.91092,3.22082 -58.43998,8.74222 -11.78619,0.92023 -23.08133,-0.92023 -14.24172,-4.14106 12.27731,-6.90174 13.25948,-5.06129 h 48.61813 l 44.19832,-8.28211 z"
         fill="none"
         stroke="#000000"
         stroke-width="0.475352"
         style="stroke-width:1.85503754;stroke-dasharray:none" />
      <path
         id="path69"
         d="m 391.86428,236.47939 -3.43763,4.14105 -48.61812,8.74223 -27.99226,-0.46012 16.69712,-0.92024 32.90318,-5.98151 28.48337,-9.66245 z"
         fill="none"
         stroke="#000000"
         stroke-width="0.475352"
         style="stroke-width:1.85503754;stroke-dasharray:none" />
      <path
         id="path70"
         d="m 444.90229,211.63309 -12.27732,8.74222 -9.33072,4.14105 -9.82185,2.30058 -4.91093,9.66245 -5.89317,7.82199 -6.38414,0.46012 -13.7506,11.96303 -2.94659,-0.46011 4.41988,-5.06129 6.38414,-11.0428 3.43771,-1.84047 -1.47329,-3.68093 1.47329,-3.68094 27.50113,-12.42315 22.09916,-7.36187 z"
         fill="none"
         stroke="#000000"
         stroke-width="0.475352"
         style="stroke-width:1.85503754;stroke-dasharray:none" />
      <path
         id="path71"
         d="m 450.30426,207.95216 -29.46548,9.20233 -27.99233,12.88327 -31.92093,10.58268 -32.90318,5.98153 -32.90326,1.38034 -18.1704,6.90176 -13.25949,7.36187 -0.49104,1.38035 16.69711,4.60116 24.0635,0.92024 11.78627,-0.92024 67.27957,-10.12256 14.73278,-12.42316 h 5.89317 l 10.80402,-17.48443 9.33072,-2.30059 10.31298,-4.60117 8.8396,-5.5214 z"
         fill="none"
         stroke="#000000"
         stroke-width="0.475352"
         style="stroke-width:1.85503754;stroke-dasharray:none" />
    </g>
    <g
       id="t15"
       style="display:inline;stroke-width:1.152;stroke-dasharray:none"
       transform="translate(801,250)">
      <path
         id="path72"
         d="m 44.662027,396.13993 9.82185,-0.46012 73.172763,13.80351 73.66385,6.90175 36.83191,2.30059 0.49112,1.84046 -7.36638,0.46012 -90.85211,-5.06129 z"
         fill="none"
         stroke="#000000"
         stroke-width="0.475352"
         style="stroke-width:1.152;stroke-dasharray:none" />
      <path
         id="path73"
         d="m 195.91847,392.91912 h 11.78621 l 26.02792,18.40467 4.4198,5.5214 -4.91092,0.46011 -30.93881,-2.30058 z"
         fill="none"
         stroke="#000000"
         stroke-width="0.475352"
         style="stroke-width:1.152;stroke-dasharray:none" />
      <path
         id="path74"
         d="m 55.466062,378.65549 2.946555,-0.46011 33.885365,4.60116 -0.982185,1.84047 -7.857472,-0.46012 -0.982185,1.84047 h 9.821842 l 1.96437,-2.7607 13.259498,2.30059 -9.330754,0.46011 -0.982189,1.84047 10.312943,-0.46012 1.96437,-1.84046 12.27731,1.38034 v 0.92024 l -8.34857,-0.46012 -0.98218,2.30059 1.96436,-0.92024 8.34857,0.46012 1.47328,-1.84047 69.73511,4.60117 0.98218,4.60117 -6.87529,-0.46012 -0.98219,1.84047 h 8.34858 l 1.47327,4.60117 -0.98218,0.92023 -8.83967,-0.46012 -0.98218,2.30058 1.96437,-0.92023 h 9.33076 l 2.94655,9.66245 -3.43765,0.46012 -68.75292,-6.44163 -29.956634,-5.5214 -0.982189,-1.38036 8.839673,0.46012 0.98218,-1.84047 H 96.226722 l -1.473277,1.84047 -7.36638,-1.38035 3.43764,-0.46012 0.982185,-1.84046 -13.750582,0.92023 -1.96437,-0.92023 0.982185,-1.84047 -11.786212,0.46012 -2.455462,-0.46012 -0.982185,-1.84047 -2.455463,0.92024 -3.437647,-0.46012 -0.491092,-5.06128 6.384202,-0.46012 0.982185,-1.84047 -6.875295,0.46012 -0.491092,-5.5214 h 7.366387 l 0.982185,-1.84047 h -7.85748 z"
         fill="none"
         stroke="#000000"
         stroke-width="0.475352"
         style="stroke-width:1.152;stroke-dasharray:none" />
      <path
         id="path75"
         d="m 181.67679,408.10297 -2.45546,0.92023 -7.85748,-0.46012 -0.98218,1.84047 h 9.82185 z"
         fill="none"
         stroke="#000000"
         stroke-width="0.475352"
         style="stroke-width:1.152;stroke-dasharray:none" />
      <path
         id="path76"
         d="m 126.18336,398.44052 1.96437,-0.92024 8.83966,0.46012 0.98218,-1.84047 h -10.80403 z"
         fill="none"
         stroke="#000000"
         stroke-width="0.475352"
         style="stroke-width:1.152;stroke-dasharray:none" />
      <path
         id="path77"
         d="m 108.01295,392.459 -2.45547,0.92023 -8.348573,-0.46011 -0.982185,1.84046 h 10.312948 z"
         fill="none"
         stroke="#000000"
         stroke-width="0.475352"
         style="stroke-width:1.152;stroke-dasharray:none" />
      <path
         id="path78"
         d="M 81.493955,392.91912 H 91.80689 l 0.982185,-1.84047 H 82.47614 Z"
         fill="none"
         stroke="#000000"
         stroke-width="0.475352"
         style="stroke-width:1.152;stroke-dasharray:none" />
      <path
         id="path79"
         d="m 66.270096,391.53876 1.964363,-0.92023 8.839664,0.46012 0.982185,-1.84047 H 67.252274 Z"
         fill="none"
         stroke="#000000"
         stroke-width="0.475352"
         style="stroke-width:1.152;stroke-dasharray:none" />
      <path
         id="path80"
         d="m 37.295648,375.43467 16.697136,2.76071 -0.491092,16.10408 h -13.25949 l -1.473277,-1.38034 -2.455462,-6.44165 v -10.12256 z"
         fill="none"
         stroke="#000000"
         stroke-width="0.475352"
         style="stroke-width:1.152;stroke-dasharray:none" />
      <path
         id="path81"
         d="m 182.65898,401.20121 -10.31294,0.46012 -0.98219,1.84047 10.31294,-0.46012 z"
         fill="none"
         stroke="#000000"
         stroke-width="0.475352"
         style="display:inline;stroke-width:1.152;stroke-dasharray:none" />
      <path
         id="path82"
         d="m 196.90065,409.94344 -10.31294,0.46011 -0.98218,1.84047 10.31294,-0.46012 z"
         fill="none"
         stroke="#000000"
         stroke-width="0.475352"
         style="stroke-width:1.152;stroke-dasharray:none" />
      <path
         id="path83"
         d="m 155.15781,408.56308 h 10.80402 l 0.98219,-1.84046 h -10.31293 z"
         fill="none"
         stroke="#000000"
         stroke-width="0.475352"
         style="stroke-width:1.152;stroke-dasharray:none" />
      <path
         id="path84"
         d="m 140.42503,407.18273 1.96437,-0.92023 8.34858,0.46012 0.98218,-1.84047 h -10.31294 z"
         fill="none"
         stroke="#000000"
         stroke-width="0.475352"
         style="stroke-width:1.152;stroke-dasharray:none" />
      <path
         id="path85"
         d="m 136.98739,403.04168 -10.31294,0.46012 -1.47328,1.84046 10.80404,-0.46011 z"
         fill="none"
         stroke="#000000"
         stroke-width="0.475352"
         style="stroke-width:1.152;stroke-dasharray:none" />
      <path
         id="path86"
         d="m 121.76353,401.20121 -2.45547,0.92024 -7.85747,-0.46012 -0.98218,1.84047 h 9.82184 z"
         fill="none"
         stroke="#000000"
         stroke-width="0.475352"
         style="stroke-width:1.152;stroke-dasharray:none" />
      <path
         id="path87"
         d="m 167.9262,399.36075 -2.45546,0.92023 -8.34856,-0.46012 -0.98219,1.84047 h 10.31294 z"
         fill="none"
         stroke="#000000"
         stroke-width="0.475352"
         style="stroke-width:1.152;stroke-dasharray:none" />
      <path
         id="path88"
         d="m 141.40722,399.82086 h 10.31294 l 0.98219,-1.84046 H 142.3894 Z"
         fill="none"
         stroke="#000000"
         stroke-width="0.475352"
         style="stroke-width:1.152;stroke-dasharray:none" />
      <path
         id="path89"
         d="m 172.34604,396.60005 1.96437,-0.92024 8.34857,0.46012 0.98218,-1.84047 h -10.31294 z"
         fill="none"
         stroke="#000000"
         stroke-width="0.475352"
         style="stroke-width:1.152;stroke-dasharray:none" />
      <path
         id="path90"
         d="m 122.74571,394.29946 -10.31293,0.46012 -0.98219,1.84047 10.31294,-0.46012 z"
         fill="none"
         stroke="#000000"
         stroke-width="0.475352"
         style="stroke-width:1.152;stroke-dasharray:none" />
      <path
         id="path91"
         d="m 168.90839,392.459 -10.80403,0.46012 -0.98218,1.84046 10.80402,-0.46012 z"
         fill="none"
         stroke="#000000"
         stroke-width="0.475352"
         style="stroke-width:1.152;stroke-dasharray:none" />
      <path
         id="path92"
         d="m 153.68453,390.61853 -2.45546,0.92023 -7.85748,-0.46011 -0.98219,1.84047 h 9.82185 z"
         fill="none"
         stroke="#000000"
         stroke-width="0.475352"
         style="stroke-width:1.152;stroke-dasharray:none" />
      <path
         id="path93"
         d="m 127.16554,391.07865 h 10.80403 l 0.98219,-1.84047 h -10.80403 z"
         fill="none"
         stroke="#000000"
         stroke-width="0.475352"
         style="stroke-width:1.152;stroke-dasharray:none" />
      <path
         id="path94"
         d="M 67.252274,384.17689 H 77.565216 L 78.5474,382.33643 H 68.234459 Z"
         fill="none"
         stroke="#000000"
         stroke-width="0.475352"
         style="stroke-width:1.152;stroke-dasharray:none" />
    </g>
    <g
       id="t16"
       style="display:inline;stroke-width:2.23290688;stroke-dasharray:none"
       transform="matrix(0.51591941,0,0,0.51591941,826.48805,397.31037)">
      <path
         id="path95"
         d="m 20.107418,298.59517 3.43764,-4.60117 5.89311,-1.84047 74.646042,1.84047 73.17275,9.20233 32.41209,11.04281 29.46552,16.5642 10.80402,7.36187 13.7506,6.44164 13.25949,4.14105 10.31297,1.84047 v 0.92023 l -34.8676,2.30059 0.49112,1.38034 7.85751,4.14106 13.75053,5.5214 17.67936,3.22081 92.32533,-0.92023 0.49112,1.38035 -5.40205,14.72374 -81.03018,1.38035 H 163.99747 l -75.137128,-5.98152 -74.154941,-14.26362 -0.982185,-2.7607 v -5.5214 l 2.455463,-8.28211 112.951231,11.50293 114.42454,0.92023 -0.49112,-1.38035 -113.44232,-0.92023 -112.951239,-11.50292 -0.491092,-1.84047 3.437647,-16.10409 z"
         fill="none"
         stroke="#000000"
         stroke-width="0.475352"
         style="stroke-width:2.23290688;stroke-dasharray:none" />
    </g>
    <g
       id="t17"
       style="display:inline;stroke-width:1.152;stroke-dasharray:none"
       transform="translate(406,314)">
      <path
         id="path96"
         d="m 273.51104,362.5514 3.43764,0.46012 -1.96434,0.46012 z"
         fill="none"
         stroke="#000000"
         stroke-width="0.475352"
         style="stroke-width:1.152;stroke-dasharray:none" />
      <path
         id="path97"
         d="m 309.36081,360.71093 40.76061,-0.46011 3.92876,0.92024 -40.26957,0.92023 z"
         fill="none"
         stroke="#000000"
         stroke-width="0.475352"
         style="stroke-width:1.152;stroke-dasharray:none" />
      <path
         id="path98"
         d="m 287.75277,363.01152 -7.36639,-0.46012 -8.83968,-2.7607 -4.91092,-2.7607 20.62587,-1.38035 z"
         fill="none"
         stroke="#000000"
         stroke-width="0.475352"
         style="stroke-width:1.152;stroke-dasharray:none" />
      <path
         id="path99"
         d="m 388.91777,351.96872 -3.92875,13.8035 -92.3254,0.92024 -10.3129,-1.84047 h 6.87527 l 0.49112,-6.44164 h 10.80402 l 0.49112,2.30058 12.27731,2.76071 71.20834,-0.92024 3.43763,-10.58268 z"
         fill="none"
         stroke="#000000"
         stroke-width="0.475352"
         style="stroke-width:1.152;stroke-dasharray:none" />
      <path
         id="path100"
         d="m 386.95336,351.04848 -3.43763,10.12258 h -17.67929 l -11.78626,-2.30059 h -6.87527 l -15.22389,-2.30059 h -42.72503 l 0.49112,-0.92023 66.29748,-3.22082 4.4198,5.06129 5.40205,2.30058 h 16.69712 l 2.45546,-8.2821 z"
         fill="none"
         stroke="#000000"
         stroke-width="0.475352"
         style="stroke-width:1.152;stroke-dasharray:none" />
      <path
         id="path101"
         d="m 383.51573,351.04848 -2.45547,7.36187 h -14.73277 l -4.4198,-1.84047 -3.92876,-4.14105 z"
         fill="none"
         stroke="#000000"
         stroke-width="0.475352"
         style="stroke-width:1.152;stroke-dasharray:none" />
      <path
         id="path102"
         d="m 390.39099,347.82766 -1.47322,4.14106 -0.49112,-2.76071 -63.3509,3.68094 -61.8776,2.30058 -0.49113,1.38035 5.40205,2.76071 0.49105,1.38034 -12.27731,-5.5214 45.67161,-3.68093 81.03018,-4.14105 z"
         fill="none"
         stroke="#000000"
         stroke-width="0.475352"
         style="stroke-width:1.152;stroke-dasharray:none" />
    </g>
  </g>
  <g
     inkscape:groupmode="layer"
     id="layer4"
     inkscape:label="_wheels"
     style="display:inline">
    <g
       id="g9"
       style="stroke-width:1.152;stroke-dasharray:none">
      <path
         id="part_70"
         d="m 999.3455,297.67493 h 2.4555 l 4.4198,4.60117 2.4554,5.52141 1.4733,7.36186 -0.9821,17.94455 -1.9645,6.44164 -5.8931,6.90176 -4.41975,-0.92024 -2.45547,-2.7607 -3.43763,-9.66246 -0.98217,-7.82198 1.47322,-16.10409 2.94658,-6.90175 z"
         fill="none"
         stroke="#000000"
         stroke-width="0.475352"
         style="stroke-width:1.152;stroke-dasharray:none" />
      <path
         id="part_72"
         d="m 995.90788,316.99984 2.45542,1.38035 0.9822,6.90175 -2.45545,3.22082 h -1.4733 l -2.45546,-3.22082 0.49112,-5.98152 z"
         fill="none"
         stroke="#000000"
         stroke-width="0.475352"
         style="stroke-width:1.152;stroke-dasharray:none" />
      <path
         id="part_85"
         d="m 998.8544,264.54652 h 7.3664 l 11.7862,10.58269 6.3842,13.34338 4.9109,25.30643 v 22.54572 l -4.4198,21.16538 -2.4555,6.90175 -5.8931,9.66246 -6.3842,5.98151 -4.9109,1.84047 -4.9109,-0.46012 -4.41982,-2.30058 -6.87534,-7.36187 0.98224,-0.46012 3.92868,2.30058 h 4.91094 l 3.4376,-1.38034 6.8754,-5.98153 3.4376,-5.98151 6.3842,-18.40467 1.4733,-11.96304 v -20.70526 l -0.9823,-7.82199 -3.9286,-13.8035 -5.8932,-11.50292 -7.3664,-6.44163 -3.9287,-0.92023 -6.8753,0.92023 z"
         fill="none"
         stroke="#000000"
         stroke-width="0.475352"
         style="stroke-width:1.152;stroke-dasharray:none" />
      <path
         id="part_98"
         d="m 1016.0426,236.01928 5.8931,5.5214 5.8932,8.2821 4.9109,10.12258 3.4376,11.0428 1.4732,8.74222 -0.491,23.92607 -2.9466,12.88327 -1.4732,-1.38035 -0.4911,-11.0428 -4.4198,-21.16538 -5.8932,-13.8035 -6.3841,-10.12257 -4.911,-4.60117 -8.8396,-3.68093 -6.87537,0.46011 -5.89309,2.76071 -4.41981,4.14105 -8.83967,14.26362 -5.8931,18.86479 -3.43763,22.08561 0.49105,23.46595 2.94658,22.08561 5.40205,16.10409 7.36638,13.34338 8.83961,7.82199 -15.71494,0.46012 -21.60804,-1.38035 -10.80402,-4.60117 -8.83968,-7.82199 -4.41981,-7.82198 13.25949,0.46011 4.4198,-3.68093 1.96434,-5.52141 2.45546,-1.38034 6.87534,-18.40467 8.34856,-55.21402 11.78619,-34.50877 6.87534,-10.12256 9.82185,-9.66246 8.34852,-2.7607 h 5.402 z"
         fill="none"
         stroke="#000000"
         stroke-width="0.475352"
         style="stroke-width:1.152;stroke-dasharray:none" />
      <path
         id="part_68"
         d="m 995.90788,270.06792 5.89312,0.92024 1.9643,1.38035 7.8575,9.66245 4.4198,12.42315 2.9466,15.18386 v 19.78502 l -3.4376,19.32491 -7.3664,16.10409 -5.4021,5.06128 -4.4198,2.30059 h -3.92872 l -3.43763,-1.84047 -6.38422,-6.44164 -4.91092,-13.8035 -2.94658,-17.94456 v -17.48444 l 4.41987,-25.76654 6.38422,-13.34339 4.4198,-4.14105 z"
         fill="none"
         stroke="#000000"
         stroke-width="0.475352"
         style="stroke-width:1.152;stroke-dasharray:none" />
      <path
         id="part_69"
         d="m 998.8544,296.29458 -3.92877,2.7607 -3.43763,5.5214 -1.96434,5.98152 -0.98217,14.72374 0.98217,8.28211 3.92875,10.58268 4.91089,3.68093 h 3.4377 l 6.3842,-6.90174 2.4554,-7.36187 0.9822,-18.8648 -1.4733,-7.36187 -2.9466,-6.44163 -3.9286,-4.14105 z"
         fill="none"
         stroke="#000000"
         stroke-width="0.475352"
         style="stroke-width:1.152;stroke-dasharray:none" />
      <path
         id="part_87"
         d="m 1001.3098,252.12337 7.8576,3.22081 5.4019,5.06129 4.4199,6.44164 7.3664,16.5642 3.9287,20.70526 h -0.9822 l -3.4376,-16.10409 -2.9466,-7.36187 -3.9287,-6.90176 -8.8397,-8.74221 -3.4376,-1.84046 h -8.3486 l -5.40201,2.76069 -3.43763,3.22082 -5.40205,8.74222 -4.4198,10.58268 -4.4198,25.76655 v 18.40467 l 4.91092,24.38619 6.87527,15.18386 7.36638,7.82198 7.36642,3.22082 6.3842,-0.46012 3.4376,-1.84047 7.3664,-7.36187 7.3664,-15.64396 4.4198,-21.16538 V 316.0796 h 0.9822 v 22.08561 l -3.4377,22.08561 -3.4376,11.0428 -5.8931,11.96304 -8.8397,8.74222 -4.4198,2.30058 -10.31295,2.30059 -4.4198,-2.30059 -7.36639,-7.36187 -5.89309,-10.12257 -3.92875,-10.12256 -4.41988,-19.32491 -1.47322,-33.58853 5.8931,-31.74806 7.36638,-16.5642 9.33073,-10.58269 4.91092,-2.30058 z"
         fill="none"
         stroke="#000000"
         stroke-width="0.475352"
         style="stroke-width:1.152;stroke-dasharray:none" />
      <path
         id="part_71"
         d="m 995.41675,315.61949 -3.43763,3.22082 -0.49112,6.44163 2.94658,4.60117 h 3.43762 l 2.4555,-2.7607 0.4911,-5.98152 -1.4733,-4.14105 z"
         fill="none"
         stroke="#000000"
         stroke-width="0.475352"
         style="stroke-width:1.152;stroke-dasharray:none" />
    </g>
    <g
       id="g10"
       style="stroke-width:1.152;stroke-dasharray:none">
      <path
         id="part_75"
         d="m 551.46934,289.85295 7.85743,1.38035 9.3308,4.14105 7.85744,5.06129 9.33073,9.20233 7.36638,10.12257 5.89317,11.50292 7.85744,26.68678 0.98217,28.52723 -1.47322,14.72374 -3.43771,13.80351 -9.82185,23.92608 -8.34855,12.88327 -11.29515,11.50292 -6.38414,5.06128 -8.34856,4.60117 -11.29514,3.22082 h -12.76843 l -6.38422,-0.92024 -7.85743,-3.22081 -9.82185,-5.98153 -9.33073,-9.20233 -7.36639,-10.12257 -5.89317,-11.50292 -4.4198,-12.88327 -2.94658,-13.80351 -1.47322,-28.52724 1.47322,-14.72373 3.4377,-14.26363 9.33073,-22.54572 8.83968,-13.80351 11.29514,-11.50292 6.38414,-5.06128 7.85751,-4.14105 11.78619,-3.68094 z"
         fill="none"
         stroke="#000000"
         stroke-width="0.475352"
         style="stroke-width:1.152;stroke-dasharray:none" />
      <path
         id="part_77"
         d="m 545.67783,311.26153 11.4705,3.47171 6.8823,4.33962 7.79992,7.37737 5.50584,7.81133 4.58819,9.54718 4.58821,14.32078 2.2941,14.32077 v 19.09437 l -3.21173,19.09436 -3.67058,10.84907 -4.58819,9.98115 -7.34109,10.41511 -6.88229,7.37737 -12.3882,8.24529 -7.79993,2.16981 -10.09403,0.43397 -5.04704,-0.86793 -12.38813,-6.9434 -8.2587,-7.81134 -10.55288,-16.92455 -5.96468,-21.69814 -0.91762,-11.28303 0.91762,-23.00004 6.42346,-22.1321 8.71762,-16.49059 5.50583,-6.9434 9.1764,-8.2453 7.79993,-4.33963 7.79993,-2.16981 z"
         fill="none"
         stroke="#000000"
         stroke-width="0.446218"
         style="stroke-width:1.152;stroke-dasharray:none" />
      <path
         id="part_79"
         d="m 534.77215,345.06697 h 7.85751 l 3.92875,1.38035 8.83961,6.90174 4.91092,7.36187 3.92876,13.3434 v 13.8035 l -5.40198,16.10409 -10.31297,11.0428 -8.34855,3.22081 h -7.36639 l -8.34856,-4.14105 -6.87534,-6.90175 -4.4198,-9.66245 -2.45546,-11.50292 1.47329,-16.10409 4.4198,-10.58268 9.82185,-11.0428 z"
         fill="none"
         stroke="#000000"
         stroke-width="0.475352"
         style="stroke-width:1.152;stroke-dasharray:none" />
      <path
         id="part_84"
         d="m 536.73656,370.83351 5.40198,3.68093 0.98217,8.74222 -6.87527,-5.5214 1.47329,-4.14106 h -3.92875 l -2.45546,7.82199 v 4.14106 h 3.43763 l 0.49112,-3.22082 7.36639,3.22082 -2.94659,5.06128 -4.4198,1.38035 -4.91092,-4.60117 -0.98217,-5.98152 1.96434,-6.44163 2.94658,-3.22082 z"
         fill="none"
         stroke="#000000"
         stroke-width="0.475352"
         style="stroke-width:1.152;stroke-dasharray:none" />
      <path
         id="part_90"
         d="m 578.97047,244.30138 8.83968,4.60117 9.82185,6.90176 11.78619,11.50291 8.34856,11.04281 6.38421,11.96303 4.41981,12.88327 6.38421,28.52725 1.96442,23.46595 -1.47329,34.04865 -1.4733,10.58268 -2.94658,6.90176 -9.82185,10.12257 -2.45546,0.46011 3.92875,-19.3249 0.49112,-9.66246 -0.49112,-28.06712 -2.94651,-18.40467 -4.91092,-17.02432 -6.87534,-16.1041 -11.78619,-17.48443 -10.31297,-10.58269 -8.34856,-6.44163 -13.25948,-6.90176 -13.25949,-3.68093 h -13.25948 l -13.25948,2.30058 -13.7506,5.98152 -12.27731,8.74222 -10.80402,10.12257 -14.24166,21.16537 -11.29514,25.30643 -4.41987,17.94455 -2.94652,18.8648 0.98217,37.72957 3.43764,17.94456 5.40204,16.56421 8.34856,16.10408 8.83968,13.34339 12.76836,12.42315 8.83968,6.44164 7.36639,3.22081 -2.94659,0.46013 -40.76061,-4.14106 -13.25949,-4.14105 -15.22389,-9.20234 -9.82185,-9.66245 -4.4198,-8.2821 1.96434,-8.28211 0.98217,-1.38035 3.92875,-0.92023 4.4198,-8.74222 1.96442,-7.82198 V 409.0232 l 6.87526,-52.91343 10.80402,-34.50877 14.24173,-28.52723 11.78619,-17.48445 14.73277,-13.8035 11.29514,-8.28211 15.71495,-8.28209 16.69711,-5.06129 9.82185,-1.38035 h 9.82185 l 9.82185,1.84046 z"
         fill="none"
         stroke="#000000"
         stroke-width="0.475352"
         style="stroke-width:1.152;stroke-dasharray:none" />
      <path
         id="part_78"
         d="m 534.2811,343.68661 -9.3308,3.68094 -9.33073,10.58269 -4.91092,11.50291 -1.4733,16.56421 3.43764,14.72374 3.92875,7.82198 7.85751,7.36187 7.85744,3.68094 h 8.34855 l 9.3308,-3.68094 9.82185,-10.58269 2.94651,-5.98151 2.94659,-11.04281 V 373.5942 l -3.92876,-13.34338 -5.40197,-8.2821 -9.3308,-6.90175 -3.92875,-1.38036 z"
         fill="none"
         stroke="#000000"
         stroke-width="0.475352"
         style="stroke-width:1.152;stroke-dasharray:none" />
      <path
         id="part_80"
         d="m 536.73656,369.45315 -5.40204,2.76071 -3.43764,8.74221 1.4733,7.82199 2.94651,3.68094 2.45546,0.92023 5.89309,-1.38035 3.92876,-6.44163 v -8.74223 l -0.98217,-2.76069 -2.94659,-3.22082 z"
         fill="none"
         stroke="#000000"
         stroke-width="0.475352"
         style="stroke-width:1.152;stroke-dasharray:none" />
      <path
         id="part_81"
         d="m 533.78998,377.73526 4.4198,3.22081 h -4.4198 z"
         fill="none"
         stroke="#000000"
         stroke-width="0.475352"
         style="stroke-width:1.152;stroke-dasharray:none" />
      <path
         id="part_73"
         d="m 550.97821,265.00664 13.75061,4.14105 11.29507,5.98152 8.34863,6.44164 13.25948,13.8035 8.83968,13.8035 6.87526,16.10409 4.91093,17.02432 2.94651,18.40467 v 36.80935 l -3.43763,18.40467 -5.8931,18.86479 -6.38421,15.18386 -8.34856,13.8035 -13.75061,12.88327 -15.71494,10.12257 -15.71494,6.44164 -15.71495,4.14105 -19.6437,1.38035 -11.78619,-5.06129 -8.83968,-6.44163 -13.25948,-12.88327 -8.83968,-13.34339 -7.85743,-15.18386 -5.40205,-16.5642 -3.43763,-17.94455 -0.98217,-36.80935 2.94651,-18.86479 4.91092,-19.32491 10.31297,-23.00583 14.24166,-21.16538 11.29514,-10.58268 15.22382,-10.12258 12.27731,-4.60116 10.80402,-1.84047 z"
         fill="none"
         stroke="#000000"
         stroke-width="0.475352"
         style="stroke-width:1.152;stroke-dasharray:none" />
      <path
         id="part_74"
         d="m 551.96039,288.47259 -12.76836,0.46012 -12.76844,4.14106 -7.85743,4.14105 -6.38422,5.06128 -10.80402,11.04281 -7.36639,11.0428 -8.83968,19.3249 -5.89309,21.16538 -1.47329,14.72374 1.47329,29.44747 2.94651,13.80351 4.41988,12.88327 6.38414,12.42315 7.36639,10.12257 8.83967,8.74222 10.80402,6.44163 7.85751,3.22082 6.38422,0.92024 h 13.75053 l 12.27731,-3.68094 8.34863,-4.60117 6.38415,-5.06128 10.80402,-11.04281 7.36638,-11.0428 6.38422,-12.88327 8.34856,-27.60701 1.47329,-14.72374 -0.98217,-29.44747 -7.85751,-26.68678 -6.38414,-12.42315 -7.36639,-10.12257 -8.83968,-8.74222 -7.85751,-5.06129 -10.3129,-4.60116 z"
         fill="none"
         stroke="#000000"
         stroke-width="0.475352"
         style="stroke-width:1.152;stroke-dasharray:none" />
      <path
         id="part_86"
         d="m 478.78764,258.565 11.29514,6.44164 -9.82185,9.20234 -9.82185,13.8035 -16.69712,33.12841 -10.80409,34.50876 -5.40197,43.7111 -0.98217,0.92023 -11.29514,1.38035 -9.33073,5.98152 9.82185,-46.01168 18.66145,-47.39203 27.99226,-48.31227 z"
         fill="none"
         stroke="#000000"
         stroke-width="0.475352"
         style="stroke-width:1.152;stroke-dasharray:none" />
      <path
         id="part_99"
         d="m 480.26093,256.72453 13.7506,-11.96303 13.75053,-8.28211 14.24173,-5.98151 15.22382,-3.68094 11.78626,-1.38035 h 12.76836 l 9.82185,1.84047 17.67936,8.28211 14.24165,11.50291 18.66153,20.24514 11.78619,19.32491 10.31297,33.12841 2.94652,22.54572 0.98217,19.32491 -1.47322,25.30642 -9.82185,1.38035 1.47322,-33.58852 -1.96434,-23.46596 -6.38422,-28.52724 -4.4198,-12.88327 -7.85751,-14.26363 -7.36639,-9.66245 -11.29507,-11.0428 -13.25955,-8.74222 -16.206,-6.90175 -10.31297,-1.84047 h -10.3129 l -9.82184,1.38035 -16.69719,5.06128 -16.69712,8.74223 -14.24165,11.0428 -10.31297,-5.06129 z"
         fill="none"
         stroke="#000000"
         stroke-width="0.475352"
         style="stroke-width:1.152;stroke-dasharray:none" />
    </g>
  </g>
</svg>
